<svg width="17" height="17" viewBox="0 0 17 17" fill="none" xmlns="http://www.w3.org/2000/svg">
<path d="M10.0809 10.1246C10.0898 10.0556 10.0942 9.98612 10.0941 9.91657C10.0946 9.84692 10.0894 9.77735 10.0785 9.70855L10.5271 9.35863C10.5465 9.34271 10.5597 9.32058 10.5645 9.29599C10.5694 9.27141 10.5656 9.24591 10.5538 9.22382L10.1295 8.4888C10.117 8.46657 10.097 8.44949 10.0731 8.44058C10.0492 8.43168 10.0229 8.43153 9.99893 8.44016L9.4698 8.65266C9.36002 8.5677 9.23941 8.49775 9.11115 8.44465L9.03158 7.88223C9.02763 7.85692 9.01474 7.83385 8.99525 7.81722C8.97576 7.80059 8.95095 7.79148 8.92533 7.79157H8.07533C8.04995 7.79155 8.02542 7.80073 8.00628 7.8174C7.98714 7.83406 7.97468 7.85709 7.9712 7.88223L7.89163 8.44465C7.76333 8.4981 7.64252 8.56802 7.53227 8.65266L7.00338 8.44016C6.97939 8.43106 6.9529 8.43098 6.92885 8.43992C6.90479 8.44887 6.8848 8.46623 6.87258 8.4888L6.45065 9.22382C6.43708 9.24544 6.43227 9.27141 6.43718 9.29646C6.44209 9.32151 6.45637 9.34374 6.47709 9.35863L6.9257 9.70855C6.91385 9.77728 6.90745 9.84683 6.90658 9.91657C6.90616 9.98621 6.91137 10.0558 6.92216 10.1246L6.47355 10.4743C6.45418 10.4902 6.44094 10.5124 6.43608 10.537C6.43122 10.5616 6.43503 10.5872 6.44687 10.6093L6.87187 11.3443C6.88437 11.3666 6.90435 11.3836 6.92825 11.3925C6.95215 11.4015 6.97844 11.4016 7.00244 11.393L7.53156 11.1805C7.64135 11.2654 7.76196 11.3354 7.89022 11.3885L7.96979 11.9509C7.97403 11.976 7.9869 11.9987 8.00618 12.0153C8.02546 12.0319 8.04992 12.0411 8.07533 12.0416H8.92533C8.95081 12.0419 8.97552 12.0329 8.99474 12.0162C9.01395 11.9994 9.02632 11.9762 9.02945 11.9509L9.10902 11.3885C9.23749 11.3358 9.35816 11.2658 9.46768 11.1805L9.99656 11.393C10.0206 11.4021 10.047 11.4022 10.0711 11.3932C10.0952 11.3843 10.1151 11.3669 10.1274 11.3443L10.5524 10.6093C10.5654 10.5875 10.5699 10.5616 10.565 10.5367C10.5601 10.5117 10.5461 10.4895 10.5257 10.4743L10.0809 10.1246ZM8.50033 10.7666C8.33221 10.7666 8.16788 10.7167 8.02809 10.6233C7.88831 10.5299 7.77937 10.3972 7.71503 10.2418C7.6507 10.0865 7.63386 9.91562 7.66666 9.75074C7.69946 9.58585 7.78041 9.4344 7.89929 9.31552C8.01816 9.19665 8.16962 9.1157 8.3345 9.0829C8.49939 9.0501 8.67029 9.06693 8.82561 9.13127C8.98093 9.1956 9.11368 9.30455 9.20708 9.44433C9.30048 9.58411 9.35033 9.74845 9.35033 9.91657C9.34964 10.1418 9.25987 10.3576 9.10061 10.5168C8.94135 10.6761 8.72555 10.7659 8.50033 10.7666Z" fill="black" fill-opacity="0.4"/>
<path d="M8.53055 4.26341C6.97186 4.26341 5.68326 5.22698 5.66669 6.44107V6.79841C5.67684 6.8826 5.7196 6.95943 5.78575 7.01241C5.85191 7.06538 5.93619 7.09026 6.02047 7.0817H10.9796C11.0639 7.09026 11.1481 7.06538 11.2143 7.01241C11.2804 6.95943 11.3232 6.8826 11.3334 6.79841V6.43985C11.3176 5.25208 10.0581 4.27555 8.52933 4.26219" fill="black" fill-opacity="0.4"/>
<path d="M8.4903 3.84971H8.49273C8.81497 3.84939 9.1239 3.72099 9.35159 3.49276C9.57928 3.26452 9.70709 2.95512 9.70693 2.63259C9.70677 2.31006 9.57865 2.00079 9.35073 1.77278C9.12281 1.54477 8.81376 1.41669 8.49152 1.41669C8.16927 1.41669 7.86022 1.54477 7.63231 1.77278C7.40439 2.00079 7.27627 2.31006 7.2761 2.63259C7.27594 2.95512 7.40376 3.26452 7.63145 3.49276C7.85914 3.72099 8.16806 3.84939 8.4903 3.84971Z" fill="black" fill-opacity="0.4"/>
<path d="M4.28055 12.7634C2.72186 12.7634 1.43326 13.727 1.41669 14.9411V15.2984C1.42684 15.3826 1.4696 15.4594 1.53575 15.5124C1.60191 15.5654 1.68619 15.5903 1.77047 15.5817H6.72957C6.81385 15.5903 6.89813 15.5654 6.96429 15.5124C7.03045 15.4594 7.0732 15.3826 7.08335 15.2984V14.9399C7.06758 13.7521 5.8081 12.7755 4.27933 12.7622" fill="black" fill-opacity="0.4"/>
<path d="M4.2403 12.3497H4.24273C4.56497 12.3494 4.8739 12.221 5.10159 11.9928C5.32928 11.7645 5.45709 11.4551 5.45693 11.1326C5.45677 10.8101 5.32865 10.5008 5.10073 10.2728C4.87281 10.0448 4.56376 9.91669 4.24152 9.91669C3.91927 9.91669 3.61022 10.0448 3.38231 10.2728C3.15439 10.5008 3.02627 10.8101 3.0261 11.1326C3.02594 11.4551 3.15376 11.7645 3.38145 11.9928C3.60914 12.221 3.91806 12.3494 4.2403 12.3497Z" fill="black" fill-opacity="0.4"/>
<path d="M12.7805 12.7634C11.2219 12.7634 9.93326 13.727 9.91669 14.9411V15.2984C9.92684 15.3826 9.9696 15.4594 10.0358 15.5124C10.1019 15.5654 10.1862 15.5903 10.2705 15.5817H15.2296C15.3139 15.5903 15.3981 15.5654 15.4643 15.5124C15.5304 15.4594 15.5732 15.3826 15.5834 15.2984V14.9399C15.5676 13.7521 14.3081 12.7755 12.7793 12.7622" fill="black" fill-opacity="0.4"/>
<path d="M12.7403 12.3497H12.7427C13.065 12.3494 13.3739 12.221 13.6016 11.9928C13.8293 11.7645 13.9571 11.4551 13.9569 11.1326C13.9568 10.8101 13.8286 10.5008 13.6007 10.2728C13.3728 10.0448 13.0638 9.91669 12.7415 9.91669C12.4193 9.91669 12.1102 10.0448 11.8823 10.2728C11.6544 10.5008 11.5263 10.8101 11.5261 11.1326C11.5259 11.4551 11.6538 11.7645 11.8814 11.9928C12.1091 12.221 12.4181 12.3494 12.7403 12.3497Z" fill="black" fill-opacity="0.4"/>
</svg>
