<svg width="17" height="16" viewBox="0 0 17 16" fill="none" xmlns="http://www.w3.org/2000/svg">
<path d="M8.88401 14.539C8.83709 14.5953 8.77837 14.6405 8.71201 14.6716C8.64566 14.7027 8.57328 14.7188 8.50001 14.7188C8.42674 14.7188 8.35437 14.7027 8.28801 14.6716C8.22166 14.6405 8.16294 14.5953 8.11601 14.539L4.18301 9.82001C4.12215 9.74694 4.08339 9.65803 4.07128 9.56371C4.05916 9.4694 4.07419 9.37358 4.1146 9.2875C4.15502 9.20143 4.21914 9.12866 4.29945 9.07774C4.37976 9.02682 4.47292 8.99985 4.56801 9.00001H12.432C12.527 9.00004 12.6201 9.02714 12.7002 9.07814C12.7804 9.12914 12.8443 9.20192 12.8846 9.28796C12.9249 9.374 12.9399 9.46974 12.9277 9.56396C12.9156 9.65819 12.8768 9.747 12.816 9.82001L8.88401 14.539Z" fill="#636771"/>
<path d="M8.11607 1.46103C8.16299 1.40475 8.22171 1.35948 8.28807 1.32842C8.35443 1.29735 8.4268 1.28125 8.50007 1.28125C8.57334 1.28125 8.64571 1.29735 8.71207 1.32842C8.77842 1.35948 8.83714 1.40475 8.88407 1.46103L12.8171 6.18003C12.8779 6.25309 12.9167 6.342 12.9288 6.43632C12.9409 6.53063 12.9259 6.62645 12.8855 6.71253C12.8451 6.7986 12.7809 6.87137 12.7006 6.92229C12.6203 6.97321 12.5272 7.00018 12.4321 7.00003H4.56807C4.47306 6.99999 4.38003 6.97289 4.29987 6.92189C4.21971 6.87089 4.15574 6.79811 4.11545 6.71207C4.07515 6.62603 4.06021 6.53029 4.07236 6.43607C4.08452 6.34184 4.12326 6.25303 4.18407 6.18003L8.11607 1.46103Z" fill="#636771"/>
</svg>
