<svg width="21" height="20" viewBox="0 0 21 20" fill="none" xmlns="http://www.w3.org/2000/svg">
<g id="array_both_20">
<path id="Union" d="M8.3319 15.3182C8.43966 15.2044 8.50002 15.0514 8.5 14.8919L8.49972 13H13.5V7H8.49882L8.49853 5.11547C8.49864 4.97823 8.45539 4.84474 8.3754 4.73541C8.32995 4.67221 8.27266 4.61918 8.20697 4.57951C8.14127 4.53983 8.06852 4.51433 7.99309 4.50454C7.91765 4.49474 7.84109 4.50085 7.76798 4.5225C7.69488 4.54415 7.62675 4.58089 7.56768 4.63052L4.82057 6.93211L1.72163 9.51647C1.68474 9.54576 1.65129 9.57943 1.62195 9.6168C1.52788 9.74624 1.48571 9.90839 1.50429 10.0693C1.52287 10.2303 1.60075 10.3775 1.72163 10.4803L4.82203 13.0798L7.56915 15.3693C7.66966 15.4533 7.79476 15.4994 7.9239 15.5C8.07762 15.4972 8.22415 15.4319 8.3319 15.3182Z" fill="black"/>
<path id="Union_2" d="M12.6681 4.68182C12.5603 4.79556 12.5 4.94864 12.5 5.10808L12.5003 7H7.5L7.5 13H12.5012L12.5015 14.8845C12.5014 15.0218 12.5446 15.1553 12.6246 15.2646C12.67 15.3278 12.7273 15.3808 12.793 15.4205C12.8587 15.4602 12.9315 15.4857 13.0069 15.4955C13.0823 15.5053 13.1589 15.4992 13.232 15.4775C13.3051 15.4559 13.3732 15.4191 13.4323 15.3695L16.1794 13.0679L19.2784 10.4835C19.3153 10.4542 19.3487 10.4206 19.378 10.3832C19.4721 10.2538 19.5143 10.0916 19.4957 9.93067C19.4771 9.76973 19.3992 9.62248 19.2784 9.51972L16.178 6.92017L13.4309 4.63074C13.3303 4.54666 13.2052 4.50055 13.0761 4.5C12.9224 4.50279 12.7759 4.56809 12.6681 4.68182Z" fill="black"/>
</g>
</svg>
