<svg width="16" height="16" viewBox="0 0 16 16" fill="none" xmlns="http://www.w3.org/2000/svg">
<path fill-rule="evenodd" clip-rule="evenodd" d="M8.00164 1.92969C7.98046 1.92969 7.95965 1.9352 7.94125 1.94568C7.92617 1.95427 7.91314 1.96596 7.90298 1.97992L6.08382 5.64265L1.99004 6.23586C1.97211 6.2388 1.95531 6.24658 1.94145 6.25837C1.92732 6.2704 1.91681 6.28612 1.9111 6.30378C1.90539 6.32144 1.90471 6.34035 1.90913 6.35837C1.91346 6.37601 1.92251 6.39213 1.9353 6.405L4.89635 9.26782L4.19764 13.3148C4.19761 13.3149 4.19767 13.3146 4.19764 13.3148C4.19533 13.3289 4.19599 13.3439 4.19976 13.3577C4.20357 13.3717 4.21039 13.3847 4.21973 13.3958C4.22906 13.4069 4.24071 13.4158 4.25385 13.422C4.26698 13.4281 4.2813 13.4314 4.29581 13.4314C4.31067 13.4315 4.32463 13.4279 4.33778 13.421L4.3391 13.4203L8.0005 11.5074L11.6629 13.4186C11.6626 13.4184 11.6632 13.4187 11.6629 13.4186C11.6792 13.4267 11.6982 13.4307 11.7163 13.4293C11.7348 13.4279 11.7525 13.4213 11.7674 13.4104C11.7824 13.3995 11.7941 13.3847 11.8011 13.3675C11.8079 13.3508 11.8101 13.3325 11.8074 13.3147L11.1068 9.27L14.0679 6.40611C14.0807 6.39323 14.0897 6.3771 14.094 6.35945C14.0984 6.34141 14.0977 6.3225 14.092 6.30483C14.0863 6.28716 14.0758 6.27144 14.0616 6.25943C14.0476 6.24759 14.0307 6.23981 14.0127 6.23692C14.0124 6.23688 14.013 6.23697 14.0127 6.23692L9.92048 5.64257L8.10031 1.97995C8.09015 1.96597 8.07711 1.95427 8.06202 1.94568C8.04362 1.9352 8.02281 1.92969 8.00164 1.92969ZM7.44632 1.07675C7.61553 0.980369 7.8069 0.929688 8.00164 0.929688C8.19637 0.929688 8.38774 0.980369 8.55695 1.07675C8.72616 1.17313 8.86737 1.31189 8.9667 1.47938L8.97615 1.49531L10.5828 4.72827L14.1614 5.24804C14.3634 5.27859 14.5529 5.3648 14.7087 5.49698C14.8644 5.62917 14.9803 5.80211 15.0433 5.99644C15.1063 6.19077 15.1139 6.3988 15.0653 6.59722C15.0168 6.79565 14.9139 6.97662 14.7683 7.11988L14.7653 7.12283L12.1825 9.62084L12.7941 13.1514C12.827 13.3524 12.8036 13.5586 12.7263 13.747C12.649 13.9354 12.5209 14.0987 12.3563 14.2186C12.1917 14.3386 11.9971 14.4104 11.794 14.4263C11.591 14.4421 11.3876 14.4012 11.2064 14.3083L11.2033 14.3067L8.00077 12.6355L4.80349 14.3059C4.80324 14.306 4.80375 14.3058 4.80349 14.3059C4.64604 14.3886 4.46999 14.4319 4.29214 14.4314C4.13258 14.4307 3.97439 14.3953 3.82988 14.3277C3.68536 14.26 3.55729 14.1617 3.45456 14.0396C3.35182 13.9175 3.27688 13.7746 3.23493 13.6206C3.19299 13.4667 3.18503 13.3054 3.21163 13.1481L3.21192 13.1464L3.82092 9.61902L1.23511 7.119C1.0895 6.97587 0.986622 6.79502 0.937955 6.59673C0.889288 6.39844 0.89677 6.19052 0.959564 5.99624C1.02236 5.80196 1.13798 5.62899 1.2935 5.49669C1.44902 5.36439 1.63829 5.27799 1.84012 5.24715L1.84393 5.24657L5.42145 4.72819L7.02709 1.49536L7.03657 1.47938C7.1359 1.31189 7.27711 1.17313 7.44632 1.07675Z" fill="#8A8D99"/>
</svg>
