<svg width="16" height="16" viewBox="0 0 16 16" fill="none" xmlns="http://www.w3.org/2000/svg">
<path d="M4.29364 13.9314C4.2066 13.931 4.12069 13.9117 4.04186 13.8748C3.96303 13.8379 3.89318 13.7843 3.83714 13.7177C3.78111 13.6511 3.74023 13.5731 3.71735 13.4892C3.69447 13.4052 3.69013 13.3172 3.70463 13.2314L4.35864 9.44342L1.58564 6.76242C1.50621 6.68435 1.45009 6.58571 1.42354 6.47755C1.397 6.36939 1.40108 6.25598 1.43533 6.15001C1.46958 6.04404 1.53265 5.94969 1.61748 5.87753C1.70231 5.80537 1.80554 5.75824 1.91563 5.74142L5.75264 5.18542L7.46664 1.73442C7.5217 1.64157 7.59998 1.56464 7.69379 1.51121C7.78759 1.45778 7.89368 1.42969 8.00164 1.42969C8.10959 1.42969 8.21568 1.45778 8.30948 1.51121C8.40329 1.56464 8.48157 1.64157 8.53663 1.73442L10.2516 5.18542L14.0866 5.74242C14.1968 5.75909 14.3002 5.8061 14.3851 5.8782C14.4701 5.9503 14.5333 6.04464 14.5676 6.15063C14.602 6.25663 14.6062 6.3701 14.5797 6.47833C14.5532 6.58657 14.4971 6.68528 14.4176 6.76342L11.6446 9.44542L12.3006 13.2324C12.3186 13.342 12.3058 13.4545 12.2637 13.5573C12.2215 13.66 12.1517 13.7491 12.0619 13.8145C11.9721 13.8799 11.8659 13.9191 11.7552 13.9278C11.6444 13.9364 11.5335 13.9141 11.4346 13.8634L8.00063 12.0714L4.57064 13.8634C4.48524 13.9084 4.39014 13.9317 4.29364 13.9314Z" fill="#33A6FE"/>
</svg>
