<svg width="36" height="37" viewBox="0 0 36 37" fill="none" xmlns="http://www.w3.org/2000/svg">
<g id="bus_monitoring_20">
<g id="Vector">
<path d="M26.7665 23.9932C25.6484 25.2018 24.2927 26.1666 22.7844 26.827C21.2761 27.4874 19.6477 27.8292 18.0012 27.8311C16.3547 27.8329 14.7255 27.4948 13.2157 26.8378C11.706 26.1808 10.3481 25.2191 9.22728 24.013C9.16015 23.9411 9.07952 23.8832 8.99 23.8425C8.90048 23.8018 8.80382 23.7791 8.70553 23.7758C8.60725 23.7725 8.50927 23.7885 8.4172 23.823C8.32512 23.8575 8.24074 23.9099 8.16888 23.977C8.09702 24.0441 8.03909 24.1248 7.99839 24.2143C7.95769 24.3038 7.93502 24.4005 7.93168 24.4987C7.92833 24.597 7.94438 24.695 7.9789 24.7871C8.01343 24.8792 8.06575 24.9635 8.13288 25.0354C9.38835 26.3956 10.9129 27.4799 12.6097 28.2196C14.3066 28.9592 16.1386 29.3381 17.9897 29.332C19.8438 29.3266 21.677 28.9404 23.3756 28.1973C25.0743 27.4541 26.6021 26.37 27.8645 25.012C27.9356 24.9407 27.9917 24.8558 28.0294 24.7623C28.067 24.6688 28.0855 24.5688 28.0836 24.468C28.0818 24.3673 28.0597 24.268 28.0186 24.1759C27.9776 24.0839 27.9184 24.0011 27.8447 23.9325C27.7709 23.8638 27.6841 23.8107 27.5894 23.7763C27.4947 23.7419 27.3941 23.7269 27.2935 23.7323C27.1928 23.7376 27.0943 23.7631 27.0038 23.8073C26.9133 23.8515 26.8326 23.9135 26.7665 23.9896" fill="white"/>
<path d="M10.7776 21.1219C10.6324 21.2578 10.547 21.4458 10.5403 21.6446C10.5335 21.8433 10.6059 22.0367 10.7416 22.1821C11.6667 23.1823 12.7895 23.9795 14.0388 24.523C15.2882 25.0664 16.6368 25.3444 17.9992 25.3393C19.3628 25.3357 20.7111 25.0521 21.9604 24.5059C23.2098 23.9597 24.3337 23.1626 25.2622 22.1641C25.3898 22.0172 25.4554 21.8265 25.4451 21.6322C25.4348 21.4379 25.3495 21.2552 25.2071 21.1226C25.0647 20.99 24.8763 20.9179 24.6818 20.9214C24.4872 20.925 24.3017 21.004 24.1642 21.1417C23.3789 21.991 22.4265 22.6689 21.3669 23.1329C20.3073 23.5969 19.1633 23.837 18.0065 23.8382C16.8497 23.8394 15.7052 23.6016 14.6446 23.1398C13.5841 22.6779 12.6303 22.002 11.8432 21.1543C11.7066 21.0103 11.5189 20.9259 11.3205 20.9191C11.1222 20.9124 10.9291 20.9839 10.783 21.1183" fill="white"/>
<path d="M22.4219 19.3662C22.5495 19.2193 22.6151 19.0286 22.6048 18.8343C22.5945 18.64 22.5091 18.4573 22.3667 18.3247C22.2243 18.1921 22.036 18.12 21.8414 18.1236C21.6469 18.1271 21.4613 18.2061 21.3239 18.3438C20.8921 18.7885 20.3754 19.142 19.8045 19.3833C19.2336 19.6247 18.62 19.7491 18.0002 19.7491C17.3804 19.7491 16.7668 19.6247 16.1959 19.3833C15.625 19.142 15.1083 18.7885 14.6765 18.3438C14.6094 18.272 14.5287 18.214 14.4392 18.1733C14.3497 18.1326 14.253 18.11 14.1548 18.1066C14.0565 18.1033 13.9585 18.1193 13.8664 18.1539C13.7743 18.1884 13.69 18.2407 13.6181 18.3078C13.5462 18.375 13.4883 18.4556 13.4476 18.5451C13.4069 18.6346 13.3842 18.7313 13.3809 18.8296C13.3776 18.9279 13.3936 19.0258 13.4281 19.1179C13.4626 19.21 13.515 19.2944 13.5821 19.3662C14.1441 19.9777 14.8272 20.4653 15.588 20.7982C16.3488 21.131 17.1707 21.3017 18.0011 21.2994C18.8317 21.2975 19.653 21.1249 20.4141 20.7923C21.1751 20.4598 21.8598 19.9744 22.4255 19.3662" fill="white"/>
<path d="M27 7.69995H8.99999C8.04521 7.69995 7.12954 8.07924 6.45441 8.75437C5.77928 9.4295 5.39999 10.3452 5.39999 11.3C5.39999 12.2547 5.77928 13.1704 6.45441 13.8455C7.12954 14.5207 8.04521 14.9 8.99999 14.9H27C27.9548 14.9 28.8704 14.5207 29.5456 13.8455C30.2207 13.1704 30.6 12.2547 30.6 11.3C30.6 10.3452 30.2207 9.4295 29.5456 8.75437C28.8704 8.07924 27.9548 7.69995 27 7.69995ZM8.99999 12.65C8.73299 12.65 8.47198 12.5708 8.24997 12.4224C8.02797 12.2741 7.85493 12.0633 7.75276 11.8166C7.65058 11.5699 7.62384 11.2985 7.67593 11.0366C7.72802 10.7747 7.8566 10.5342 8.0454 10.3454C8.2342 10.1566 8.47475 10.028 8.73662 9.97589C8.9985 9.9238 9.26994 9.95054 9.51662 10.0527C9.7633 10.1549 9.97414 10.3279 10.1225 10.5499C10.2708 10.7719 10.35 11.0329 10.35 11.3C10.35 11.658 10.2078 12.0014 9.95459 12.2545C9.70141 12.5077 9.35804 12.65 8.99999 12.65ZM12.6 12.65C12.333 12.65 12.072 12.5708 11.85 12.4224C11.628 12.2741 11.4549 12.0633 11.3528 11.8166C11.2506 11.5699 11.2238 11.2985 11.2759 11.0366C11.328 10.7747 11.4566 10.5342 11.6454 10.3454C11.8342 10.1566 12.0747 10.028 12.3366 9.97589C12.5985 9.9238 12.8699 9.95054 13.1166 10.0527C13.3633 10.1549 13.5741 10.3279 13.7225 10.5499C13.8708 10.7719 13.95 11.0329 13.95 11.3C13.95 11.658 13.8078 12.0014 13.5546 12.2545C13.3014 12.5077 12.958 12.65 12.6 12.65ZM26.55 12.65H18.45C18.092 12.65 17.7486 12.5077 17.4954 12.2545C17.2422 12.0014 17.1 11.658 17.1 11.3C17.1 10.9419 17.2422 10.5985 17.4954 10.3454C17.7486 10.0922 18.092 9.94995 18.45 9.94995H26.55C26.908 9.94995 27.2514 10.0922 27.5046 10.3454C27.7578 10.5985 27.9 10.9419 27.9 11.3C27.9 11.658 27.7578 12.0014 27.5046 12.2545C27.2514 12.5077 26.908 12.65 26.55 12.65Z" fill="white"/>
</g>
</g>
</svg>
