<svg width="36" height="37" viewBox="0 0 36 37" fill="none" xmlns="http://www.w3.org/2000/svg">
<g id="bus_fill_fff_24">
<path id="&#237;&#140;&#168;&#236;&#138;&#164; 91979" d="M28.6745 5.96003C21.6261 4.67999 14.3739 4.67999 7.32552 5.96003C6.94774 6.03347 6.60927 6.22509 6.36765 6.50231C6.12603 6.77953 5.99619 7.12522 6.00021 7.4806V27.7917C5.99273 28.2496 6.18301 28.6915 6.52926 29.0203C6.87551 29.3492 7.3494 29.5381 7.84685 29.5455H8.66683V30.1591C8.66683 30.6473 8.87754 31.1156 9.2526 31.4608C9.62767 31.806 10.1364 32 10.6668 32C11.1972 32 11.7059 31.806 12.081 31.4608C12.456 31.1156 12.6668 30.6473 12.6668 30.1591V29.5455H23.3332V30.1591C23.3332 30.6473 23.5439 31.1156 23.919 31.4608C24.2941 31.806 24.8028 32 25.3332 32C25.8636 32 26.3723 31.806 26.7474 31.4608C27.1224 31.1156 27.3331 30.6473 27.3331 30.1591V29.5455H28.1545C28.6518 29.5381 29.1256 29.3491 29.4716 29.0203C29.8176 28.6914 30.0076 28.2495 29.9998 27.7917V7.4806C30.004 7.12516 29.8743 6.77935 29.6326 6.50208C29.391 6.22482 29.0524 6.03326 28.6745 5.96003ZM14.6667 6.8412H21.3333C21.5101 6.8412 21.6796 6.90585 21.8047 7.02093C21.9297 7.136 21.9999 7.29208 21.9999 7.45483C21.9999 7.61757 21.9297 7.77365 21.8047 7.88873C21.6796 8.00381 21.5101 8.06846 21.3333 8.06846H14.6667C14.4899 8.06846 14.3203 8.00381 14.1953 7.88873C14.0703 7.77365 14.0001 7.61757 14.0001 7.45483C14.0001 7.29208 14.0703 7.136 14.1953 7.02093C14.3203 6.90585 14.4899 6.8412 14.6667 6.8412ZM12.6668 26.4773C12.6668 26.6401 12.5965 26.7962 12.4715 26.9112C12.3465 27.0263 12.1769 27.091 12.0001 27.091H9.33348C9.15668 27.091 8.98711 27.0263 8.86209 26.9112C8.73707 26.7962 8.66683 26.6401 8.66683 26.4773V25.2501C8.66683 25.0873 8.73707 24.9313 8.86209 24.8162C8.98711 24.7011 9.15668 24.6364 9.33348 24.6364H12.0001C12.1769 24.6364 12.3465 24.7011 12.4715 24.8162C12.5965 24.9313 12.6668 25.0873 12.6668 25.2501V26.4773ZM27.3331 26.4773C27.3331 26.6401 27.2629 26.7962 27.1379 26.9112C27.0129 27.0263 26.8433 27.091 26.6665 27.091H23.9999C23.8231 27.091 23.6535 27.0263 23.5285 26.9112C23.4035 26.7962 23.3332 26.6401 23.3332 26.4773V25.2501C23.3332 25.0873 23.4035 24.9313 23.5285 24.8162C23.6535 24.7011 23.8231 24.6364 23.9999 24.6364H26.6665C26.8433 24.6364 27.0129 24.7011 27.1379 24.8162C27.2629 24.9313 27.3331 25.0873 27.3331 25.2501V26.4773ZM27.3331 21.5683C27.3389 21.7257 27.2766 21.8787 27.1598 21.9937C27.043 22.1088 26.8814 22.1765 26.7105 22.1819H9.28948C9.11854 22.1765 8.95693 22.1088 8.84018 21.9937C8.72342 21.8787 8.66107 21.7257 8.66683 21.5683V10.523C8.66107 10.3656 8.72342 10.2126 8.84018 10.0975C8.95693 9.98247 9.11854 9.91479 9.28948 9.90934H26.7105C26.8814 9.91479 27.043 9.98247 27.1598 10.0975C27.2766 10.2126 27.3389 10.3656 27.3331 10.523V21.5683Z" fill="white"/>
</g>
</svg>
