<svg width="292" height="163" viewBox="0 0 292 163" fill="none" xmlns="http://www.w3.org/2000/svg">
<path d="M167.081 101.136C170.154 91.0273 170.812 80.338 169.001 69.9285C167.189 59.519 162.96 49.6801 156.652 41.2036C150.344 32.727 142.135 25.8496 132.684 21.1248C123.234 16.4 112.806 13.9598 102.24 14.0005L102.366 46.7211C107.81 46.7002 113.183 47.9575 118.052 50.3919C122.922 52.8264 127.152 56.3699 130.402 60.7374C133.652 65.1049 135.831 70.1744 136.764 75.5378C137.698 80.9013 137.359 86.4089 135.775 91.6175L167.081 101.136Z" fill="#0068E6"/>
<path d="M82.872 146.083C91.3532 148.661 100.259 149.543 109.081 148.678C117.903 147.814 126.468 145.221 134.288 141.046C142.108 136.872 149.029 131.198 154.656 124.349C160.283 117.5 164.506 109.609 167.083 101.128L135.776 91.6132C134.448 95.9831 132.272 100.049 129.373 103.578C126.474 107.107 122.908 110.03 118.879 112.181C114.85 114.332 110.436 115.668 105.891 116.113C101.345 116.559 96.7567 116.104 92.3868 114.776L82.872 146.083Z" fill="#139FF5"/>
<path d="M44.8023 116.532C53.4003 130.693 66.9058 141.197 82.7473 146.045L92.3225 114.757C84.1602 112.259 77.2016 106.846 72.7715 99.55L44.8023 116.532Z" fill="#00B8E6"/>
<path d="M35.1641 86.2034C35.9564 97.5462 39.6011 108.505 45.7602 118.063L73.265 100.339C70.0916 95.4142 68.2136 89.7677 67.8054 83.9234L35.1641 86.2034Z" fill="#03C2C2"/>
<path d="M39.5437 57.1535C35.8557 66.6901 34.3824 76.9399 35.2351 87.1292L67.842 84.4004C67.4027 79.1504 68.1618 73.8692 70.062 68.9555L39.5437 57.1535Z" fill="#15CCAD"/>
<path d="M102.5 14C96.1661 14 89.8638 14.8915 83.7784 16.6482L92.8538 48.0854C95.9892 47.1802 99.2365 46.7209 102.5 46.7209V14Z" fill="#664AF5"/>
<path d="M83.852 16.627C74.499 19.3156 65.8381 23.9947 58.4627 30.3437L79.81 55.1419C83.6101 51.8706 88.0726 49.4597 92.8917 48.0745L83.852 16.627Z" fill="#A080FF"/>
<path d="M58.6024 30.2238C49.8515 37.7154 43.1635 47.3221 39.175 58.1293L69.872 69.4584C71.9271 63.89 75.3731 58.9402 79.882 55.0801L58.6024 30.2238Z" fill="#77E5CB"/>
<rect x="192" y="51.5" width="14" height="14" fill="#0068E6"/>
<path d="M218.316 54.204V62.052H222.156V63H217.2V54.204H218.316ZM225.096 63.156C224.824 63.156 224.572 63.112 224.34 63.024C224.108 62.936 223.908 62.812 223.74 62.652C223.572 62.484 223.44 62.284 223.344 62.052C223.248 61.812 223.2 61.544 223.2 61.248C223.2 60.408 223.544 59.808 224.232 59.448C224.928 59.08 225.92 58.888 227.208 58.872C227.208 58.664 227.188 58.46 227.148 58.26C227.108 58.06 227.036 57.884 226.932 57.732C226.836 57.58 226.7 57.46 226.524 57.372C226.348 57.276 226.128 57.228 225.864 57.228C225.48 57.228 225.112 57.292 224.76 57.42C224.408 57.54 224.104 57.688 223.848 57.864L223.416 57.084C223.72 56.892 224.1 56.716 224.556 56.556C225.02 56.396 225.516 56.316 226.044 56.316C226.444 56.316 226.784 56.38 227.064 56.508C227.352 56.636 227.584 56.82 227.76 57.06C227.944 57.292 228.08 57.572 228.168 57.9C228.256 58.228 228.3 58.592 228.3 58.992V63H227.4L227.304 62.304H227.268C226.956 62.56 226.616 62.768 226.248 62.928C225.888 63.08 225.504 63.156 225.096 63.156ZM225.408 62.28C225.728 62.28 226.028 62.224 226.308 62.112C226.588 62 226.888 61.804 227.208 61.524V59.592C226.632 59.632 226.152 59.692 225.768 59.772C225.392 59.844 225.092 59.944 224.868 60.072C224.644 60.192 224.488 60.344 224.4 60.528C224.312 60.704 224.268 60.92 224.268 61.176C224.268 61.56 224.372 61.84 224.58 62.016C224.796 62.192 225.072 62.28 225.408 62.28ZM233.249 63.156C232.945 63.156 232.629 63.084 232.301 62.94C231.981 62.796 231.677 62.592 231.389 62.328H231.353L231.257 63H230.381V53.448H231.473V56.064L231.437 57.24C231.733 56.984 232.057 56.768 232.409 56.592C232.761 56.408 233.117 56.316 233.477 56.316C233.901 56.316 234.273 56.396 234.593 56.556C234.921 56.716 235.193 56.94 235.409 57.228C235.633 57.516 235.801 57.864 235.913 58.272C236.025 58.68 236.081 59.132 236.081 59.628C236.081 60.188 236.001 60.688 235.841 61.128C235.689 61.568 235.481 61.94 235.217 62.244C234.961 62.54 234.661 62.768 234.317 62.928C233.981 63.08 233.625 63.156 233.249 63.156ZM233.069 62.244C233.341 62.244 233.589 62.184 233.813 62.064C234.045 61.944 234.245 61.776 234.413 61.56C234.581 61.336 234.709 61.064 234.797 60.744C234.893 60.424 234.941 60.06 234.941 59.652C234.941 59.292 234.909 58.964 234.845 58.668C234.781 58.372 234.681 58.12 234.545 57.912C234.409 57.696 234.233 57.532 234.017 57.42C233.801 57.3 233.537 57.24 233.225 57.24C232.945 57.24 232.661 57.316 232.373 57.468C232.085 57.62 231.785 57.844 231.473 58.14V61.56C231.761 61.816 232.045 61.996 232.325 62.1C232.605 62.196 232.853 62.244 233.069 62.244ZM240.427 63.156C239.995 63.156 239.587 63.08 239.203 62.928C238.827 62.776 238.499 62.556 238.219 62.268C237.939 61.972 237.715 61.612 237.547 61.188C237.387 60.764 237.307 60.284 237.307 59.748C237.307 59.22 237.387 58.744 237.547 58.32C237.715 57.896 237.935 57.536 238.207 57.24C238.479 56.944 238.791 56.716 239.143 56.556C239.503 56.396 239.871 56.316 240.247 56.316C240.663 56.316 241.031 56.388 241.351 56.532C241.671 56.676 241.939 56.884 242.155 57.156C242.379 57.42 242.547 57.74 242.659 58.116C242.779 58.492 242.839 58.912 242.839 59.376C242.839 59.496 242.835 59.612 242.827 59.724C242.819 59.828 242.807 59.92 242.791 60H238.399C238.439 60.704 238.651 61.26 239.035 61.668C239.427 62.076 239.935 62.28 240.559 62.28C240.879 62.28 241.171 62.236 241.435 62.148C241.699 62.052 241.951 61.924 242.191 61.764L242.587 62.484C242.299 62.668 241.979 62.828 241.627 62.964C241.283 63.092 240.883 63.156 240.427 63.156ZM241.879 59.22C241.879 58.54 241.735 58.032 241.447 57.696C241.167 57.36 240.771 57.192 240.259 57.192C240.027 57.192 239.803 57.24 239.587 57.336C239.379 57.424 239.191 57.556 239.023 57.732C238.855 57.9 238.715 58.112 238.603 58.368C238.491 58.616 238.419 58.9 238.387 59.22H241.879ZM244.444 53.448H245.536V63H244.444V53.448Z" fill="black"/>
<rect x="192" y="74.5" width="14" height="14" fill="#00B8E6"/>
<path d="M218.316 77.204V85.052H222.156V86H217.2V77.204H218.316ZM225.096 86.156C224.824 86.156 224.572 86.112 224.34 86.024C224.108 85.936 223.908 85.812 223.74 85.652C223.572 85.484 223.44 85.284 223.344 85.052C223.248 84.812 223.2 84.544 223.2 84.248C223.2 83.408 223.544 82.808 224.232 82.448C224.928 82.08 225.92 81.888 227.208 81.872C227.208 81.664 227.188 81.46 227.148 81.26C227.108 81.06 227.036 80.884 226.932 80.732C226.836 80.58 226.7 80.46 226.524 80.372C226.348 80.276 226.128 80.228 225.864 80.228C225.48 80.228 225.112 80.292 224.76 80.42C224.408 80.54 224.104 80.688 223.848 80.864L223.416 80.084C223.72 79.892 224.1 79.716 224.556 79.556C225.02 79.396 225.516 79.316 226.044 79.316C226.444 79.316 226.784 79.38 227.064 79.508C227.352 79.636 227.584 79.82 227.76 80.06C227.944 80.292 228.08 80.572 228.168 80.9C228.256 81.228 228.3 81.592 228.3 81.992V86H227.4L227.304 85.304H227.268C226.956 85.56 226.616 85.768 226.248 85.928C225.888 86.08 225.504 86.156 225.096 86.156ZM225.408 85.28C225.728 85.28 226.028 85.224 226.308 85.112C226.588 85 226.888 84.804 227.208 84.524V82.592C226.632 82.632 226.152 82.692 225.768 82.772C225.392 82.844 225.092 82.944 224.868 83.072C224.644 83.192 224.488 83.344 224.4 83.528C224.312 83.704 224.268 83.92 224.268 84.176C224.268 84.56 224.372 84.84 224.58 85.016C224.796 85.192 225.072 85.28 225.408 85.28ZM233.249 86.156C232.945 86.156 232.629 86.084 232.301 85.94C231.981 85.796 231.677 85.592 231.389 85.328H231.353L231.257 86H230.381V76.448H231.473V79.064L231.437 80.24C231.733 79.984 232.057 79.768 232.409 79.592C232.761 79.408 233.117 79.316 233.477 79.316C233.901 79.316 234.273 79.396 234.593 79.556C234.921 79.716 235.193 79.94 235.409 80.228C235.633 80.516 235.801 80.864 235.913 81.272C236.025 81.68 236.081 82.132 236.081 82.628C236.081 83.188 236.001 83.688 235.841 84.128C235.689 84.568 235.481 84.94 235.217 85.244C234.961 85.54 234.661 85.768 234.317 85.928C233.981 86.08 233.625 86.156 233.249 86.156ZM233.069 85.244C233.341 85.244 233.589 85.184 233.813 85.064C234.045 84.944 234.245 84.776 234.413 84.56C234.581 84.336 234.709 84.064 234.797 83.744C234.893 83.424 234.941 83.06 234.941 82.652C234.941 82.292 234.909 81.964 234.845 81.668C234.781 81.372 234.681 81.12 234.545 80.912C234.409 80.696 234.233 80.532 234.017 80.42C233.801 80.3 233.537 80.24 233.225 80.24C232.945 80.24 232.661 80.316 232.373 80.468C232.085 80.62 231.785 80.844 231.473 81.14V84.56C231.761 84.816 232.045 84.996 232.325 85.1C232.605 85.196 232.853 85.244 233.069 85.244ZM240.427 86.156C239.995 86.156 239.587 86.08 239.203 85.928C238.827 85.776 238.499 85.556 238.219 85.268C237.939 84.972 237.715 84.612 237.547 84.188C237.387 83.764 237.307 83.284 237.307 82.748C237.307 82.22 237.387 81.744 237.547 81.32C237.715 80.896 237.935 80.536 238.207 80.24C238.479 79.944 238.791 79.716 239.143 79.556C239.503 79.396 239.871 79.316 240.247 79.316C240.663 79.316 241.031 79.388 241.351 79.532C241.671 79.676 241.939 79.884 242.155 80.156C242.379 80.42 242.547 80.74 242.659 81.116C242.779 81.492 242.839 81.912 242.839 82.376C242.839 82.496 242.835 82.612 242.827 82.724C242.819 82.828 242.807 82.92 242.791 83H238.399C238.439 83.704 238.651 84.26 239.035 84.668C239.427 85.076 239.935 85.28 240.559 85.28C240.879 85.28 241.171 85.236 241.435 85.148C241.699 85.052 241.951 84.924 242.191 84.764L242.587 85.484C242.299 85.668 241.979 85.828 241.627 85.964C241.283 86.092 240.883 86.156 240.427 86.156ZM241.879 82.22C241.879 81.54 241.735 81.032 241.447 80.696C241.167 80.36 240.771 80.192 240.259 80.192C240.027 80.192 239.803 80.24 239.587 80.336C239.379 80.424 239.191 80.556 239.023 80.732C238.855 80.9 238.715 81.112 238.603 81.368C238.491 81.616 238.419 81.9 238.387 82.22H241.879ZM244.444 76.448H245.536V86H244.444V76.448Z" fill="black"/>
<rect x="192" y="97.5" width="14" height="14" fill="#77E5CB"/>
<path d="M218.316 100.204V108.052H222.156V109H217.2V100.204H218.316ZM225.096 109.156C224.824 109.156 224.572 109.112 224.34 109.024C224.108 108.936 223.908 108.812 223.74 108.652C223.572 108.484 223.44 108.284 223.344 108.052C223.248 107.812 223.2 107.544 223.2 107.248C223.2 106.408 223.544 105.808 224.232 105.448C224.928 105.08 225.92 104.888 227.208 104.872C227.208 104.664 227.188 104.46 227.148 104.26C227.108 104.06 227.036 103.884 226.932 103.732C226.836 103.58 226.7 103.46 226.524 103.372C226.348 103.276 226.128 103.228 225.864 103.228C225.48 103.228 225.112 103.292 224.76 103.42C224.408 103.54 224.104 103.688 223.848 103.864L223.416 103.084C223.72 102.892 224.1 102.716 224.556 102.556C225.02 102.396 225.516 102.316 226.044 102.316C226.444 102.316 226.784 102.38 227.064 102.508C227.352 102.636 227.584 102.82 227.76 103.06C227.944 103.292 228.08 103.572 228.168 103.9C228.256 104.228 228.3 104.592 228.3 104.992V109H227.4L227.304 108.304H227.268C226.956 108.56 226.616 108.768 226.248 108.928C225.888 109.08 225.504 109.156 225.096 109.156ZM225.408 108.28C225.728 108.28 226.028 108.224 226.308 108.112C226.588 108 226.888 107.804 227.208 107.524V105.592C226.632 105.632 226.152 105.692 225.768 105.772C225.392 105.844 225.092 105.944 224.868 106.072C224.644 106.192 224.488 106.344 224.4 106.528C224.312 106.704 224.268 106.92 224.268 107.176C224.268 107.56 224.372 107.84 224.58 108.016C224.796 108.192 225.072 108.28 225.408 108.28ZM233.249 109.156C232.945 109.156 232.629 109.084 232.301 108.94C231.981 108.796 231.677 108.592 231.389 108.328H231.353L231.257 109H230.381V99.448H231.473V102.064L231.437 103.24C231.733 102.984 232.057 102.768 232.409 102.592C232.761 102.408 233.117 102.316 233.477 102.316C233.901 102.316 234.273 102.396 234.593 102.556C234.921 102.716 235.193 102.94 235.409 103.228C235.633 103.516 235.801 103.864 235.913 104.272C236.025 104.68 236.081 105.132 236.081 105.628C236.081 106.188 236.001 106.688 235.841 107.128C235.689 107.568 235.481 107.94 235.217 108.244C234.961 108.54 234.661 108.768 234.317 108.928C233.981 109.08 233.625 109.156 233.249 109.156ZM233.069 108.244C233.341 108.244 233.589 108.184 233.813 108.064C234.045 107.944 234.245 107.776 234.413 107.56C234.581 107.336 234.709 107.064 234.797 106.744C234.893 106.424 234.941 106.06 234.941 105.652C234.941 105.292 234.909 104.964 234.845 104.668C234.781 104.372 234.681 104.12 234.545 103.912C234.409 103.696 234.233 103.532 234.017 103.42C233.801 103.3 233.537 103.24 233.225 103.24C232.945 103.24 232.661 103.316 232.373 103.468C232.085 103.62 231.785 103.844 231.473 104.14V107.56C231.761 107.816 232.045 107.996 232.325 108.1C232.605 108.196 232.853 108.244 233.069 108.244ZM240.427 109.156C239.995 109.156 239.587 109.08 239.203 108.928C238.827 108.776 238.499 108.556 238.219 108.268C237.939 107.972 237.715 107.612 237.547 107.188C237.387 106.764 237.307 106.284 237.307 105.748C237.307 105.22 237.387 104.744 237.547 104.32C237.715 103.896 237.935 103.536 238.207 103.24C238.479 102.944 238.791 102.716 239.143 102.556C239.503 102.396 239.871 102.316 240.247 102.316C240.663 102.316 241.031 102.388 241.351 102.532C241.671 102.676 241.939 102.884 242.155 103.156C242.379 103.42 242.547 103.74 242.659 104.116C242.779 104.492 242.839 104.912 242.839 105.376C242.839 105.496 242.835 105.612 242.827 105.724C242.819 105.828 242.807 105.92 242.791 106H238.399C238.439 106.704 238.651 107.26 239.035 107.668C239.427 108.076 239.935 108.28 240.559 108.28C240.879 108.28 241.171 108.236 241.435 108.148C241.699 108.052 241.951 107.924 242.191 107.764L242.587 108.484C242.299 108.668 241.979 108.828 241.627 108.964C241.283 109.092 240.883 109.156 240.427 109.156ZM241.879 105.22C241.879 104.54 241.735 104.032 241.447 103.696C241.167 103.36 240.771 103.192 240.259 103.192C240.027 103.192 239.803 103.24 239.587 103.336C239.379 103.424 239.191 103.556 239.023 103.732C238.855 103.9 238.715 104.112 238.603 104.368C238.491 104.616 238.419 104.9 238.387 105.22H241.879ZM244.444 99.448H245.536V109H244.444V99.448Z" fill="black"/>
</svg>
