<svg width="292" height="163" viewBox="0 0 292 163" fill="none" xmlns="http://www.w3.org/2000/svg">
<path d="M1.344 20.875V10.571H2.968V19.503H7.322V20.875H1.344ZM10.817 21.057C10.481 21.057 10.173 21.0057 9.89297 20.903C9.6223 20.8003 9.3843 20.651 9.17897 20.455C8.98297 20.259 8.82897 20.0257 8.71697 19.755C8.60497 19.475 8.54897 19.167 8.54897 18.831C8.54897 18.4017 8.6283 17.991 8.78697 17.599C8.94564 17.207 9.22564 16.8897 9.62697 16.647C10.019 16.4323 10.5043 16.283 11.083 16.199C11.671 16.1057 12.3616 16.031 13.155 15.975C13.155 15.751 13.1316 15.5363 13.085 15.331C13.0383 15.1257 12.959 14.9483 12.847 14.799C12.735 14.6403 12.581 14.519 12.385 14.435C12.1983 14.3417 11.965 14.295 11.685 14.295C11.265 14.295 10.8543 14.379 10.453 14.547C10.0516 14.7057 9.68764 14.8923 9.36097 15.107L8.88497 13.931C9.2863 13.679 9.74364 13.4597 10.257 13.273C10.7796 13.077 11.349 12.979 11.965 12.979C12.9263 12.979 13.631 13.2637 14.079 13.833C14.5363 14.393 14.765 15.1957 14.765 16.241V20.875H13.449L13.309 20.035H13.267C12.9123 20.3337 12.5343 20.581 12.133 20.777C11.7316 20.9637 11.293 21.057 10.817 21.057ZM11.307 19.783C11.643 19.783 11.9556 19.713 12.245 19.573C12.5343 19.433 12.8376 19.2183 13.155 18.929V17.025C12.7816 17.0717 12.455 17.109 12.175 17.137C11.895 17.165 11.6476 17.2023 11.433 17.249C11.2183 17.2863 11.0316 17.3377 10.873 17.403C10.7143 17.459 10.5743 17.543 10.453 17.655C10.2476 17.8417 10.1356 18.0283 10.117 18.215C10.1076 18.3923 10.103 18.5603 10.103 18.719C10.103 19.111 10.215 19.3863 10.439 19.545C10.6723 19.7037 10.9616 19.783 11.307 19.783ZM20.6337 21.057C20.279 21.057 19.915 20.973 19.5417 20.805C19.1777 20.637 18.8324 20.3943 18.5057 20.077H18.4637L18.3097 20.875H17.0497V9.717H18.6457V12.671L18.6037 13.987C18.9304 13.6977 19.2897 13.4597 19.6817 13.273C20.0737 13.077 20.4797 12.979 20.8997 12.979C21.385 12.979 21.8144 13.0723 22.1877 13.259C22.5704 13.4457 22.8924 13.7117 23.1537 14.057C23.415 14.393 23.611 14.8037 23.7417 15.289C23.8817 15.7743 23.9517 16.311 23.9517 16.899C23.9517 17.5523 23.8584 18.1403 23.6717 18.663C23.4944 19.1763 23.2517 19.6103 22.9437 19.965C22.6357 20.3197 22.281 20.5903 21.8797 20.777C21.4877 20.9637 21.0724 21.057 20.6337 21.057ZM20.3257 19.727C20.8857 19.727 21.3524 19.489 21.7257 19.013C22.099 18.5277 22.2857 17.8323 22.2857 16.927C22.2857 16.1057 22.1457 15.4663 21.8657 15.009C21.5857 14.5517 21.1237 14.323 20.4797 14.323C19.8824 14.323 19.271 14.6357 18.6457 15.261V19.027C18.9444 19.2883 19.2384 19.4703 19.5277 19.573C19.817 19.6757 20.083 19.727 20.3257 19.727ZM29.0604 21.057C28.5377 21.057 28.0477 20.9683 27.5904 20.791C27.1331 20.6043 26.7364 20.343 26.4004 20.007C26.0644 19.6617 25.7984 19.2417 25.6024 18.747C25.4064 18.243 25.3084 17.6737 25.3084 17.039C25.3084 16.4043 25.4064 15.8397 25.6024 15.345C25.7984 14.841 26.0597 14.4163 26.3864 14.071C26.7131 13.7163 27.0864 13.4457 27.5064 13.259C27.9357 13.0723 28.3744 12.979 28.8224 12.979C29.3357 12.979 29.7837 13.0677 30.1664 13.245C30.5584 13.4223 30.8851 13.6697 31.1464 13.987C31.4171 14.3043 31.6177 14.687 31.7484 15.135C31.8884 15.583 31.9584 16.0823 31.9584 16.633C31.9584 16.801 31.9491 16.955 31.9304 17.095C31.9211 17.2257 31.9071 17.3423 31.8884 17.445H26.8904C26.9557 18.1823 27.1984 18.761 27.6184 19.181C28.0477 19.5917 28.5984 19.797 29.2704 19.797C29.6157 19.797 29.9377 19.7503 30.2364 19.657C30.5351 19.5543 30.8244 19.4097 31.1044 19.223L31.6644 20.245C31.3097 20.4877 30.9131 20.6837 30.4744 20.833C30.0357 20.9823 29.5644 21.057 29.0604 21.057ZM26.8764 16.339H30.5724C30.5724 15.667 30.4231 15.149 30.1244 14.785C29.8351 14.421 29.4104 14.239 28.8504 14.239C28.6171 14.239 28.3884 14.2857 28.1644 14.379C27.9404 14.4723 27.7397 14.6077 27.5624 14.785C27.3851 14.9623 27.2357 15.1817 27.1144 15.443C26.9931 15.7043 26.9137 16.003 26.8764 16.339ZM33.6864 20.875V9.731H35.2824V20.875H33.6864Z" fill="black"/>
<rect x="76" width="216" height="31.75" rx="4" fill="#F0F2F5"/>
<rect x="80" y="4" width="83" height="23.75" rx="2" fill="#A080FF"/>
<path d="M172.308 13.359L173.532 17.067C173.636 17.387 173.736 17.711 173.832 18.039C173.936 18.367 174.04 18.683 174.144 18.987H174.192C174.288 18.683 174.388 18.367 174.492 18.039C174.596 17.711 174.696 17.387 174.792 17.067L176.028 13.359H177.108L174.792 19.875H173.52L171.168 13.359H172.308ZM179.592 20.031C179.32 20.031 179.068 19.987 178.836 19.899C178.604 19.811 178.404 19.687 178.236 19.527C178.068 19.359 177.936 19.159 177.84 18.927C177.744 18.687 177.696 18.419 177.696 18.123C177.696 17.283 178.04 16.683 178.728 16.323C179.424 15.955 180.416 15.763 181.704 15.747C181.704 15.539 181.684 15.335 181.644 15.135C181.604 14.935 181.532 14.759 181.428 14.607C181.332 14.455 181.196 14.335 181.02 14.247C180.844 14.151 180.624 14.103 180.36 14.103C179.976 14.103 179.608 14.167 179.256 14.295C178.904 14.415 178.6 14.563 178.344 14.739L177.912 13.959C178.216 13.767 178.596 13.591 179.052 13.431C179.516 13.271 180.012 13.191 180.54 13.191C180.94 13.191 181.28 13.255 181.56 13.383C181.848 13.511 182.08 13.695 182.256 13.935C182.44 14.167 182.576 14.447 182.664 14.775C182.752 15.103 182.796 15.467 182.796 15.867V19.875H181.896L181.8 19.179H181.764C181.452 19.435 181.112 19.643 180.744 19.803C180.384 19.955 180 20.031 179.592 20.031ZM179.904 19.155C180.224 19.155 180.524 19.099 180.804 18.987C181.084 18.875 181.384 18.679 181.704 18.399V16.467C181.128 16.507 180.648 16.567 180.264 16.647C179.888 16.719 179.588 16.819 179.364 16.947C179.14 17.067 178.984 17.219 178.896 17.403C178.808 17.579 178.764 17.795 178.764 18.051C178.764 18.435 178.868 18.715 179.076 18.891C179.292 19.067 179.568 19.155 179.904 19.155ZM184.877 10.323H185.969V19.875H184.877V10.323ZM190.055 20.031C189.351 20.031 188.843 19.819 188.531 19.395C188.227 18.971 188.075 18.335 188.075 17.487V13.359H189.167V17.355C189.167 17.963 189.263 18.403 189.455 18.675C189.647 18.947 189.959 19.083 190.391 19.083C190.727 19.083 191.027 18.999 191.291 18.831C191.555 18.655 191.843 18.371 192.155 17.979V13.359H193.247V19.875H192.335L192.251 18.855H192.215C191.911 19.207 191.587 19.491 191.243 19.707C190.899 19.923 190.503 20.031 190.055 20.031ZM198.076 20.031C197.644 20.031 197.236 19.955 196.852 19.803C196.476 19.651 196.148 19.431 195.868 19.143C195.588 18.847 195.364 18.487 195.196 18.063C195.036 17.639 194.956 17.159 194.956 16.623C194.956 16.095 195.036 15.619 195.196 15.195C195.364 14.771 195.584 14.411 195.856 14.115C196.128 13.819 196.44 13.591 196.792 13.431C197.152 13.271 197.52 13.191 197.896 13.191C198.312 13.191 198.68 13.263 199 13.407C199.32 13.551 199.588 13.759 199.804 14.031C200.028 14.295 200.196 14.615 200.308 14.991C200.428 15.367 200.488 15.787 200.488 16.251C200.488 16.371 200.484 16.487 200.476 16.599C200.468 16.703 200.456 16.795 200.44 16.875H196.048C196.088 17.579 196.3 18.135 196.684 18.543C197.076 18.951 197.584 19.155 198.208 19.155C198.528 19.155 198.82 19.111 199.084 19.023C199.348 18.927 199.6 18.799 199.84 18.639L200.236 19.359C199.948 19.543 199.628 19.703 199.276 19.839C198.932 19.967 198.532 20.031 198.076 20.031ZM199.528 16.095C199.528 15.415 199.384 14.907 199.096 14.571C198.816 14.235 198.42 14.067 197.908 14.067C197.676 14.067 197.452 14.115 197.236 14.211C197.028 14.299 196.84 14.431 196.672 14.607C196.504 14.775 196.364 14.987 196.252 15.243C196.14 15.491 196.068 15.775 196.036 16.095H199.528Z" fill="black" fill-opacity="0.6"/>
<path d="M1.344 64.625V54.321H2.968V63.253H7.322V64.625H1.344ZM10.817 64.807C10.481 64.807 10.173 64.7557 9.89297 64.653C9.6223 64.5503 9.3843 64.401 9.17897 64.205C8.98297 64.009 8.82897 63.7757 8.71697 63.505C8.60497 63.225 8.54897 62.917 8.54897 62.581C8.54897 62.1517 8.6283 61.741 8.78697 61.349C8.94564 60.957 9.22564 60.6397 9.62697 60.397C10.019 60.1823 10.5043 60.033 11.083 59.949C11.671 59.8557 12.3616 59.781 13.155 59.725C13.155 59.501 13.1316 59.2863 13.085 59.081C13.0383 58.8757 12.959 58.6983 12.847 58.549C12.735 58.3903 12.581 58.269 12.385 58.185C12.1983 58.0917 11.965 58.045 11.685 58.045C11.265 58.045 10.8543 58.129 10.453 58.297C10.0516 58.4557 9.68764 58.6423 9.36097 58.857L8.88497 57.681C9.2863 57.429 9.74364 57.2097 10.257 57.023C10.7796 56.827 11.349 56.729 11.965 56.729C12.9263 56.729 13.631 57.0137 14.079 57.583C14.5363 58.143 14.765 58.9457 14.765 59.991V64.625H13.449L13.309 63.785H13.267C12.9123 64.0837 12.5343 64.331 12.133 64.527C11.7316 64.7137 11.293 64.807 10.817 64.807ZM11.307 63.533C11.643 63.533 11.9556 63.463 12.245 63.323C12.5343 63.183 12.8376 62.9683 13.155 62.679V60.775C12.7816 60.8217 12.455 60.859 12.175 60.887C11.895 60.915 11.6476 60.9523 11.433 60.999C11.2183 61.0363 11.0316 61.0877 10.873 61.153C10.7143 61.209 10.5743 61.293 10.453 61.405C10.2476 61.5917 10.1356 61.7783 10.117 61.965C10.1076 62.1423 10.103 62.3103 10.103 62.469C10.103 62.861 10.215 63.1363 10.439 63.295C10.6723 63.4537 10.9616 63.533 11.307 63.533ZM20.6337 64.807C20.279 64.807 19.915 64.723 19.5417 64.555C19.1777 64.387 18.8324 64.1443 18.5057 63.827H18.4637L18.3097 64.625H17.0497V53.467H18.6457V56.421L18.6037 57.737C18.9304 57.4477 19.2897 57.2097 19.6817 57.023C20.0737 56.827 20.4797 56.729 20.8997 56.729C21.385 56.729 21.8144 56.8223 22.1877 57.009C22.5704 57.1957 22.8924 57.4617 23.1537 57.807C23.415 58.143 23.611 58.5537 23.7417 59.039C23.8817 59.5243 23.9517 60.061 23.9517 60.649C23.9517 61.3023 23.8584 61.8903 23.6717 62.413C23.4944 62.9263 23.2517 63.3603 22.9437 63.715C22.6357 64.0697 22.281 64.3403 21.8797 64.527C21.4877 64.7137 21.0724 64.807 20.6337 64.807ZM20.3257 63.477C20.8857 63.477 21.3524 63.239 21.7257 62.763C22.099 62.2777 22.2857 61.5823 22.2857 60.677C22.2857 59.8557 22.1457 59.2163 21.8657 58.759C21.5857 58.3017 21.1237 58.073 20.4797 58.073C19.8824 58.073 19.271 58.3857 18.6457 59.011V62.777C18.9444 63.0383 19.2384 63.2203 19.5277 63.323C19.817 63.4257 20.083 63.477 20.3257 63.477ZM29.0604 64.807C28.5377 64.807 28.0477 64.7183 27.5904 64.541C27.1331 64.3543 26.7364 64.093 26.4004 63.757C26.0644 63.4117 25.7984 62.9917 25.6024 62.497C25.4064 61.993 25.3084 61.4237 25.3084 60.789C25.3084 60.1543 25.4064 59.5897 25.6024 59.095C25.7984 58.591 26.0597 58.1663 26.3864 57.821C26.7131 57.4663 27.0864 57.1957 27.5064 57.009C27.9357 56.8223 28.3744 56.729 28.8224 56.729C29.3357 56.729 29.7837 56.8177 30.1664 56.995C30.5584 57.1723 30.8851 57.4197 31.1464 57.737C31.4171 58.0543 31.6177 58.437 31.7484 58.885C31.8884 59.333 31.9584 59.8323 31.9584 60.383C31.9584 60.551 31.9491 60.705 31.9304 60.845C31.9211 60.9757 31.9071 61.0923 31.8884 61.195H26.8904C26.9557 61.9323 27.1984 62.511 27.6184 62.931C28.0477 63.3417 28.5984 63.547 29.2704 63.547C29.6157 63.547 29.9377 63.5003 30.2364 63.407C30.5351 63.3043 30.8244 63.1597 31.1044 62.973L31.6644 63.995C31.3097 64.2377 30.9131 64.4337 30.4744 64.583C30.0357 64.7323 29.5644 64.807 29.0604 64.807ZM26.8764 60.089H30.5724C30.5724 59.417 30.4231 58.899 30.1244 58.535C29.8351 58.171 29.4104 57.989 28.8504 57.989C28.6171 57.989 28.3884 58.0357 28.1644 58.129C27.9404 58.2223 27.7397 58.3577 27.5624 58.535C27.3851 58.7123 27.2357 58.9317 27.1144 59.193C26.9931 59.4543 26.9137 59.753 26.8764 60.089ZM33.6864 64.625V53.481H35.2824V64.625H33.6864Z" fill="black"/>
<rect x="76" y="43.75" width="216" height="31.75" rx="4" fill="#F0F2F5"/>
<rect x="80" y="47.75" width="135" height="23.75" rx="2" fill="#0068E6"/>
<path d="M224.308 57.109L225.532 60.817C225.636 61.137 225.736 61.461 225.832 61.789C225.936 62.117 226.04 62.433 226.144 62.737H226.192C226.288 62.433 226.388 62.117 226.492 61.789C226.596 61.461 226.696 61.137 226.792 60.817L228.028 57.109H229.108L226.792 63.625H225.52L223.168 57.109H224.308ZM231.592 63.781C231.32 63.781 231.068 63.737 230.836 63.649C230.604 63.561 230.404 63.437 230.236 63.277C230.068 63.109 229.936 62.909 229.84 62.677C229.744 62.437 229.696 62.169 229.696 61.873C229.696 61.033 230.04 60.433 230.728 60.073C231.424 59.705 232.416 59.513 233.704 59.497C233.704 59.289 233.684 59.085 233.644 58.885C233.604 58.685 233.532 58.509 233.428 58.357C233.332 58.205 233.196 58.085 233.02 57.997C232.844 57.901 232.624 57.853 232.36 57.853C231.976 57.853 231.608 57.917 231.256 58.045C230.904 58.165 230.6 58.313 230.344 58.489L229.912 57.709C230.216 57.517 230.596 57.341 231.052 57.181C231.516 57.021 232.012 56.941 232.54 56.941C232.94 56.941 233.28 57.005 233.56 57.133C233.848 57.261 234.08 57.445 234.256 57.685C234.44 57.917 234.576 58.197 234.664 58.525C234.752 58.853 234.796 59.217 234.796 59.617V63.625H233.896L233.8 62.929H233.764C233.452 63.185 233.112 63.393 232.744 63.553C232.384 63.705 232 63.781 231.592 63.781ZM231.904 62.905C232.224 62.905 232.524 62.849 232.804 62.737C233.084 62.625 233.384 62.429 233.704 62.149V60.217C233.128 60.257 232.648 60.317 232.264 60.397C231.888 60.469 231.588 60.569 231.364 60.697C231.14 60.817 230.984 60.969 230.896 61.153C230.808 61.329 230.764 61.545 230.764 61.801C230.764 62.185 230.868 62.465 231.076 62.641C231.292 62.817 231.568 62.905 231.904 62.905ZM236.877 54.073H237.969V63.625H236.877V54.073ZM242.055 63.781C241.351 63.781 240.843 63.569 240.531 63.145C240.227 62.721 240.075 62.085 240.075 61.237V57.109H241.167V61.105C241.167 61.713 241.263 62.153 241.455 62.425C241.647 62.697 241.959 62.833 242.391 62.833C242.727 62.833 243.027 62.749 243.291 62.581C243.555 62.405 243.843 62.121 244.155 61.729V57.109H245.247V63.625H244.335L244.251 62.605H244.215C243.911 62.957 243.587 63.241 243.243 63.457C242.899 63.673 242.503 63.781 242.055 63.781ZM250.076 63.781C249.644 63.781 249.236 63.705 248.852 63.553C248.476 63.401 248.148 63.181 247.868 62.893C247.588 62.597 247.364 62.237 247.196 61.813C247.036 61.389 246.956 60.909 246.956 60.373C246.956 59.845 247.036 59.369 247.196 58.945C247.364 58.521 247.584 58.161 247.856 57.865C248.128 57.569 248.44 57.341 248.792 57.181C249.152 57.021 249.52 56.941 249.896 56.941C250.312 56.941 250.68 57.013 251 57.157C251.32 57.301 251.588 57.509 251.804 57.781C252.028 58.045 252.196 58.365 252.308 58.741C252.428 59.117 252.488 59.537 252.488 60.001C252.488 60.121 252.484 60.237 252.476 60.349C252.468 60.453 252.456 60.545 252.44 60.625H248.048C248.088 61.329 248.3 61.885 248.684 62.293C249.076 62.701 249.584 62.905 250.208 62.905C250.528 62.905 250.82 62.861 251.084 62.773C251.348 62.677 251.6 62.549 251.84 62.389L252.236 63.109C251.948 63.293 251.628 63.453 251.276 63.589C250.932 63.717 250.532 63.781 250.076 63.781ZM251.528 59.845C251.528 59.165 251.384 58.657 251.096 58.321C250.816 57.985 250.42 57.817 249.908 57.817C249.676 57.817 249.452 57.865 249.236 57.961C249.028 58.049 248.84 58.181 248.672 58.357C248.504 58.525 248.364 58.737 248.252 58.993C248.14 59.241 248.068 59.525 248.036 59.845H251.528Z" fill="black" fill-opacity="0.6"/>
<path d="M1.344 108.375V98.071H2.968V107.003H7.322V108.375H1.344ZM10.817 108.557C10.481 108.557 10.173 108.506 9.89297 108.403C9.6223 108.3 9.3843 108.151 9.17897 107.955C8.98297 107.759 8.82897 107.526 8.71697 107.255C8.60497 106.975 8.54897 106.667 8.54897 106.331C8.54897 105.902 8.6283 105.491 8.78697 105.099C8.94564 104.707 9.22564 104.39 9.62697 104.147C10.019 103.932 10.5043 103.783 11.083 103.699C11.671 103.606 12.3616 103.531 13.155 103.475C13.155 103.251 13.1316 103.036 13.085 102.831C13.0383 102.626 12.959 102.448 12.847 102.299C12.735 102.14 12.581 102.019 12.385 101.935C12.1983 101.842 11.965 101.795 11.685 101.795C11.265 101.795 10.8543 101.879 10.453 102.047C10.0516 102.206 9.68764 102.392 9.36097 102.607L8.88497 101.431C9.2863 101.179 9.74364 100.96 10.257 100.773C10.7796 100.577 11.349 100.479 11.965 100.479C12.9263 100.479 13.631 100.764 14.079 101.333C14.5363 101.893 14.765 102.696 14.765 103.741V108.375H13.449L13.309 107.535H13.267C12.9123 107.834 12.5343 108.081 12.133 108.277C11.7316 108.464 11.293 108.557 10.817 108.557ZM11.307 107.283C11.643 107.283 11.9556 107.213 12.245 107.073C12.5343 106.933 12.8376 106.718 13.155 106.429V104.525C12.7816 104.572 12.455 104.609 12.175 104.637C11.895 104.665 11.6476 104.702 11.433 104.749C11.2183 104.786 11.0316 104.838 10.873 104.903C10.7143 104.959 10.5743 105.043 10.453 105.155C10.2476 105.342 10.1356 105.528 10.117 105.715C10.1076 105.892 10.103 106.06 10.103 106.219C10.103 106.611 10.215 106.886 10.439 107.045C10.6723 107.204 10.9616 107.283 11.307 107.283ZM20.6337 108.557C20.279 108.557 19.915 108.473 19.5417 108.305C19.1777 108.137 18.8324 107.894 18.5057 107.577H18.4637L18.3097 108.375H17.0497V97.217H18.6457V100.171L18.6037 101.487C18.9304 101.198 19.2897 100.96 19.6817 100.773C20.0737 100.577 20.4797 100.479 20.8997 100.479C21.385 100.479 21.8144 100.572 22.1877 100.759C22.5704 100.946 22.8924 101.212 23.1537 101.557C23.415 101.893 23.611 102.304 23.7417 102.789C23.8817 103.274 23.9517 103.811 23.9517 104.399C23.9517 105.052 23.8584 105.64 23.6717 106.163C23.4944 106.676 23.2517 107.11 22.9437 107.465C22.6357 107.82 22.281 108.09 21.8797 108.277C21.4877 108.464 21.0724 108.557 20.6337 108.557ZM20.3257 107.227C20.8857 107.227 21.3524 106.989 21.7257 106.513C22.099 106.028 22.2857 105.332 22.2857 104.427C22.2857 103.606 22.1457 102.966 21.8657 102.509C21.5857 102.052 21.1237 101.823 20.4797 101.823C19.8824 101.823 19.271 102.136 18.6457 102.761V106.527C18.9444 106.788 19.2384 106.97 19.5277 107.073C19.817 107.176 20.083 107.227 20.3257 107.227ZM29.0604 108.557C28.5377 108.557 28.0477 108.468 27.5904 108.291C27.1331 108.104 26.7364 107.843 26.4004 107.507C26.0644 107.162 25.7984 106.742 25.6024 106.247C25.4064 105.743 25.3084 105.174 25.3084 104.539C25.3084 103.904 25.4064 103.34 25.6024 102.845C25.7984 102.341 26.0597 101.916 26.3864 101.571C26.7131 101.216 27.0864 100.946 27.5064 100.759C27.9357 100.572 28.3744 100.479 28.8224 100.479C29.3357 100.479 29.7837 100.568 30.1664 100.745C30.5584 100.922 30.8851 101.17 31.1464 101.487C31.4171 101.804 31.6177 102.187 31.7484 102.635C31.8884 103.083 31.9584 103.582 31.9584 104.133C31.9584 104.301 31.9491 104.455 31.9304 104.595C31.9211 104.726 31.9071 104.842 31.8884 104.945H26.8904C26.9557 105.682 27.1984 106.261 27.6184 106.681C28.0477 107.092 28.5984 107.297 29.2704 107.297C29.6157 107.297 29.9377 107.25 30.2364 107.157C30.5351 107.054 30.8244 106.91 31.1044 106.723L31.6644 107.745C31.3097 107.988 30.9131 108.184 30.4744 108.333C30.0357 108.482 29.5644 108.557 29.0604 108.557ZM26.8764 103.839H30.5724C30.5724 103.167 30.4231 102.649 30.1244 102.285C29.8351 101.921 29.4104 101.739 28.8504 101.739C28.6171 101.739 28.3884 101.786 28.1644 101.879C27.9404 101.972 27.7397 102.108 27.5624 102.285C27.3851 102.462 27.2357 102.682 27.1144 102.943C26.9931 103.204 26.9137 103.503 26.8764 103.839ZM33.6864 108.375V97.231H35.2824V108.375H33.6864Z" fill="black"/>
<rect x="76" y="87.5" width="216" height="31.75" rx="4" fill="#F0F2F5"/>
<rect x="80" y="91.5" width="87" height="23.75" rx="2" fill="#00B8E6"/>
<path d="M176.308 100.859L177.532 104.567C177.636 104.887 177.736 105.211 177.832 105.539C177.936 105.867 178.04 106.183 178.144 106.487H178.192C178.288 106.183 178.388 105.867 178.492 105.539C178.596 105.211 178.696 104.887 178.792 104.567L180.028 100.859H181.108L178.792 107.375H177.52L175.168 100.859H176.308ZM183.592 107.531C183.32 107.531 183.068 107.487 182.836 107.399C182.604 107.311 182.404 107.187 182.236 107.027C182.068 106.859 181.936 106.659 181.84 106.427C181.744 106.187 181.696 105.919 181.696 105.623C181.696 104.783 182.04 104.183 182.728 103.823C183.424 103.455 184.416 103.263 185.704 103.247C185.704 103.039 185.684 102.835 185.644 102.635C185.604 102.435 185.532 102.259 185.428 102.107C185.332 101.955 185.196 101.835 185.02 101.747C184.844 101.651 184.624 101.603 184.36 101.603C183.976 101.603 183.608 101.667 183.256 101.795C182.904 101.915 182.6 102.063 182.344 102.239L181.912 101.459C182.216 101.267 182.596 101.091 183.052 100.931C183.516 100.771 184.012 100.691 184.54 100.691C184.94 100.691 185.28 100.755 185.56 100.883C185.848 101.011 186.08 101.195 186.256 101.435C186.44 101.667 186.576 101.947 186.664 102.275C186.752 102.603 186.796 102.967 186.796 103.367V107.375H185.896L185.8 106.679H185.764C185.452 106.935 185.112 107.143 184.744 107.303C184.384 107.455 184 107.531 183.592 107.531ZM183.904 106.655C184.224 106.655 184.524 106.599 184.804 106.487C185.084 106.375 185.384 106.179 185.704 105.899V103.967C185.128 104.007 184.648 104.067 184.264 104.147C183.888 104.219 183.588 104.319 183.364 104.447C183.14 104.567 182.984 104.719 182.896 104.903C182.808 105.079 182.764 105.295 182.764 105.551C182.764 105.935 182.868 106.215 183.076 106.391C183.292 106.567 183.568 106.655 183.904 106.655ZM188.877 97.823H189.969V107.375H188.877V97.823ZM194.055 107.531C193.351 107.531 192.843 107.319 192.531 106.895C192.227 106.471 192.075 105.835 192.075 104.987V100.859H193.167V104.855C193.167 105.463 193.263 105.903 193.455 106.175C193.647 106.447 193.959 106.583 194.391 106.583C194.727 106.583 195.027 106.499 195.291 106.331C195.555 106.155 195.843 105.871 196.155 105.479V100.859H197.247V107.375H196.335L196.251 106.355H196.215C195.911 106.707 195.587 106.991 195.243 107.207C194.899 107.423 194.503 107.531 194.055 107.531ZM202.076 107.531C201.644 107.531 201.236 107.455 200.852 107.303C200.476 107.151 200.148 106.931 199.868 106.643C199.588 106.347 199.364 105.987 199.196 105.563C199.036 105.139 198.956 104.659 198.956 104.123C198.956 103.595 199.036 103.119 199.196 102.695C199.364 102.271 199.584 101.911 199.856 101.615C200.128 101.319 200.44 101.091 200.792 100.931C201.152 100.771 201.52 100.691 201.896 100.691C202.312 100.691 202.68 100.763 203 100.907C203.32 101.051 203.588 101.259 203.804 101.531C204.028 101.795 204.196 102.115 204.308 102.491C204.428 102.867 204.488 103.287 204.488 103.751C204.488 103.871 204.484 103.987 204.476 104.099C204.468 104.203 204.456 104.295 204.44 104.375H200.048C200.088 105.079 200.3 105.635 200.684 106.043C201.076 106.451 201.584 106.655 202.208 106.655C202.528 106.655 202.82 106.611 203.084 106.523C203.348 106.427 203.6 106.299 203.84 106.139L204.236 106.859C203.948 107.043 203.628 107.203 203.276 107.339C202.932 107.467 202.532 107.531 202.076 107.531ZM203.528 103.595C203.528 102.915 203.384 102.407 203.096 102.071C202.816 101.735 202.42 101.567 201.908 101.567C201.676 101.567 201.452 101.615 201.236 101.711C201.028 101.799 200.84 101.931 200.672 102.107C200.504 102.275 200.364 102.487 200.252 102.743C200.14 102.991 200.068 103.275 200.036 103.595H203.528Z" fill="black" fill-opacity="0.6"/>
<path d="M1.344 152.125V141.821H2.968V150.753H7.322V152.125H1.344ZM10.817 152.307C10.481 152.307 10.173 152.256 9.89297 152.153C9.6223 152.05 9.3843 151.901 9.17897 151.705C8.98297 151.509 8.82897 151.276 8.71697 151.005C8.60497 150.725 8.54897 150.417 8.54897 150.081C8.54897 149.652 8.6283 149.241 8.78697 148.849C8.94564 148.457 9.22564 148.14 9.62697 147.897C10.019 147.682 10.5043 147.533 11.083 147.449C11.671 147.356 12.3616 147.281 13.155 147.225C13.155 147.001 13.1316 146.786 13.085 146.581C13.0383 146.376 12.959 146.198 12.847 146.049C12.735 145.89 12.581 145.769 12.385 145.685C12.1983 145.592 11.965 145.545 11.685 145.545C11.265 145.545 10.8543 145.629 10.453 145.797C10.0516 145.956 9.68764 146.142 9.36097 146.357L8.88497 145.181C9.2863 144.929 9.74364 144.71 10.257 144.523C10.7796 144.327 11.349 144.229 11.965 144.229C12.9263 144.229 13.631 144.514 14.079 145.083C14.5363 145.643 14.765 146.446 14.765 147.491V152.125H13.449L13.309 151.285H13.267C12.9123 151.584 12.5343 151.831 12.133 152.027C11.7316 152.214 11.293 152.307 10.817 152.307ZM11.307 151.033C11.643 151.033 11.9556 150.963 12.245 150.823C12.5343 150.683 12.8376 150.468 13.155 150.179V148.275C12.7816 148.322 12.455 148.359 12.175 148.387C11.895 148.415 11.6476 148.452 11.433 148.499C11.2183 148.536 11.0316 148.588 10.873 148.653C10.7143 148.709 10.5743 148.793 10.453 148.905C10.2476 149.092 10.1356 149.278 10.117 149.465C10.1076 149.642 10.103 149.81 10.103 149.969C10.103 150.361 10.215 150.636 10.439 150.795C10.6723 150.954 10.9616 151.033 11.307 151.033ZM20.6337 152.307C20.279 152.307 19.915 152.223 19.5417 152.055C19.1777 151.887 18.8324 151.644 18.5057 151.327H18.4637L18.3097 152.125H17.0497V140.967H18.6457V143.921L18.6037 145.237C18.9304 144.948 19.2897 144.71 19.6817 144.523C20.0737 144.327 20.4797 144.229 20.8997 144.229C21.385 144.229 21.8144 144.322 22.1877 144.509C22.5704 144.696 22.8924 144.962 23.1537 145.307C23.415 145.643 23.611 146.054 23.7417 146.539C23.8817 147.024 23.9517 147.561 23.9517 148.149C23.9517 148.802 23.8584 149.39 23.6717 149.913C23.4944 150.426 23.2517 150.86 22.9437 151.215C22.6357 151.57 22.281 151.84 21.8797 152.027C21.4877 152.214 21.0724 152.307 20.6337 152.307ZM20.3257 150.977C20.8857 150.977 21.3524 150.739 21.7257 150.263C22.099 149.778 22.2857 149.082 22.2857 148.177C22.2857 147.356 22.1457 146.716 21.8657 146.259C21.5857 145.802 21.1237 145.573 20.4797 145.573C19.8824 145.573 19.271 145.886 18.6457 146.511V150.277C18.9444 150.538 19.2384 150.72 19.5277 150.823C19.817 150.926 20.083 150.977 20.3257 150.977ZM29.0604 152.307C28.5377 152.307 28.0477 152.218 27.5904 152.041C27.1331 151.854 26.7364 151.593 26.4004 151.257C26.0644 150.912 25.7984 150.492 25.6024 149.997C25.4064 149.493 25.3084 148.924 25.3084 148.289C25.3084 147.654 25.4064 147.09 25.6024 146.595C25.7984 146.091 26.0597 145.666 26.3864 145.321C26.7131 144.966 27.0864 144.696 27.5064 144.509C27.9357 144.322 28.3744 144.229 28.8224 144.229C29.3357 144.229 29.7837 144.318 30.1664 144.495C30.5584 144.672 30.8851 144.92 31.1464 145.237C31.4171 145.554 31.6177 145.937 31.7484 146.385C31.8884 146.833 31.9584 147.332 31.9584 147.883C31.9584 148.051 31.9491 148.205 31.9304 148.345C31.9211 148.476 31.9071 148.592 31.8884 148.695H26.8904C26.9557 149.432 27.1984 150.011 27.6184 150.431C28.0477 150.842 28.5984 151.047 29.2704 151.047C29.6157 151.047 29.9377 151 30.2364 150.907C30.5351 150.804 30.8244 150.66 31.1044 150.473L31.6644 151.495C31.3097 151.738 30.9131 151.934 30.4744 152.083C30.0357 152.232 29.5644 152.307 29.0604 152.307ZM26.8764 147.589H30.5724C30.5724 146.917 30.4231 146.399 30.1244 146.035C29.8351 145.671 29.4104 145.489 28.8504 145.489C28.6171 145.489 28.3884 145.536 28.1644 145.629C27.9404 145.722 27.7397 145.858 27.5624 146.035C27.3851 146.212 27.2357 146.432 27.1144 146.693C26.9931 146.954 26.9137 147.253 26.8764 147.589ZM33.6864 152.125V140.981H35.2824V152.125H33.6864Z" fill="black"/>
<rect x="76" y="131.25" width="216" height="31.75" rx="4" fill="#F0F2F5"/>
<rect x="80" y="135.25" width="71" height="23.75" rx="2" fill="#15CCAD"/>
<path d="M160.308 144.609L161.532 148.317C161.636 148.637 161.736 148.961 161.832 149.289C161.936 149.617 162.04 149.933 162.144 150.237H162.192C162.288 149.933 162.388 149.617 162.492 149.289C162.596 148.961 162.696 148.637 162.792 148.317L164.028 144.609H165.108L162.792 151.125H161.52L159.168 144.609H160.308ZM167.592 151.281C167.32 151.281 167.068 151.237 166.836 151.149C166.604 151.061 166.404 150.937 166.236 150.777C166.068 150.609 165.936 150.409 165.84 150.177C165.744 149.937 165.696 149.669 165.696 149.373C165.696 148.533 166.04 147.933 166.728 147.573C167.424 147.205 168.416 147.013 169.704 146.997C169.704 146.789 169.684 146.585 169.644 146.385C169.604 146.185 169.532 146.009 169.428 145.857C169.332 145.705 169.196 145.585 169.02 145.497C168.844 145.401 168.624 145.353 168.36 145.353C167.976 145.353 167.608 145.417 167.256 145.545C166.904 145.665 166.6 145.813 166.344 145.989L165.912 145.209C166.216 145.017 166.596 144.841 167.052 144.681C167.516 144.521 168.012 144.441 168.54 144.441C168.94 144.441 169.28 144.505 169.56 144.633C169.848 144.761 170.08 144.945 170.256 145.185C170.44 145.417 170.576 145.697 170.664 146.025C170.752 146.353 170.796 146.717 170.796 147.117V151.125H169.896L169.8 150.429H169.764C169.452 150.685 169.112 150.893 168.744 151.053C168.384 151.205 168 151.281 167.592 151.281ZM167.904 150.405C168.224 150.405 168.524 150.349 168.804 150.237C169.084 150.125 169.384 149.929 169.704 149.649V147.717C169.128 147.757 168.648 147.817 168.264 147.897C167.888 147.969 167.588 148.069 167.364 148.197C167.14 148.317 166.984 148.469 166.896 148.653C166.808 148.829 166.764 149.045 166.764 149.301C166.764 149.685 166.868 149.965 167.076 150.141C167.292 150.317 167.568 150.405 167.904 150.405ZM172.877 141.573H173.969V151.125H172.877V141.573ZM178.055 151.281C177.351 151.281 176.843 151.069 176.531 150.645C176.227 150.221 176.075 149.585 176.075 148.737V144.609H177.167V148.605C177.167 149.213 177.263 149.653 177.455 149.925C177.647 150.197 177.959 150.333 178.391 150.333C178.727 150.333 179.027 150.249 179.291 150.081C179.555 149.905 179.843 149.621 180.155 149.229V144.609H181.247V151.125H180.335L180.251 150.105H180.215C179.911 150.457 179.587 150.741 179.243 150.957C178.899 151.173 178.503 151.281 178.055 151.281ZM186.076 151.281C185.644 151.281 185.236 151.205 184.852 151.053C184.476 150.901 184.148 150.681 183.868 150.393C183.588 150.097 183.364 149.737 183.196 149.313C183.036 148.889 182.956 148.409 182.956 147.873C182.956 147.345 183.036 146.869 183.196 146.445C183.364 146.021 183.584 145.661 183.856 145.365C184.128 145.069 184.44 144.841 184.792 144.681C185.152 144.521 185.52 144.441 185.896 144.441C186.312 144.441 186.68 144.513 187 144.657C187.32 144.801 187.588 145.009 187.804 145.281C188.028 145.545 188.196 145.865 188.308 146.241C188.428 146.617 188.488 147.037 188.488 147.501C188.488 147.621 188.484 147.737 188.476 147.849C188.468 147.953 188.456 148.045 188.44 148.125H184.048C184.088 148.829 184.3 149.385 184.684 149.793C185.076 150.201 185.584 150.405 186.208 150.405C186.528 150.405 186.82 150.361 187.084 150.273C187.348 150.177 187.6 150.049 187.84 149.889L188.236 150.609C187.948 150.793 187.628 150.953 187.276 151.089C186.932 151.217 186.532 151.281 186.076 151.281ZM187.528 147.345C187.528 146.665 187.384 146.157 187.096 145.821C186.816 145.485 186.42 145.317 185.908 145.317C185.676 145.317 185.452 145.365 185.236 145.461C185.028 145.549 184.84 145.681 184.672 145.857C184.504 146.025 184.364 146.237 184.252 146.493C184.14 146.741 184.068 147.025 184.036 147.345H187.528Z" fill="black" fill-opacity="0.6"/>
</svg>
