<svg width="1044" height="164" viewBox="0 0 1044 164" fill="none" xmlns="http://www.w3.org/2000/svg">
<path d="M8.86669 13V12.112H7.13869V4.156H6.26269L3.89869 6.196L4.48669 6.904L6.08269 5.476C6.07469 5.516 6.07069 5.56 6.07069 5.608V12.112H4.11469V13H8.86669ZM16.5311 8.62C16.5311 7.836 16.4471 7.16 16.2791 6.592C16.1111 6.016 15.8831 5.54 15.5951 5.164C15.3071 4.788 14.9671 4.512 14.5751 4.336C14.1831 4.152 13.7591 4.06 13.3031 4.06C12.8471 4.06 12.4231 4.152 12.0311 4.336C11.6391 4.512 11.2951 4.788 10.9991 5.164C10.7111 5.54 10.4831 6.016 10.3151 6.592C10.1551 7.16 10.0751 7.836 10.0751 8.62C10.0751 9.396 10.1551 10.072 10.3151 10.648C10.4831 11.216 10.7111 11.688 10.9991 12.064C11.2951 12.44 11.6391 12.72 12.0311 12.904C12.4231 13.08 12.8471 13.168 13.3031 13.168C13.7591 13.168 14.1831 13.08 14.5751 12.904C14.9671 12.72 15.3071 12.44 15.5951 12.064C15.8831 11.688 16.1111 11.216 16.2791 10.648C16.4471 10.072 16.5311 9.396 16.5311 8.62ZM15.4271 8.62C15.4271 9.3 15.3671 9.876 15.2471 10.348C15.1351 10.812 14.9791 11.188 14.7791 11.476C14.5871 11.764 14.3631 11.972 14.1071 12.1C13.8511 12.22 13.5831 12.28 13.3031 12.28C13.0231 12.28 12.7551 12.22 12.4991 12.1C12.2431 11.972 12.0191 11.764 11.8271 11.476C11.6351 11.188 11.4791 10.812 11.3591 10.348C11.2471 9.876 11.1911 9.3 11.1911 8.62C11.1911 7.932 11.2471 7.356 11.3591 6.892C11.4791 6.42 11.6351 6.044 11.8271 5.764C12.0191 5.476 12.2431 5.272 12.4991 5.152C12.7551 5.024 13.0231 4.96 13.3031 4.96C13.5831 4.96 13.8511 5.024 14.1071 5.152C14.3631 5.272 14.5871 5.476 14.7791 5.764C14.9791 6.044 15.1351 6.42 15.2471 6.892C15.3671 7.356 15.4271 7.932 15.4271 8.62ZM23.6796 8.62C23.6796 7.836 23.5956 7.16 23.4276 6.592C23.2596 6.016 23.0316 5.54 22.7436 5.164C22.4556 4.788 22.1156 4.512 21.7236 4.336C21.3316 4.152 20.9076 4.06 20.4516 4.06C19.9956 4.06 19.5716 4.152 19.1796 4.336C18.7876 4.512 18.4436 4.788 18.1476 5.164C17.8596 5.54 17.6316 6.016 17.4636 6.592C17.3036 7.16 17.2236 7.836 17.2236 8.62C17.2236 9.396 17.3036 10.072 17.4636 10.648C17.6316 11.216 17.8596 11.688 18.1476 12.064C18.4436 12.44 18.7876 12.72 19.1796 12.904C19.5716 13.08 19.9956 13.168 20.4516 13.168C20.9076 13.168 21.3316 13.08 21.7236 12.904C22.1156 12.72 22.4556 12.44 22.7436 12.064C23.0316 11.688 23.2596 11.216 23.4276 10.648C23.5956 10.072 23.6796 9.396 23.6796 8.62ZM22.5756 8.62C22.5756 9.3 22.5156 9.876 22.3956 10.348C22.2836 10.812 22.1276 11.188 21.9276 11.476C21.7356 11.764 21.5116 11.972 21.2556 12.1C20.9996 12.22 20.7316 12.28 20.4516 12.28C20.1716 12.28 19.9036 12.22 19.6476 12.1C19.3916 11.972 19.1676 11.764 18.9756 11.476C18.7836 11.188 18.6276 10.812 18.5076 10.348C18.3956 9.876 18.3396 9.3 18.3396 8.62C18.3396 7.932 18.3956 7.356 18.5076 6.892C18.6276 6.42 18.7836 6.044 18.9756 5.764C19.1676 5.476 19.3916 5.272 19.6476 5.152C19.9036 5.024 20.1716 4.96 20.4516 4.96C20.7316 4.96 20.9996 5.024 21.2556 5.152C21.5116 5.272 21.7356 5.476 21.9276 5.764C22.1276 6.044 22.2836 6.42 22.3956 6.892C22.5156 7.356 22.5756 7.932 22.5756 8.62Z" fill="black"/>
<path d="M14.5631 34.616C15.5231 34.264 16.0031 33.576 16.0031 32.552C16.0031 32.224 15.9351 31.92 15.7991 31.64C15.6711 31.352 15.4871 31.1 15.2471 30.884C15.0071 30.668 14.7191 30.5 14.3831 30.38C14.0471 30.252 13.6791 30.188 13.2791 30.188C12.8631 30.188 12.4871 30.252 12.1511 30.38C11.8151 30.5 11.5271 30.668 11.2871 30.884C11.0551 31.1 10.8751 31.352 10.7471 31.64C10.6191 31.92 10.5551 32.224 10.5551 32.552C10.5551 33.056 10.6751 33.484 10.9151 33.836C11.1631 34.18 11.5151 34.44 11.9711 34.616C11.4191 34.768 10.9911 35.032 10.6871 35.408C10.3831 35.784 10.2311 36.26 10.2311 36.836C10.2311 37.228 10.3031 37.584 10.4471 37.904C10.5991 38.216 10.8071 38.484 11.0711 38.708C11.3431 38.932 11.6671 39.104 12.0431 39.224C12.4191 39.344 12.8311 39.404 13.2791 39.404C13.7271 39.404 14.1351 39.344 14.5031 39.224C14.8711 39.104 15.1871 38.932 15.4511 38.708C15.7231 38.484 15.9311 38.216 16.0751 37.904C16.2271 37.584 16.3031 37.228 16.3031 36.836C16.3031 36.26 16.1511 35.784 15.8471 35.408C15.5511 35.032 15.1231 34.768 14.5631 34.616ZM13.2791 31.064C13.5511 31.064 13.7871 31.104 13.9871 31.184C14.1871 31.264 14.3511 31.372 14.4791 31.508C14.6151 31.644 14.7151 31.808 14.7791 32C14.8511 32.184 14.8871 32.38 14.8871 32.588C14.8871 32.788 14.8591 32.984 14.8031 33.176C14.7471 33.368 14.6551 33.54 14.5271 33.692C14.3991 33.844 14.2311 33.968 14.0231 34.064C13.8231 34.152 13.5751 34.196 13.2791 34.196C12.9751 34.196 12.7191 34.152 12.5111 34.064C12.3031 33.968 12.1351 33.844 12.0071 33.692C11.8791 33.54 11.7871 33.368 11.7311 33.176C11.6751 32.984 11.6471 32.788 11.6471 32.588C11.6471 32.38 11.6791 32.184 11.7431 32C11.8151 31.808 11.9151 31.644 12.0431 31.508C12.1791 31.372 12.3511 31.264 12.5591 31.184C12.7671 31.104 13.0071 31.064 13.2791 31.064ZM13.2791 38.504C12.6791 38.504 12.2151 38.352 11.8871 38.048C11.5591 37.736 11.3951 37.328 11.3951 36.824C11.3951 36.512 11.4431 36.248 11.5391 36.032C11.6431 35.808 11.7831 35.628 11.9591 35.492C12.1351 35.348 12.3351 35.244 12.5591 35.18C12.7911 35.108 13.0311 35.072 13.2791 35.072C13.5271 35.072 13.7631 35.108 13.9871 35.18C14.2111 35.244 14.4071 35.348 14.5751 35.492C14.7511 35.628 14.8871 35.808 14.9831 36.032C15.0871 36.248 15.1391 36.512 15.1391 36.824C15.1391 37.328 14.9791 37.736 14.6591 38.048C14.3391 38.352 13.8791 38.504 13.2791 38.504ZM23.6796 34.82C23.6796 34.036 23.5956 33.36 23.4276 32.792C23.2596 32.216 23.0316 31.74 22.7436 31.364C22.4556 30.988 22.1156 30.712 21.7236 30.536C21.3316 30.352 20.9076 30.26 20.4516 30.26C19.9956 30.26 19.5716 30.352 19.1796 30.536C18.7876 30.712 18.4436 30.988 18.1476 31.364C17.8596 31.74 17.6316 32.216 17.4636 32.792C17.3036 33.36 17.2236 34.036 17.2236 34.82C17.2236 35.596 17.3036 36.272 17.4636 36.848C17.6316 37.416 17.8596 37.888 18.1476 38.264C18.4436 38.64 18.7876 38.92 19.1796 39.104C19.5716 39.28 19.9956 39.368 20.4516 39.368C20.9076 39.368 21.3316 39.28 21.7236 39.104C22.1156 38.92 22.4556 38.64 22.7436 38.264C23.0316 37.888 23.2596 37.416 23.4276 36.848C23.5956 36.272 23.6796 35.596 23.6796 34.82ZM22.5756 34.82C22.5756 35.5 22.5156 36.076 22.3956 36.548C22.2836 37.012 22.1276 37.388 21.9276 37.676C21.7356 37.964 21.5116 38.172 21.2556 38.3C20.9996 38.42 20.7316 38.48 20.4516 38.48C20.1716 38.48 19.9036 38.42 19.6476 38.3C19.3916 38.172 19.1676 37.964 18.9756 37.676C18.7836 37.388 18.6276 37.012 18.5076 36.548C18.3956 36.076 18.3396 35.5 18.3396 34.82C18.3396 34.132 18.3956 33.556 18.5076 33.092C18.6276 32.62 18.7836 32.244 18.9756 31.964C19.1676 31.676 19.3916 31.472 19.6476 31.352C19.9036 31.224 20.1716 31.16 20.4516 31.16C20.7316 31.16 20.9996 31.224 21.2556 31.352C21.5116 31.472 21.7356 31.676 21.9276 31.964C22.1276 32.244 22.2836 32.62 22.3956 33.092C22.5156 33.556 22.5756 34.132 22.5756 34.82Z" fill="black"/>
<path d="M12.5951 59.88L15.2471 56.556H13.8671L11.4191 59.856C11.0351 60.36 10.7551 60.836 10.5791 61.284C10.4111 61.724 10.3271 62.14 10.3271 62.532C10.3271 62.988 10.3951 63.404 10.5311 63.78C10.6751 64.148 10.8751 64.464 11.1311 64.728C11.3871 64.992 11.6951 65.196 12.0551 65.34C12.4231 65.484 12.8311 65.556 13.2791 65.556C13.7271 65.556 14.1391 65.484 14.5151 65.34C14.8911 65.188 15.2111 64.98 15.4751 64.716C15.7471 64.452 15.9551 64.144 16.0991 63.792C16.2511 63.44 16.3271 63.06 16.3271 62.652C16.3271 62.228 16.2551 61.852 16.1111 61.524C15.9751 61.196 15.7871 60.92 15.5471 60.696C15.3071 60.464 15.0271 60.292 14.7071 60.18C14.3871 60.06 14.0471 60 13.6871 60C13.3911 60 13.1191 60.04 12.8711 60.12C12.6231 60.2 12.3911 60.312 12.1751 60.456C12.2151 60.408 12.2671 60.336 12.3311 60.24C12.4031 60.144 12.4911 60.024 12.5951 59.88ZM13.2551 64.632C12.6551 64.632 12.1951 64.456 11.8751 64.104C11.5551 63.752 11.3951 63.288 11.3951 62.712C11.3951 62.464 11.4391 62.228 11.5271 62.004C11.6231 61.78 11.7551 61.584 11.9231 61.416C12.0911 61.24 12.2911 61.104 12.5231 61.008C12.7631 60.904 13.0311 60.852 13.3271 60.852C13.5991 60.852 13.8511 60.896 14.0831 60.984C14.3151 61.072 14.5151 61.196 14.6831 61.356C14.8511 61.516 14.9831 61.716 15.0791 61.956C15.1751 62.188 15.2231 62.448 15.2231 62.736C15.2231 63.008 15.1751 63.26 15.0791 63.492C14.9831 63.724 14.8471 63.924 14.6711 64.092C14.5031 64.26 14.2951 64.392 14.0471 64.488C13.8071 64.584 13.5431 64.632 13.2551 64.632ZM23.6796 61.02C23.6796 60.236 23.5956 59.56 23.4276 58.992C23.2596 58.416 23.0316 57.94 22.7436 57.564C22.4556 57.188 22.1156 56.912 21.7236 56.736C21.3316 56.552 20.9076 56.46 20.4516 56.46C19.9956 56.46 19.5716 56.552 19.1796 56.736C18.7876 56.912 18.4436 57.188 18.1476 57.564C17.8596 57.94 17.6316 58.416 17.4636 58.992C17.3036 59.56 17.2236 60.236 17.2236 61.02C17.2236 61.796 17.3036 62.472 17.4636 63.048C17.6316 63.616 17.8596 64.088 18.1476 64.464C18.4436 64.84 18.7876 65.12 19.1796 65.304C19.5716 65.48 19.9956 65.568 20.4516 65.568C20.9076 65.568 21.3316 65.48 21.7236 65.304C22.1156 65.12 22.4556 64.84 22.7436 64.464C23.0316 64.088 23.2596 63.616 23.4276 63.048C23.5956 62.472 23.6796 61.796 23.6796 61.02ZM22.5756 61.02C22.5756 61.7 22.5156 62.276 22.3956 62.748C22.2836 63.212 22.1276 63.588 21.9276 63.876C21.7356 64.164 21.5116 64.372 21.2556 64.5C20.9996 64.62 20.7316 64.68 20.4516 64.68C20.1716 64.68 19.9036 64.62 19.6476 64.5C19.3916 64.372 19.1676 64.164 18.9756 63.876C18.7836 63.588 18.6276 63.212 18.5076 62.748C18.3956 62.276 18.3396 61.7 18.3396 61.02C18.3396 60.332 18.3956 59.756 18.5076 59.292C18.6276 58.82 18.7836 58.444 18.9756 58.164C19.1676 57.876 19.3916 57.672 19.6476 57.552C19.9036 57.424 20.1716 57.36 20.4516 57.36C20.7316 57.36 20.9996 57.424 21.2556 57.552C21.5116 57.672 21.7356 57.876 21.9276 58.164C22.1276 58.444 22.2836 58.82 22.3956 59.292C22.5156 59.756 22.5756 60.332 22.5756 61.02Z" fill="black"/>
<path d="M16.6631 89.26V88.396H15.3311V82.708H14.2991L9.96713 88.444V89.26H14.3591V91.6H15.3311V89.26H16.6631ZM14.3591 84.724V88.396H11.1671L14.4071 83.98C14.3911 84.108 14.3791 84.24 14.3711 84.376C14.3631 84.504 14.3591 84.62 14.3591 84.724ZM23.6796 87.22C23.6796 86.436 23.5956 85.76 23.4276 85.192C23.2596 84.616 23.0316 84.14 22.7436 83.764C22.4556 83.388 22.1156 83.112 21.7236 82.936C21.3316 82.752 20.9076 82.66 20.4516 82.66C19.9956 82.66 19.5716 82.752 19.1796 82.936C18.7876 83.112 18.4436 83.388 18.1476 83.764C17.8596 84.14 17.6316 84.616 17.4636 85.192C17.3036 85.76 17.2236 86.436 17.2236 87.22C17.2236 87.996 17.3036 88.672 17.4636 89.248C17.6316 89.816 17.8596 90.288 18.1476 90.664C18.4436 91.04 18.7876 91.32 19.1796 91.504C19.5716 91.68 19.9956 91.768 20.4516 91.768C20.9076 91.768 21.3316 91.68 21.7236 91.504C22.1156 91.32 22.4556 91.04 22.7436 90.664C23.0316 90.288 23.2596 89.816 23.4276 89.248C23.5956 88.672 23.6796 87.996 23.6796 87.22ZM22.5756 87.22C22.5756 87.9 22.5156 88.476 22.3956 88.948C22.2836 89.412 22.1276 89.788 21.9276 90.076C21.7356 90.364 21.5116 90.572 21.2556 90.7C20.9996 90.82 20.7316 90.88 20.4516 90.88C20.1716 90.88 19.9036 90.82 19.6476 90.7C19.3916 90.572 19.1676 90.364 18.9756 90.076C18.7836 89.788 18.6276 89.412 18.5076 88.948C18.3956 88.476 18.3396 87.9 18.3396 87.22C18.3396 86.532 18.3956 85.956 18.5076 85.492C18.6276 85.02 18.7836 84.644 18.9756 84.364C19.1676 84.076 19.3916 83.872 19.6476 83.752C19.9036 83.624 20.1716 83.56 20.4516 83.56C20.7316 83.56 20.9996 83.624 21.2556 83.752C21.5116 83.872 21.7356 84.076 21.9276 84.364C22.1276 84.644 22.2836 85.02 22.3956 85.492C22.5156 85.956 22.5756 86.532 22.5756 87.22Z" fill="black"/>
<path d="M16.2431 117.8V116.828H12.7751C12.6231 116.828 12.4591 116.84 12.2831 116.864C12.1151 116.888 11.9471 116.924 11.7791 116.972L14.2391 114.536C14.4871 114.288 14.7231 114.044 14.9471 113.804C15.1711 113.556 15.3671 113.304 15.5351 113.048C15.7031 112.784 15.8351 112.512 15.9311 112.232C16.0271 111.952 16.0751 111.648 16.0751 111.32C16.0751 110.928 16.0071 110.58 15.8711 110.276C15.7351 109.972 15.5471 109.716 15.3071 109.508C15.0671 109.292 14.7831 109.128 14.4551 109.016C14.1351 108.904 13.7871 108.848 13.4111 108.848C13.0351 108.848 12.6831 108.904 12.3551 109.016C12.0271 109.12 11.7351 109.28 11.4791 109.496C11.2311 109.704 11.0231 109.964 10.8551 110.276C10.6871 110.58 10.5751 110.936 10.5191 111.344L11.5991 111.524C11.5991 111.268 11.6431 111.036 11.7311 110.828C11.8191 110.62 11.9391 110.44 12.0911 110.288C12.2511 110.128 12.4391 110.008 12.6551 109.928C12.8711 109.84 13.1031 109.796 13.3511 109.796C13.8071 109.796 14.1871 109.924 14.4911 110.18C14.7951 110.428 14.9551 110.816 14.9711 111.344C14.9711 111.6 14.9311 111.844 14.8511 112.076C14.7711 112.3 14.6591 112.524 14.5151 112.748C14.3791 112.972 14.2111 113.196 14.0111 113.42C13.8191 113.636 13.6071 113.868 13.3751 114.116L10.3391 117.032V117.8H16.2431ZM23.6796 113.42C23.6796 112.636 23.5956 111.96 23.4276 111.392C23.2596 110.816 23.0316 110.34 22.7436 109.964C22.4556 109.588 22.1156 109.312 21.7236 109.136C21.3316 108.952 20.9076 108.86 20.4516 108.86C19.9956 108.86 19.5716 108.952 19.1796 109.136C18.7876 109.312 18.4436 109.588 18.1476 109.964C17.8596 110.34 17.6316 110.816 17.4636 111.392C17.3036 111.96 17.2236 112.636 17.2236 113.42C17.2236 114.196 17.3036 114.872 17.4636 115.448C17.6316 116.016 17.8596 116.488 18.1476 116.864C18.4436 117.24 18.7876 117.52 19.1796 117.704C19.5716 117.88 19.9956 117.968 20.4516 117.968C20.9076 117.968 21.3316 117.88 21.7236 117.704C22.1156 117.52 22.4556 117.24 22.7436 116.864C23.0316 116.488 23.2596 116.016 23.4276 115.448C23.5956 114.872 23.6796 114.196 23.6796 113.42ZM22.5756 113.42C22.5756 114.1 22.5156 114.676 22.3956 115.148C22.2836 115.612 22.1276 115.988 21.9276 116.276C21.7356 116.564 21.5116 116.772 21.2556 116.9C20.9996 117.02 20.7316 117.08 20.4516 117.08C20.1716 117.08 19.9036 117.02 19.6476 116.9C19.3916 116.772 19.1676 116.564 18.9756 116.276C18.7836 115.988 18.6276 115.612 18.5076 115.148C18.3956 114.676 18.3396 114.1 18.3396 113.42C18.3396 112.732 18.3956 112.156 18.5076 111.692C18.6276 111.22 18.7836 110.844 18.9756 110.564C19.1676 110.276 19.3916 110.072 19.6476 109.952C19.9036 109.824 20.1716 109.76 20.4516 109.76C20.7316 109.76 20.9996 109.824 21.2556 109.952C21.5116 110.072 21.7356 110.276 21.9276 110.564C22.1276 110.844 22.2836 111.22 22.3956 111.692C22.5156 112.156 22.5756 112.732 22.5756 113.42Z" fill="black"/>
<path d="M23.6796 139.62C23.6796 138.836 23.5956 138.16 23.4276 137.592C23.2596 137.016 23.0316 136.54 22.7436 136.164C22.4556 135.788 22.1156 135.512 21.7236 135.336C21.3316 135.152 20.9076 135.06 20.4516 135.06C19.9956 135.06 19.5716 135.152 19.1796 135.336C18.7876 135.512 18.4436 135.788 18.1476 136.164C17.8596 136.54 17.6316 137.016 17.4636 137.592C17.3036 138.16 17.2236 138.836 17.2236 139.62C17.2236 140.396 17.3036 141.072 17.4636 141.648C17.6316 142.216 17.8596 142.688 18.1476 143.064C18.4436 143.44 18.7876 143.72 19.1796 143.904C19.5716 144.08 19.9956 144.168 20.4516 144.168C20.9076 144.168 21.3316 144.08 21.7236 143.904C22.1156 143.72 22.4556 143.44 22.7436 143.064C23.0316 142.688 23.2596 142.216 23.4276 141.648C23.5956 141.072 23.6796 140.396 23.6796 139.62ZM22.5756 139.62C22.5756 140.3 22.5156 140.876 22.3956 141.348C22.2836 141.812 22.1276 142.188 21.9276 142.476C21.7356 142.764 21.5116 142.972 21.2556 143.1C20.9996 143.22 20.7316 143.28 20.4516 143.28C20.1716 143.28 19.9036 143.22 19.6476 143.1C19.3916 142.972 19.1676 142.764 18.9756 142.476C18.7836 142.188 18.6276 141.812 18.5076 141.348C18.3956 140.876 18.3396 140.3 18.3396 139.62C18.3396 138.932 18.3956 138.356 18.5076 137.892C18.6276 137.42 18.7836 137.044 18.9756 136.764C19.1676 136.476 19.3916 136.272 19.6476 136.152C19.9036 136.024 20.1716 135.96 20.4516 135.96C20.7316 135.96 20.9996 136.024 21.2556 136.152C21.5116 136.272 21.7356 136.476 21.9276 136.764C22.1276 137.044 22.2836 137.42 22.3956 137.892C22.5156 138.356 22.5756 138.932 22.5756 139.62Z" fill="black"/>
<mask id="path-7-inside-1_47_1456" fill="white">
<path d="M34 1H1044V147H34V1Z"/>
</mask>
<path d="M34 147H33V148H34V147ZM1044 146H34V148H1044V146ZM35 147V1H33V147H35Z" fill="#D2D3D6" mask="url(#path-7-inside-1_47_1456)"/>
<rect x="54" y="70" width="72.25" height="77" fill="#0068E6"/>
<rect x="182.25" y="40" width="72.25" height="107" fill="#0068E6"/>
<rect x="310.5" y="35" width="72.25" height="112" fill="#0068E6"/>
<rect x="438.75" y="63" width="72.25" height="84" fill="#0068E6"/>
<rect x="567" y="103" width="72.25" height="44" fill="#0068E6"/>
<rect x="695.25" y="54" width="72.25" height="93" fill="#0068E6"/>
<rect x="823.5" y="54" width="72.25" height="93" fill="#0068E6"/>
<rect x="951.725" y="54.0449" width="72.25" height="93" transform="rotate(-0.071134 951.725 54.0449)" fill="#0068E6"/>
<path d="M77.316 152.204H76.2V161H81.156V160.052H77.316V152.204ZM84.0959 161.156C84.5039 161.156 84.8879 161.08 85.2479 160.928C85.6159 160.768 85.9559 160.56 86.2679 160.304H86.3039L86.3999 161H87.2999V156.992C87.2999 156.592 87.2559 156.228 87.1679 155.9C87.0799 155.572 86.9439 155.292 86.7599 155.06C86.5839 154.82 86.3519 154.636 86.0639 154.508C85.7839 154.38 85.4439 154.316 85.0439 154.316C84.5159 154.316 84.0199 154.396 83.5559 154.556C83.0999 154.716 82.7199 154.892 82.4159 155.084L82.8479 155.864C83.1039 155.688 83.4079 155.54 83.7599 155.42C84.1119 155.292 84.4799 155.228 84.8639 155.228C85.1279 155.228 85.3479 155.276 85.5239 155.372C85.6999 155.46 85.8359 155.58 85.9319 155.732C86.0359 155.884 86.1079 156.06 86.1479 156.26C86.1879 156.46 86.2079 156.664 86.2079 156.872C84.9199 156.888 83.9279 157.08 83.2319 157.448C82.5439 157.808 82.1999 158.408 82.1999 159.248C82.1999 159.544 82.2479 159.812 82.3439 160.052C82.4399 160.284 82.5719 160.484 82.7399 160.652C82.9079 160.812 83.1079 160.936 83.3399 161.024C83.5719 161.112 83.8239 161.156 84.0959 161.156ZM84.4079 160.28C84.0719 160.28 83.7959 160.192 83.5799 160.016C83.3719 159.84 83.2679 159.56 83.2679 159.176C83.2679 158.92 83.3119 158.704 83.3999 158.528C83.4879 158.344 83.6439 158.192 83.8679 158.072C84.0919 157.944 84.3919 157.844 84.7679 157.772C85.1519 157.692 85.6319 157.632 86.2079 157.592V159.524C85.8879 159.804 85.5879 160 85.3079 160.112C85.0279 160.224 84.7279 160.28 84.4079 160.28ZM92.2493 161.156C92.6253 161.156 92.9813 161.08 93.3173 160.928C93.6613 160.768 93.9613 160.54 94.2173 160.244C94.4813 159.94 94.6893 159.568 94.8413 159.128C95.0013 158.688 95.0813 158.188 95.0813 157.628C95.0813 157.132 95.0253 156.68 94.9133 156.272C94.8013 155.864 94.6333 155.516 94.4093 155.228C94.1933 154.94 93.9213 154.716 93.5933 154.556C93.2733 154.396 92.9013 154.316 92.4773 154.316C92.1173 154.316 91.7613 154.408 91.4093 154.592C91.0573 154.768 90.7333 154.984 90.4373 155.24L90.4733 154.064V151.448H89.3813V161H90.2573L90.3533 160.328H90.3893C90.6773 160.592 90.9813 160.796 91.3013 160.94C91.6293 161.084 91.9453 161.156 92.2493 161.156ZM92.0693 160.244C91.8533 160.244 91.6053 160.196 91.3253 160.1C91.0453 159.996 90.7613 159.816 90.4733 159.56V156.14C90.7853 155.844 91.0853 155.62 91.3733 155.468C91.6613 155.316 91.9453 155.24 92.2253 155.24C92.5373 155.24 92.8013 155.3 93.0173 155.42C93.2333 155.532 93.4093 155.696 93.5453 155.912C93.6813 156.12 93.7813 156.372 93.8453 156.668C93.9093 156.964 93.9413 157.292 93.9413 157.652C93.9413 158.06 93.8933 158.424 93.7973 158.744C93.7093 159.064 93.5813 159.336 93.4133 159.56C93.2453 159.776 93.0453 159.944 92.8133 160.064C92.5893 160.184 92.3413 160.244 92.0693 160.244ZM99.4273 161.156C99.8833 161.156 100.283 161.092 100.627 160.964C100.979 160.828 101.299 160.668 101.587 160.484L101.191 159.764C100.951 159.924 100.699 160.052 100.435 160.148C100.171 160.236 99.8793 160.28 99.5593 160.28C98.9353 160.28 98.4273 160.076 98.0353 159.668C97.6513 159.26 97.4393 158.704 97.3993 158H101.791C101.807 157.92 101.819 157.828 101.827 157.724C101.835 157.612 101.839 157.496 101.839 157.376C101.839 156.912 101.779 156.492 101.659 156.116C101.547 155.74 101.379 155.42 101.155 155.156C100.939 154.884 100.671 154.676 100.351 154.532C100.031 154.388 99.6633 154.316 99.2473 154.316C98.8713 154.316 98.5033 154.396 98.1433 154.556C97.7913 154.716 97.4793 154.944 97.2073 155.24C96.9353 155.536 96.7153 155.896 96.5473 156.32C96.3873 156.744 96.3073 157.22 96.3073 157.748C96.3073 158.284 96.3873 158.764 96.5473 159.188C96.7153 159.612 96.9393 159.972 97.2193 160.268C97.4993 160.556 97.8273 160.776 98.2033 160.928C98.5873 161.08 98.9953 161.156 99.4273 161.156ZM100.879 157.22H97.3873C97.4193 156.9 97.4913 156.616 97.6033 156.368C97.7153 156.112 97.8553 155.9 98.0233 155.732C98.1913 155.556 98.3793 155.424 98.5873 155.336C98.8033 155.24 99.0273 155.192 99.2593 155.192C99.7713 155.192 100.167 155.36 100.447 155.696C100.735 156.032 100.879 156.54 100.879 157.22ZM103.444 151.448V161H104.536V151.448H103.444Z" fill="black"/>
<path d="M206.03 152.204H204.914V161H209.87V160.052H206.03V152.204ZM212.81 161.156C213.218 161.156 213.602 161.08 213.962 160.928C214.33 160.768 214.67 160.56 214.982 160.304H215.018L215.114 161H216.014V156.992C216.014 156.592 215.97 156.228 215.882 155.9C215.794 155.572 215.658 155.292 215.474 155.06C215.298 154.82 215.066 154.636 214.778 154.508C214.498 154.38 214.158 154.316 213.758 154.316C213.23 154.316 212.734 154.396 212.27 154.556C211.814 154.716 211.434 154.892 211.13 155.084L211.562 155.864C211.818 155.688 212.122 155.54 212.474 155.42C212.826 155.292 213.194 155.228 213.578 155.228C213.842 155.228 214.062 155.276 214.238 155.372C214.414 155.46 214.55 155.58 214.646 155.732C214.75 155.884 214.822 156.06 214.862 156.26C214.902 156.46 214.922 156.664 214.922 156.872C213.634 156.888 212.642 157.08 211.946 157.448C211.258 157.808 210.914 158.408 210.914 159.248C210.914 159.544 210.962 159.812 211.058 160.052C211.154 160.284 211.286 160.484 211.454 160.652C211.622 160.812 211.822 160.936 212.054 161.024C212.286 161.112 212.538 161.156 212.81 161.156ZM213.122 160.28C212.786 160.28 212.51 160.192 212.294 160.016C212.086 159.84 211.982 159.56 211.982 159.176C211.982 158.92 212.026 158.704 212.114 158.528C212.202 158.344 212.358 158.192 212.582 158.072C212.806 157.944 213.106 157.844 213.482 157.772C213.866 157.692 214.346 157.632 214.922 157.592V159.524C214.602 159.804 214.302 160 214.022 160.112C213.742 160.224 213.442 160.28 213.122 160.28ZM220.964 161.156C221.34 161.156 221.696 161.08 222.032 160.928C222.376 160.768 222.676 160.54 222.932 160.244C223.196 159.94 223.404 159.568 223.556 159.128C223.716 158.688 223.796 158.188 223.796 157.628C223.796 157.132 223.74 156.68 223.628 156.272C223.516 155.864 223.348 155.516 223.124 155.228C222.908 154.94 222.636 154.716 222.308 154.556C221.988 154.396 221.616 154.316 221.192 154.316C220.832 154.316 220.476 154.408 220.124 154.592C219.772 154.768 219.448 154.984 219.152 155.24L219.188 154.064V151.448H218.096V161H218.972L219.068 160.328H219.104C219.392 160.592 219.696 160.796 220.016 160.94C220.344 161.084 220.66 161.156 220.964 161.156ZM220.784 160.244C220.568 160.244 220.32 160.196 220.04 160.1C219.76 159.996 219.476 159.816 219.188 159.56V156.14C219.5 155.844 219.8 155.62 220.088 155.468C220.376 155.316 220.66 155.24 220.94 155.24C221.252 155.24 221.516 155.3 221.732 155.42C221.948 155.532 222.124 155.696 222.26 155.912C222.396 156.12 222.496 156.372 222.56 156.668C222.624 156.964 222.656 157.292 222.656 157.652C222.656 158.06 222.608 158.424 222.512 158.744C222.424 159.064 222.296 159.336 222.128 159.56C221.96 159.776 221.76 159.944 221.528 160.064C221.304 160.184 221.056 160.244 220.784 160.244ZM228.142 161.156C228.598 161.156 228.998 161.092 229.342 160.964C229.694 160.828 230.014 160.668 230.302 160.484L229.906 159.764C229.666 159.924 229.414 160.052 229.15 160.148C228.886 160.236 228.594 160.28 228.274 160.28C227.65 160.28 227.142 160.076 226.75 159.668C226.366 159.26 226.154 158.704 226.114 158H230.506C230.522 157.92 230.534 157.828 230.542 157.724C230.55 157.612 230.554 157.496 230.554 157.376C230.554 156.912 230.494 156.492 230.374 156.116C230.262 155.74 230.094 155.42 229.87 155.156C229.654 154.884 229.386 154.676 229.066 154.532C228.746 154.388 228.378 154.316 227.962 154.316C227.586 154.316 227.218 154.396 226.858 154.556C226.506 154.716 226.194 154.944 225.922 155.24C225.65 155.536 225.43 155.896 225.262 156.32C225.102 156.744 225.022 157.22 225.022 157.748C225.022 158.284 225.102 158.764 225.262 159.188C225.43 159.612 225.654 159.972 225.934 160.268C226.214 160.556 226.542 160.776 226.918 160.928C227.302 161.08 227.71 161.156 228.142 161.156ZM229.594 157.22H226.102C226.134 156.9 226.206 156.616 226.318 156.368C226.43 156.112 226.57 155.9 226.738 155.732C226.906 155.556 227.094 155.424 227.302 155.336C227.518 155.24 227.742 155.192 227.974 155.192C228.486 155.192 228.882 155.36 229.162 155.696C229.45 156.032 229.594 156.54 229.594 157.22ZM232.158 151.448V161H233.25V151.448H232.158Z" fill="black"/>
<path d="M334.745 152.204H333.629V161H338.585V160.052H334.745V152.204ZM341.525 161.156C341.933 161.156 342.317 161.08 342.677 160.928C343.045 160.768 343.385 160.56 343.697 160.304H343.733L343.829 161H344.729V156.992C344.729 156.592 344.685 156.228 344.597 155.9C344.509 155.572 344.373 155.292 344.189 155.06C344.013 154.82 343.781 154.636 343.493 154.508C343.213 154.38 342.873 154.316 342.473 154.316C341.945 154.316 341.449 154.396 340.985 154.556C340.529 154.716 340.149 154.892 339.845 155.084L340.277 155.864C340.533 155.688 340.837 155.54 341.189 155.42C341.541 155.292 341.909 155.228 342.293 155.228C342.557 155.228 342.777 155.276 342.953 155.372C343.129 155.46 343.265 155.58 343.361 155.732C343.465 155.884 343.537 156.06 343.577 156.26C343.617 156.46 343.637 156.664 343.637 156.872C342.349 156.888 341.357 157.08 340.661 157.448C339.973 157.808 339.629 158.408 339.629 159.248C339.629 159.544 339.677 159.812 339.773 160.052C339.869 160.284 340.001 160.484 340.169 160.652C340.337 160.812 340.537 160.936 340.769 161.024C341.001 161.112 341.253 161.156 341.525 161.156ZM341.837 160.28C341.501 160.28 341.225 160.192 341.009 160.016C340.801 159.84 340.697 159.56 340.697 159.176C340.697 158.92 340.741 158.704 340.829 158.528C340.917 158.344 341.073 158.192 341.297 158.072C341.521 157.944 341.821 157.844 342.197 157.772C342.581 157.692 343.061 157.632 343.637 157.592V159.524C343.317 159.804 343.017 160 342.737 160.112C342.457 160.224 342.157 160.28 341.837 160.28ZM349.678 161.156C350.054 161.156 350.41 161.08 350.746 160.928C351.09 160.768 351.39 160.54 351.646 160.244C351.91 159.94 352.118 159.568 352.27 159.128C352.43 158.688 352.51 158.188 352.51 157.628C352.51 157.132 352.454 156.68 352.342 156.272C352.23 155.864 352.062 155.516 351.838 155.228C351.622 154.94 351.35 154.716 351.022 154.556C350.702 154.396 350.33 154.316 349.906 154.316C349.546 154.316 349.19 154.408 348.838 154.592C348.486 154.768 348.162 154.984 347.866 155.24L347.902 154.064V151.448H346.81V161H347.686L347.782 160.328H347.818C348.106 160.592 348.41 160.796 348.73 160.94C349.058 161.084 349.374 161.156 349.678 161.156ZM349.498 160.244C349.282 160.244 349.034 160.196 348.754 160.1C348.474 159.996 348.19 159.816 347.902 159.56V156.14C348.214 155.844 348.514 155.62 348.802 155.468C349.09 155.316 349.374 155.24 349.654 155.24C349.966 155.24 350.23 155.3 350.446 155.42C350.662 155.532 350.838 155.696 350.974 155.912C351.11 156.12 351.21 156.372 351.274 156.668C351.338 156.964 351.37 157.292 351.37 157.652C351.37 158.06 351.322 158.424 351.226 158.744C351.138 159.064 351.01 159.336 350.842 159.56C350.674 159.776 350.474 159.944 350.242 160.064C350.018 160.184 349.77 160.244 349.498 160.244ZM356.856 161.156C357.312 161.156 357.712 161.092 358.056 160.964C358.408 160.828 358.728 160.668 359.016 160.484L358.62 159.764C358.38 159.924 358.128 160.052 357.864 160.148C357.6 160.236 357.308 160.28 356.988 160.28C356.364 160.28 355.856 160.076 355.464 159.668C355.08 159.26 354.868 158.704 354.828 158H359.22C359.236 157.92 359.248 157.828 359.256 157.724C359.264 157.612 359.268 157.496 359.268 157.376C359.268 156.912 359.208 156.492 359.088 156.116C358.976 155.74 358.808 155.42 358.584 155.156C358.368 154.884 358.1 154.676 357.78 154.532C357.46 154.388 357.092 154.316 356.676 154.316C356.3 154.316 355.932 154.396 355.572 154.556C355.22 154.716 354.908 154.944 354.636 155.24C354.364 155.536 354.144 155.896 353.976 156.32C353.816 156.744 353.736 157.22 353.736 157.748C353.736 158.284 353.816 158.764 353.976 159.188C354.144 159.612 354.368 159.972 354.648 160.268C354.928 160.556 355.256 160.776 355.632 160.928C356.016 161.08 356.424 161.156 356.856 161.156ZM358.308 157.22H354.816C354.848 156.9 354.92 156.616 355.032 156.368C355.144 156.112 355.284 155.9 355.452 155.732C355.62 155.556 355.808 155.424 356.016 155.336C356.232 155.24 356.456 155.192 356.688 155.192C357.2 155.192 357.596 155.36 357.876 155.696C358.164 156.032 358.308 156.54 358.308 157.22ZM360.873 151.448V161H361.965V151.448H360.873Z" fill="black"/>
<path d="M463.459 152.204H462.343V161H467.299V160.052H463.459V152.204ZM470.239 161.156C470.647 161.156 471.031 161.08 471.391 160.928C471.759 160.768 472.099 160.56 472.411 160.304H472.447L472.543 161H473.443V156.992C473.443 156.592 473.399 156.228 473.311 155.9C473.223 155.572 473.087 155.292 472.903 155.06C472.727 154.82 472.495 154.636 472.207 154.508C471.927 154.38 471.587 154.316 471.187 154.316C470.659 154.316 470.163 154.396 469.699 154.556C469.243 154.716 468.863 154.892 468.559 155.084L468.991 155.864C469.247 155.688 469.551 155.54 469.903 155.42C470.255 155.292 470.623 155.228 471.007 155.228C471.271 155.228 471.491 155.276 471.667 155.372C471.843 155.46 471.979 155.58 472.075 155.732C472.179 155.884 472.251 156.06 472.291 156.26C472.331 156.46 472.351 156.664 472.351 156.872C471.063 156.888 470.071 157.08 469.375 157.448C468.687 157.808 468.343 158.408 468.343 159.248C468.343 159.544 468.391 159.812 468.487 160.052C468.583 160.284 468.715 160.484 468.883 160.652C469.051 160.812 469.251 160.936 469.483 161.024C469.715 161.112 469.967 161.156 470.239 161.156ZM470.551 160.28C470.215 160.28 469.939 160.192 469.723 160.016C469.515 159.84 469.411 159.56 469.411 159.176C469.411 158.92 469.455 158.704 469.543 158.528C469.631 158.344 469.787 158.192 470.011 158.072C470.235 157.944 470.535 157.844 470.911 157.772C471.295 157.692 471.775 157.632 472.351 157.592V159.524C472.031 159.804 471.731 160 471.451 160.112C471.171 160.224 470.871 160.28 470.551 160.28ZM478.392 161.156C478.768 161.156 479.124 161.08 479.46 160.928C479.804 160.768 480.104 160.54 480.36 160.244C480.624 159.94 480.832 159.568 480.984 159.128C481.144 158.688 481.224 158.188 481.224 157.628C481.224 157.132 481.168 156.68 481.056 156.272C480.944 155.864 480.776 155.516 480.552 155.228C480.336 154.94 480.064 154.716 479.736 154.556C479.416 154.396 479.044 154.316 478.62 154.316C478.26 154.316 477.904 154.408 477.552 154.592C477.2 154.768 476.876 154.984 476.58 155.24L476.616 154.064V151.448H475.524V161H476.4L476.496 160.328H476.532C476.82 160.592 477.124 160.796 477.444 160.94C477.772 161.084 478.088 161.156 478.392 161.156ZM478.212 160.244C477.996 160.244 477.748 160.196 477.468 160.1C477.188 159.996 476.904 159.816 476.616 159.56V156.14C476.928 155.844 477.228 155.62 477.516 155.468C477.804 155.316 478.088 155.24 478.368 155.24C478.68 155.24 478.944 155.3 479.16 155.42C479.376 155.532 479.552 155.696 479.688 155.912C479.824 156.12 479.924 156.372 479.988 156.668C480.052 156.964 480.084 157.292 480.084 157.652C480.084 158.06 480.036 158.424 479.94 158.744C479.852 159.064 479.724 159.336 479.556 159.56C479.388 159.776 479.188 159.944 478.956 160.064C478.732 160.184 478.484 160.244 478.212 160.244ZM485.57 161.156C486.026 161.156 486.426 161.092 486.77 160.964C487.122 160.828 487.442 160.668 487.73 160.484L487.334 159.764C487.094 159.924 486.842 160.052 486.578 160.148C486.314 160.236 486.022 160.28 485.702 160.28C485.078 160.28 484.57 160.076 484.178 159.668C483.794 159.26 483.582 158.704 483.542 158H487.934C487.95 157.92 487.962 157.828 487.97 157.724C487.978 157.612 487.982 157.496 487.982 157.376C487.982 156.912 487.922 156.492 487.802 156.116C487.69 155.74 487.522 155.42 487.298 155.156C487.082 154.884 486.814 154.676 486.494 154.532C486.174 154.388 485.806 154.316 485.39 154.316C485.014 154.316 484.646 154.396 484.286 154.556C483.934 154.716 483.622 154.944 483.35 155.24C483.078 155.536 482.858 155.896 482.69 156.32C482.53 156.744 482.45 157.22 482.45 157.748C482.45 158.284 482.53 158.764 482.69 159.188C482.858 159.612 483.082 159.972 483.362 160.268C483.642 160.556 483.97 160.776 484.346 160.928C484.73 161.08 485.138 161.156 485.57 161.156ZM487.022 157.22H483.53C483.562 156.9 483.634 156.616 483.746 156.368C483.858 156.112 483.998 155.9 484.166 155.732C484.334 155.556 484.522 155.424 484.73 155.336C484.946 155.24 485.17 155.192 485.402 155.192C485.914 155.192 486.31 155.36 486.59 155.696C486.878 156.032 487.022 156.54 487.022 157.22ZM489.587 151.448V161H490.679V151.448H489.587Z" fill="black"/>
<path d="M592.173 152.204H591.057V161H596.013V160.052H592.173V152.204ZM598.953 161.156C599.361 161.156 599.745 161.08 600.105 160.928C600.473 160.768 600.813 160.56 601.125 160.304H601.161L601.257 161H602.157V156.992C602.157 156.592 602.113 156.228 602.025 155.9C601.937 155.572 601.801 155.292 601.617 155.06C601.441 154.82 601.209 154.636 600.921 154.508C600.641 154.38 600.301 154.316 599.901 154.316C599.373 154.316 598.877 154.396 598.413 154.556C597.957 154.716 597.577 154.892 597.273 155.084L597.705 155.864C597.961 155.688 598.265 155.54 598.617 155.42C598.969 155.292 599.337 155.228 599.721 155.228C599.985 155.228 600.205 155.276 600.381 155.372C600.557 155.46 600.693 155.58 600.789 155.732C600.893 155.884 600.965 156.06 601.005 156.26C601.045 156.46 601.065 156.664 601.065 156.872C599.777 156.888 598.785 157.08 598.089 157.448C597.401 157.808 597.057 158.408 597.057 159.248C597.057 159.544 597.105 159.812 597.201 160.052C597.297 160.284 597.429 160.484 597.597 160.652C597.765 160.812 597.965 160.936 598.197 161.024C598.429 161.112 598.681 161.156 598.953 161.156ZM599.265 160.28C598.929 160.28 598.653 160.192 598.437 160.016C598.229 159.84 598.125 159.56 598.125 159.176C598.125 158.92 598.169 158.704 598.257 158.528C598.345 158.344 598.501 158.192 598.725 158.072C598.949 157.944 599.249 157.844 599.625 157.772C600.009 157.692 600.489 157.632 601.065 157.592V159.524C600.745 159.804 600.445 160 600.165 160.112C599.885 160.224 599.585 160.28 599.265 160.28ZM607.107 161.156C607.483 161.156 607.839 161.08 608.175 160.928C608.519 160.768 608.819 160.54 609.075 160.244C609.339 159.94 609.547 159.568 609.699 159.128C609.859 158.688 609.939 158.188 609.939 157.628C609.939 157.132 609.883 156.68 609.771 156.272C609.659 155.864 609.491 155.516 609.267 155.228C609.051 154.94 608.779 154.716 608.451 154.556C608.131 154.396 607.759 154.316 607.335 154.316C606.975 154.316 606.619 154.408 606.267 154.592C605.915 154.768 605.591 154.984 605.295 155.24L605.331 154.064V151.448H604.239V161H605.115L605.211 160.328H605.247C605.535 160.592 605.839 160.796 606.159 160.94C606.487 161.084 606.803 161.156 607.107 161.156ZM606.927 160.244C606.711 160.244 606.463 160.196 606.183 160.1C605.903 159.996 605.619 159.816 605.331 159.56V156.14C605.643 155.844 605.943 155.62 606.231 155.468C606.519 155.316 606.803 155.24 607.083 155.24C607.395 155.24 607.659 155.3 607.875 155.42C608.091 155.532 608.267 155.696 608.403 155.912C608.539 156.12 608.639 156.372 608.703 156.668C608.767 156.964 608.799 157.292 608.799 157.652C608.799 158.06 608.751 158.424 608.655 158.744C608.567 159.064 608.439 159.336 608.271 159.56C608.103 159.776 607.903 159.944 607.671 160.064C607.447 160.184 607.199 160.244 606.927 160.244ZM614.284 161.156C614.74 161.156 615.14 161.092 615.484 160.964C615.836 160.828 616.156 160.668 616.444 160.484L616.048 159.764C615.808 159.924 615.556 160.052 615.292 160.148C615.028 160.236 614.736 160.28 614.416 160.28C613.792 160.28 613.284 160.076 612.892 159.668C612.508 159.26 612.296 158.704 612.256 158H616.648C616.664 157.92 616.676 157.828 616.684 157.724C616.692 157.612 616.696 157.496 616.696 157.376C616.696 156.912 616.636 156.492 616.516 156.116C616.404 155.74 616.236 155.42 616.012 155.156C615.796 154.884 615.528 154.676 615.208 154.532C614.888 154.388 614.52 154.316 614.104 154.316C613.728 154.316 613.36 154.396 613 154.556C612.648 154.716 612.336 154.944 612.064 155.24C611.792 155.536 611.572 155.896 611.404 156.32C611.244 156.744 611.164 157.22 611.164 157.748C611.164 158.284 611.244 158.764 611.404 159.188C611.572 159.612 611.796 159.972 612.076 160.268C612.356 160.556 612.684 160.776 613.06 160.928C613.444 161.08 613.852 161.156 614.284 161.156ZM615.736 157.22H612.244C612.276 156.9 612.348 156.616 612.46 156.368C612.572 156.112 612.712 155.9 612.88 155.732C613.048 155.556 613.236 155.424 613.444 155.336C613.66 155.24 613.884 155.192 614.116 155.192C614.628 155.192 615.024 155.36 615.304 155.696C615.592 156.032 615.736 156.54 615.736 157.22ZM618.301 151.448V161H619.393V151.448H618.301Z" fill="black"/>
<path d="M720.888 152.204H719.772V161H724.728V160.052H720.888V152.204ZM727.667 161.156C728.075 161.156 728.459 161.08 728.819 160.928C729.187 160.768 729.527 160.56 729.839 160.304H729.875L729.971 161H730.871V156.992C730.871 156.592 730.827 156.228 730.739 155.9C730.651 155.572 730.515 155.292 730.331 155.06C730.155 154.82 729.923 154.636 729.635 154.508C729.355 154.38 729.015 154.316 728.615 154.316C728.087 154.316 727.591 154.396 727.127 154.556C726.671 154.716 726.291 154.892 725.987 155.084L726.419 155.864C726.675 155.688 726.979 155.54 727.331 155.42C727.683 155.292 728.051 155.228 728.435 155.228C728.699 155.228 728.919 155.276 729.095 155.372C729.271 155.46 729.407 155.58 729.503 155.732C729.607 155.884 729.679 156.06 729.719 156.26C729.759 156.46 729.779 156.664 729.779 156.872C728.491 156.888 727.499 157.08 726.803 157.448C726.115 157.808 725.771 158.408 725.771 159.248C725.771 159.544 725.819 159.812 725.915 160.052C726.011 160.284 726.143 160.484 726.311 160.652C726.479 160.812 726.679 160.936 726.911 161.024C727.143 161.112 727.395 161.156 727.667 161.156ZM727.979 160.28C727.643 160.28 727.367 160.192 727.151 160.016C726.943 159.84 726.839 159.56 726.839 159.176C726.839 158.92 726.883 158.704 726.971 158.528C727.059 158.344 727.215 158.192 727.439 158.072C727.663 157.944 727.963 157.844 728.339 157.772C728.723 157.692 729.203 157.632 729.779 157.592V159.524C729.459 159.804 729.159 160 728.879 160.112C728.599 160.224 728.299 160.28 727.979 160.28ZM735.821 161.156C736.197 161.156 736.553 161.08 736.889 160.928C737.233 160.768 737.533 160.54 737.789 160.244C738.053 159.94 738.261 159.568 738.413 159.128C738.573 158.688 738.653 158.188 738.653 157.628C738.653 157.132 738.597 156.68 738.485 156.272C738.373 155.864 738.205 155.516 737.981 155.228C737.765 154.94 737.493 154.716 737.165 154.556C736.845 154.396 736.473 154.316 736.049 154.316C735.689 154.316 735.333 154.408 734.981 154.592C734.629 154.768 734.305 154.984 734.009 155.24L734.045 154.064V151.448H732.953V161H733.829L733.925 160.328H733.961C734.249 160.592 734.553 160.796 734.873 160.94C735.201 161.084 735.517 161.156 735.821 161.156ZM735.641 160.244C735.425 160.244 735.177 160.196 734.897 160.1C734.617 159.996 734.333 159.816 734.045 159.56V156.14C734.357 155.844 734.657 155.62 734.945 155.468C735.233 155.316 735.517 155.24 735.797 155.24C736.109 155.24 736.373 155.3 736.589 155.42C736.805 155.532 736.981 155.696 737.117 155.912C737.253 156.12 737.353 156.372 737.417 156.668C737.481 156.964 737.513 157.292 737.513 157.652C737.513 158.06 737.465 158.424 737.369 158.744C737.281 159.064 737.153 159.336 736.985 159.56C736.817 159.776 736.617 159.944 736.385 160.064C736.161 160.184 735.913 160.244 735.641 160.244ZM742.999 161.156C743.455 161.156 743.855 161.092 744.199 160.964C744.551 160.828 744.871 160.668 745.159 160.484L744.763 159.764C744.523 159.924 744.271 160.052 744.007 160.148C743.743 160.236 743.451 160.28 743.131 160.28C742.507 160.28 741.999 160.076 741.607 159.668C741.223 159.26 741.011 158.704 740.971 158H745.363C745.379 157.92 745.391 157.828 745.399 157.724C745.407 157.612 745.411 157.496 745.411 157.376C745.411 156.912 745.351 156.492 745.231 156.116C745.119 155.74 744.951 155.42 744.727 155.156C744.511 154.884 744.243 154.676 743.923 154.532C743.603 154.388 743.235 154.316 742.819 154.316C742.443 154.316 742.075 154.396 741.715 154.556C741.363 154.716 741.051 154.944 740.779 155.24C740.507 155.536 740.287 155.896 740.119 156.32C739.959 156.744 739.879 157.22 739.879 157.748C739.879 158.284 739.959 158.764 740.119 159.188C740.287 159.612 740.511 159.972 740.791 160.268C741.071 160.556 741.399 160.776 741.775 160.928C742.159 161.08 742.567 161.156 742.999 161.156ZM744.451 157.22H740.959C740.991 156.9 741.063 156.616 741.175 156.368C741.287 156.112 741.427 155.9 741.595 155.732C741.763 155.556 741.951 155.424 742.159 155.336C742.375 155.24 742.599 155.192 742.831 155.192C743.343 155.192 743.739 155.36 744.019 155.696C744.307 156.032 744.451 156.54 744.451 157.22ZM747.015 151.448V161H748.107V151.448H747.015Z" fill="black"/>
<path d="M849.602 152.204H848.486V161H853.442V160.052H849.602V152.204ZM856.382 161.156C856.79 161.156 857.174 161.08 857.534 160.928C857.902 160.768 858.242 160.56 858.554 160.304H858.59L858.686 161H859.586V156.992C859.586 156.592 859.542 156.228 859.454 155.9C859.366 155.572 859.23 155.292 859.046 155.06C858.87 154.82 858.638 154.636 858.35 154.508C858.07 154.38 857.73 154.316 857.33 154.316C856.802 154.316 856.306 154.396 855.842 154.556C855.386 154.716 855.006 154.892 854.702 155.084L855.134 155.864C855.39 155.688 855.694 155.54 856.046 155.42C856.398 155.292 856.766 155.228 857.15 155.228C857.414 155.228 857.634 155.276 857.81 155.372C857.986 155.46 858.122 155.58 858.218 155.732C858.322 155.884 858.394 156.06 858.434 156.26C858.474 156.46 858.494 156.664 858.494 156.872C857.206 156.888 856.214 157.08 855.518 157.448C854.83 157.808 854.486 158.408 854.486 159.248C854.486 159.544 854.534 159.812 854.63 160.052C854.726 160.284 854.858 160.484 855.026 160.652C855.194 160.812 855.394 160.936 855.626 161.024C855.858 161.112 856.11 161.156 856.382 161.156ZM856.694 160.28C856.358 160.28 856.082 160.192 855.866 160.016C855.658 159.84 855.554 159.56 855.554 159.176C855.554 158.92 855.598 158.704 855.686 158.528C855.774 158.344 855.93 158.192 856.154 158.072C856.378 157.944 856.678 157.844 857.054 157.772C857.438 157.692 857.918 157.632 858.494 157.592V159.524C858.174 159.804 857.874 160 857.594 160.112C857.314 160.224 857.014 160.28 856.694 160.28ZM864.535 161.156C864.911 161.156 865.267 161.08 865.603 160.928C865.947 160.768 866.247 160.54 866.503 160.244C866.767 159.94 866.975 159.568 867.127 159.128C867.287 158.688 867.367 158.188 867.367 157.628C867.367 157.132 867.311 156.68 867.199 156.272C867.087 155.864 866.919 155.516 866.695 155.228C866.479 154.94 866.207 154.716 865.879 154.556C865.559 154.396 865.187 154.316 864.763 154.316C864.403 154.316 864.047 154.408 863.695 154.592C863.343 154.768 863.019 154.984 862.723 155.24L862.759 154.064V151.448H861.667V161H862.543L862.639 160.328H862.675C862.963 160.592 863.267 160.796 863.587 160.94C863.915 161.084 864.231 161.156 864.535 161.156ZM864.355 160.244C864.139 160.244 863.891 160.196 863.611 160.1C863.331 159.996 863.047 159.816 862.759 159.56V156.14C863.071 155.844 863.371 155.62 863.659 155.468C863.947 155.316 864.231 155.24 864.511 155.24C864.823 155.24 865.087 155.3 865.303 155.42C865.519 155.532 865.695 155.696 865.831 155.912C865.967 156.12 866.067 156.372 866.131 156.668C866.195 156.964 866.227 157.292 866.227 157.652C866.227 158.06 866.179 158.424 866.083 158.744C865.995 159.064 865.867 159.336 865.699 159.56C865.531 159.776 865.331 159.944 865.099 160.064C864.875 160.184 864.627 160.244 864.355 160.244ZM871.713 161.156C872.169 161.156 872.569 161.092 872.913 160.964C873.265 160.828 873.585 160.668 873.873 160.484L873.477 159.764C873.237 159.924 872.985 160.052 872.721 160.148C872.457 160.236 872.165 160.28 871.845 160.28C871.221 160.28 870.713 160.076 870.321 159.668C869.937 159.26 869.725 158.704 869.685 158H874.077C874.093 157.92 874.105 157.828 874.113 157.724C874.121 157.612 874.125 157.496 874.125 157.376C874.125 156.912 874.065 156.492 873.945 156.116C873.833 155.74 873.665 155.42 873.441 155.156C873.225 154.884 872.957 154.676 872.637 154.532C872.317 154.388 871.949 154.316 871.533 154.316C871.157 154.316 870.789 154.396 870.429 154.556C870.077 154.716 869.765 154.944 869.493 155.24C869.221 155.536 869.001 155.896 868.833 156.32C868.673 156.744 868.593 157.22 868.593 157.748C868.593 158.284 868.673 158.764 868.833 159.188C869.001 159.612 869.225 159.972 869.505 160.268C869.785 160.556 870.113 160.776 870.489 160.928C870.873 161.08 871.281 161.156 871.713 161.156ZM873.165 157.22H869.673C869.705 156.9 869.777 156.616 869.889 156.368C870.001 156.112 870.141 155.9 870.309 155.732C870.477 155.556 870.665 155.424 870.873 155.336C871.089 155.24 871.313 155.192 871.545 155.192C872.057 155.192 872.453 155.36 872.733 155.696C873.021 156.032 873.165 156.54 873.165 157.22ZM875.729 151.448V161H876.821V151.448H875.729Z" fill="black"/>
<path d="M978.316 152.204H977.2V161H982.156V160.052H978.316V152.204ZM985.096 161.156C985.504 161.156 985.888 161.08 986.248 160.928C986.616 160.768 986.956 160.56 987.268 160.304H987.304L987.4 161H988.3V156.992C988.3 156.592 988.256 156.228 988.168 155.9C988.08 155.572 987.944 155.292 987.76 155.06C987.584 154.82 987.352 154.636 987.064 154.508C986.784 154.38 986.444 154.316 986.044 154.316C985.516 154.316 985.02 154.396 984.556 154.556C984.1 154.716 983.72 154.892 983.416 155.084L983.848 155.864C984.104 155.688 984.408 155.54 984.76 155.42C985.112 155.292 985.48 155.228 985.864 155.228C986.128 155.228 986.348 155.276 986.524 155.372C986.7 155.46 986.836 155.58 986.932 155.732C987.036 155.884 987.108 156.06 987.148 156.26C987.188 156.46 987.208 156.664 987.208 156.872C985.92 156.888 984.928 157.08 984.232 157.448C983.544 157.808 983.2 158.408 983.2 159.248C983.2 159.544 983.248 159.812 983.344 160.052C983.44 160.284 983.572 160.484 983.74 160.652C983.908 160.812 984.108 160.936 984.34 161.024C984.572 161.112 984.824 161.156 985.096 161.156ZM985.408 160.28C985.072 160.28 984.796 160.192 984.58 160.016C984.372 159.84 984.268 159.56 984.268 159.176C984.268 158.92 984.312 158.704 984.4 158.528C984.488 158.344 984.644 158.192 984.868 158.072C985.092 157.944 985.392 157.844 985.768 157.772C986.152 157.692 986.632 157.632 987.208 157.592V159.524C986.888 159.804 986.588 160 986.308 160.112C986.028 160.224 985.728 160.28 985.408 160.28ZM993.249 161.156C993.625 161.156 993.981 161.08 994.317 160.928C994.661 160.768 994.961 160.54 995.217 160.244C995.481 159.94 995.689 159.568 995.841 159.128C996.001 158.688 996.081 158.188 996.081 157.628C996.081 157.132 996.025 156.68 995.913 156.272C995.801 155.864 995.633 155.516 995.409 155.228C995.193 154.94 994.921 154.716 994.593 154.556C994.273 154.396 993.901 154.316 993.477 154.316C993.117 154.316 992.761 154.408 992.409 154.592C992.057 154.768 991.733 154.984 991.437 155.24L991.473 154.064V151.448H990.381V161H991.257L991.353 160.328H991.389C991.677 160.592 991.981 160.796 992.301 160.94C992.629 161.084 992.945 161.156 993.249 161.156ZM993.069 160.244C992.853 160.244 992.605 160.196 992.325 160.1C992.045 159.996 991.761 159.816 991.473 159.56V156.14C991.785 155.844 992.085 155.62 992.373 155.468C992.661 155.316 992.945 155.24 993.225 155.24C993.537 155.24 993.801 155.3 994.017 155.42C994.233 155.532 994.409 155.696 994.545 155.912C994.681 156.12 994.781 156.372 994.845 156.668C994.909 156.964 994.941 157.292 994.941 157.652C994.941 158.06 994.893 158.424 994.797 158.744C994.709 159.064 994.581 159.336 994.413 159.56C994.245 159.776 994.045 159.944 993.813 160.064C993.589 160.184 993.341 160.244 993.069 160.244ZM1000.43 161.156C1000.88 161.156 1001.28 161.092 1001.63 160.964C1001.98 160.828 1002.3 160.668 1002.59 160.484L1002.19 159.764C1001.95 159.924 1001.7 160.052 1001.44 160.148C1001.17 160.236 1000.88 160.28 1000.56 160.28C999.935 160.28 999.427 160.076 999.035 159.668C998.651 159.26 998.439 158.704 998.399 158H1002.79C1002.81 157.92 1002.82 157.828 1002.83 157.724C1002.84 157.612 1002.84 157.496 1002.84 157.376C1002.84 156.912 1002.78 156.492 1002.66 156.116C1002.55 155.74 1002.38 155.42 1002.16 155.156C1001.94 154.884 1001.67 154.676 1001.35 154.532C1001.03 154.388 1000.66 154.316 1000.25 154.316C999.871 154.316 999.503 154.396 999.143 154.556C998.791 154.716 998.479 154.944 998.207 155.24C997.935 155.536 997.715 155.896 997.547 156.32C997.387 156.744 997.307 157.22 997.307 157.748C997.307 158.284 997.387 158.764 997.547 159.188C997.715 159.612 997.939 159.972 998.219 160.268C998.499 160.556 998.827 160.776 999.203 160.928C999.587 161.08 999.995 161.156 1000.43 161.156ZM1001.88 157.22H998.387C998.419 156.9 998.491 156.616 998.603 156.368C998.715 156.112 998.855 155.9 999.023 155.732C999.191 155.556 999.379 155.424 999.587 155.336C999.803 155.24 1000.03 155.192 1000.26 155.192C1000.77 155.192 1001.17 155.36 1001.45 155.696C1001.74 156.032 1001.88 156.54 1001.88 157.22ZM1004.44 151.448V161H1005.54V151.448H1004.44Z" fill="black"/>
</svg>
