<svg width="892" height="164" viewBox="0 0 892 164" fill="none" xmlns="http://www.w3.org/2000/svg">
<path d="M8.86669 13V12.112H7.13869V4.156H6.26269L3.89869 6.196L4.48669 6.904L6.08269 5.476C6.07469 5.516 6.07069 5.56 6.07069 5.608V12.112H4.11469V13H8.86669ZM16.5311 8.62C16.5311 7.836 16.4471 7.16 16.2791 6.592C16.1111 6.016 15.8831 5.54 15.5951 5.164C15.3071 4.788 14.9671 4.512 14.5751 4.336C14.1831 4.152 13.7591 4.06 13.3031 4.06C12.8471 4.06 12.4231 4.152 12.0311 4.336C11.6391 4.512 11.2951 4.788 10.9991 5.164C10.7111 5.54 10.4831 6.016 10.3151 6.592C10.1551 7.16 10.0751 7.836 10.0751 8.62C10.0751 9.396 10.1551 10.072 10.3151 10.648C10.4831 11.216 10.7111 11.688 10.9991 12.064C11.2951 12.44 11.6391 12.72 12.0311 12.904C12.4231 13.08 12.8471 13.168 13.3031 13.168C13.7591 13.168 14.1831 13.08 14.5751 12.904C14.9671 12.72 15.3071 12.44 15.5951 12.064C15.8831 11.688 16.1111 11.216 16.2791 10.648C16.4471 10.072 16.5311 9.396 16.5311 8.62ZM15.4271 8.62C15.4271 9.3 15.3671 9.876 15.2471 10.348C15.1351 10.812 14.9791 11.188 14.7791 11.476C14.5871 11.764 14.3631 11.972 14.1071 12.1C13.8511 12.22 13.5831 12.28 13.3031 12.28C13.0231 12.28 12.7551 12.22 12.4991 12.1C12.2431 11.972 12.0191 11.764 11.8271 11.476C11.6351 11.188 11.4791 10.812 11.3591 10.348C11.2471 9.876 11.1911 9.3 11.1911 8.62C11.1911 7.932 11.2471 7.356 11.3591 6.892C11.4791 6.42 11.6351 6.044 11.8271 5.764C12.0191 5.476 12.2431 5.272 12.4991 5.152C12.7551 5.024 13.0231 4.96 13.3031 4.96C13.5831 4.96 13.8511 5.024 14.1071 5.152C14.3631 5.272 14.5871 5.476 14.7791 5.764C14.9791 6.044 15.1351 6.42 15.2471 6.892C15.3671 7.356 15.4271 7.932 15.4271 8.62ZM23.6796 8.62C23.6796 7.836 23.5956 7.16 23.4276 6.592C23.2596 6.016 23.0316 5.54 22.7436 5.164C22.4556 4.788 22.1156 4.512 21.7236 4.336C21.3316 4.152 20.9076 4.06 20.4516 4.06C19.9956 4.06 19.5716 4.152 19.1796 4.336C18.7876 4.512 18.4436 4.788 18.1476 5.164C17.8596 5.54 17.6316 6.016 17.4636 6.592C17.3036 7.16 17.2236 7.836 17.2236 8.62C17.2236 9.396 17.3036 10.072 17.4636 10.648C17.6316 11.216 17.8596 11.688 18.1476 12.064C18.4436 12.44 18.7876 12.72 19.1796 12.904C19.5716 13.08 19.9956 13.168 20.4516 13.168C20.9076 13.168 21.3316 13.08 21.7236 12.904C22.1156 12.72 22.4556 12.44 22.7436 12.064C23.0316 11.688 23.2596 11.216 23.4276 10.648C23.5956 10.072 23.6796 9.396 23.6796 8.62ZM22.5756 8.62C22.5756 9.3 22.5156 9.876 22.3956 10.348C22.2836 10.812 22.1276 11.188 21.9276 11.476C21.7356 11.764 21.5116 11.972 21.2556 12.1C20.9996 12.22 20.7316 12.28 20.4516 12.28C20.1716 12.28 19.9036 12.22 19.6476 12.1C19.3916 11.972 19.1676 11.764 18.9756 11.476C18.7836 11.188 18.6276 10.812 18.5076 10.348C18.3956 9.876 18.3396 9.3 18.3396 8.62C18.3396 7.932 18.3956 7.356 18.5076 6.892C18.6276 6.42 18.7836 6.044 18.9756 5.764C19.1676 5.476 19.3916 5.272 19.6476 5.152C19.9036 5.024 20.1716 4.96 20.4516 4.96C20.7316 4.96 20.9996 5.024 21.2556 5.152C21.5116 5.272 21.7356 5.476 21.9276 5.764C22.1276 6.044 22.2836 6.42 22.3956 6.892C22.5156 7.356 22.5756 7.932 22.5756 8.62Z" fill="black"/>
<path d="M14.5631 34.616C15.5231 34.264 16.0031 33.576 16.0031 32.552C16.0031 32.224 15.9351 31.92 15.7991 31.64C15.6711 31.352 15.4871 31.1 15.2471 30.884C15.0071 30.668 14.7191 30.5 14.3831 30.38C14.0471 30.252 13.6791 30.188 13.2791 30.188C12.8631 30.188 12.4871 30.252 12.1511 30.38C11.8151 30.5 11.5271 30.668 11.2871 30.884C11.0551 31.1 10.8751 31.352 10.7471 31.64C10.6191 31.92 10.5551 32.224 10.5551 32.552C10.5551 33.056 10.6751 33.484 10.9151 33.836C11.1631 34.18 11.5151 34.44 11.9711 34.616C11.4191 34.768 10.9911 35.032 10.6871 35.408C10.3831 35.784 10.2311 36.26 10.2311 36.836C10.2311 37.228 10.3031 37.584 10.4471 37.904C10.5991 38.216 10.8071 38.484 11.0711 38.708C11.3431 38.932 11.6671 39.104 12.0431 39.224C12.4191 39.344 12.8311 39.404 13.2791 39.404C13.7271 39.404 14.1351 39.344 14.5031 39.224C14.8711 39.104 15.1871 38.932 15.4511 38.708C15.7231 38.484 15.9311 38.216 16.0751 37.904C16.2271 37.584 16.3031 37.228 16.3031 36.836C16.3031 36.26 16.1511 35.784 15.8471 35.408C15.5511 35.032 15.1231 34.768 14.5631 34.616ZM13.2791 31.064C13.5511 31.064 13.7871 31.104 13.9871 31.184C14.1871 31.264 14.3511 31.372 14.4791 31.508C14.6151 31.644 14.7151 31.808 14.7791 32C14.8511 32.184 14.8871 32.38 14.8871 32.588C14.8871 32.788 14.8591 32.984 14.8031 33.176C14.7471 33.368 14.6551 33.54 14.5271 33.692C14.3991 33.844 14.2311 33.968 14.0231 34.064C13.8231 34.152 13.5751 34.196 13.2791 34.196C12.9751 34.196 12.7191 34.152 12.5111 34.064C12.3031 33.968 12.1351 33.844 12.0071 33.692C11.8791 33.54 11.7871 33.368 11.7311 33.176C11.6751 32.984 11.6471 32.788 11.6471 32.588C11.6471 32.38 11.6791 32.184 11.7431 32C11.8151 31.808 11.9151 31.644 12.0431 31.508C12.1791 31.372 12.3511 31.264 12.5591 31.184C12.7671 31.104 13.0071 31.064 13.2791 31.064ZM13.2791 38.504C12.6791 38.504 12.2151 38.352 11.8871 38.048C11.5591 37.736 11.3951 37.328 11.3951 36.824C11.3951 36.512 11.4431 36.248 11.5391 36.032C11.6431 35.808 11.7831 35.628 11.9591 35.492C12.1351 35.348 12.3351 35.244 12.5591 35.18C12.7911 35.108 13.0311 35.072 13.2791 35.072C13.5271 35.072 13.7631 35.108 13.9871 35.18C14.2111 35.244 14.4071 35.348 14.5751 35.492C14.7511 35.628 14.8871 35.808 14.9831 36.032C15.0871 36.248 15.1391 36.512 15.1391 36.824C15.1391 37.328 14.9791 37.736 14.6591 38.048C14.3391 38.352 13.8791 38.504 13.2791 38.504ZM23.6796 34.82C23.6796 34.036 23.5956 33.36 23.4276 32.792C23.2596 32.216 23.0316 31.74 22.7436 31.364C22.4556 30.988 22.1156 30.712 21.7236 30.536C21.3316 30.352 20.9076 30.26 20.4516 30.26C19.9956 30.26 19.5716 30.352 19.1796 30.536C18.7876 30.712 18.4436 30.988 18.1476 31.364C17.8596 31.74 17.6316 32.216 17.4636 32.792C17.3036 33.36 17.2236 34.036 17.2236 34.82C17.2236 35.596 17.3036 36.272 17.4636 36.848C17.6316 37.416 17.8596 37.888 18.1476 38.264C18.4436 38.64 18.7876 38.92 19.1796 39.104C19.5716 39.28 19.9956 39.368 20.4516 39.368C20.9076 39.368 21.3316 39.28 21.7236 39.104C22.1156 38.92 22.4556 38.64 22.7436 38.264C23.0316 37.888 23.2596 37.416 23.4276 36.848C23.5956 36.272 23.6796 35.596 23.6796 34.82ZM22.5756 34.82C22.5756 35.5 22.5156 36.076 22.3956 36.548C22.2836 37.012 22.1276 37.388 21.9276 37.676C21.7356 37.964 21.5116 38.172 21.2556 38.3C20.9996 38.42 20.7316 38.48 20.4516 38.48C20.1716 38.48 19.9036 38.42 19.6476 38.3C19.3916 38.172 19.1676 37.964 18.9756 37.676C18.7836 37.388 18.6276 37.012 18.5076 36.548C18.3956 36.076 18.3396 35.5 18.3396 34.82C18.3396 34.132 18.3956 33.556 18.5076 33.092C18.6276 32.62 18.7836 32.244 18.9756 31.964C19.1676 31.676 19.3916 31.472 19.6476 31.352C19.9036 31.224 20.1716 31.16 20.4516 31.16C20.7316 31.16 20.9996 31.224 21.2556 31.352C21.5116 31.472 21.7356 31.676 21.9276 31.964C22.1276 32.244 22.2836 32.62 22.3956 33.092C22.5156 33.556 22.5756 34.132 22.5756 34.82Z" fill="black"/>
<path d="M12.5951 59.88L15.2471 56.556H13.8671L11.4191 59.856C11.0351 60.36 10.7551 60.836 10.5791 61.284C10.4111 61.724 10.3271 62.14 10.3271 62.532C10.3271 62.988 10.3951 63.404 10.5311 63.78C10.6751 64.148 10.8751 64.464 11.1311 64.728C11.3871 64.992 11.6951 65.196 12.0551 65.34C12.4231 65.484 12.8311 65.556 13.2791 65.556C13.7271 65.556 14.1391 65.484 14.5151 65.34C14.8911 65.188 15.2111 64.98 15.4751 64.716C15.7471 64.452 15.9551 64.144 16.0991 63.792C16.2511 63.44 16.3271 63.06 16.3271 62.652C16.3271 62.228 16.2551 61.852 16.1111 61.524C15.9751 61.196 15.7871 60.92 15.5471 60.696C15.3071 60.464 15.0271 60.292 14.7071 60.18C14.3871 60.06 14.0471 60 13.6871 60C13.3911 60 13.1191 60.04 12.8711 60.12C12.6231 60.2 12.3911 60.312 12.1751 60.456C12.2151 60.408 12.2671 60.336 12.3311 60.24C12.4031 60.144 12.4911 60.024 12.5951 59.88ZM13.2551 64.632C12.6551 64.632 12.1951 64.456 11.8751 64.104C11.5551 63.752 11.3951 63.288 11.3951 62.712C11.3951 62.464 11.4391 62.228 11.5271 62.004C11.6231 61.78 11.7551 61.584 11.9231 61.416C12.0911 61.24 12.2911 61.104 12.5231 61.008C12.7631 60.904 13.0311 60.852 13.3271 60.852C13.5991 60.852 13.8511 60.896 14.0831 60.984C14.3151 61.072 14.5151 61.196 14.6831 61.356C14.8511 61.516 14.9831 61.716 15.0791 61.956C15.1751 62.188 15.2231 62.448 15.2231 62.736C15.2231 63.008 15.1751 63.26 15.0791 63.492C14.9831 63.724 14.8471 63.924 14.6711 64.092C14.5031 64.26 14.2951 64.392 14.0471 64.488C13.8071 64.584 13.5431 64.632 13.2551 64.632ZM23.6796 61.02C23.6796 60.236 23.5956 59.56 23.4276 58.992C23.2596 58.416 23.0316 57.94 22.7436 57.564C22.4556 57.188 22.1156 56.912 21.7236 56.736C21.3316 56.552 20.9076 56.46 20.4516 56.46C19.9956 56.46 19.5716 56.552 19.1796 56.736C18.7876 56.912 18.4436 57.188 18.1476 57.564C17.8596 57.94 17.6316 58.416 17.4636 58.992C17.3036 59.56 17.2236 60.236 17.2236 61.02C17.2236 61.796 17.3036 62.472 17.4636 63.048C17.6316 63.616 17.8596 64.088 18.1476 64.464C18.4436 64.84 18.7876 65.12 19.1796 65.304C19.5716 65.48 19.9956 65.568 20.4516 65.568C20.9076 65.568 21.3316 65.48 21.7236 65.304C22.1156 65.12 22.4556 64.84 22.7436 64.464C23.0316 64.088 23.2596 63.616 23.4276 63.048C23.5956 62.472 23.6796 61.796 23.6796 61.02ZM22.5756 61.02C22.5756 61.7 22.5156 62.276 22.3956 62.748C22.2836 63.212 22.1276 63.588 21.9276 63.876C21.7356 64.164 21.5116 64.372 21.2556 64.5C20.9996 64.62 20.7316 64.68 20.4516 64.68C20.1716 64.68 19.9036 64.62 19.6476 64.5C19.3916 64.372 19.1676 64.164 18.9756 63.876C18.7836 63.588 18.6276 63.212 18.5076 62.748C18.3956 62.276 18.3396 61.7 18.3396 61.02C18.3396 60.332 18.3956 59.756 18.5076 59.292C18.6276 58.82 18.7836 58.444 18.9756 58.164C19.1676 57.876 19.3916 57.672 19.6476 57.552C19.9036 57.424 20.1716 57.36 20.4516 57.36C20.7316 57.36 20.9996 57.424 21.2556 57.552C21.5116 57.672 21.7356 57.876 21.9276 58.164C22.1276 58.444 22.2836 58.82 22.3956 59.292C22.5156 59.756 22.5756 60.332 22.5756 61.02Z" fill="black"/>
<path d="M16.6631 89.26V88.396H15.3311V82.708H14.2991L9.96713 88.444V89.26H14.3591V91.6H15.3311V89.26H16.6631ZM14.3591 84.724V88.396H11.1671L14.4071 83.98C14.3911 84.108 14.3791 84.24 14.3711 84.376C14.3631 84.504 14.3591 84.62 14.3591 84.724ZM23.6796 87.22C23.6796 86.436 23.5956 85.76 23.4276 85.192C23.2596 84.616 23.0316 84.14 22.7436 83.764C22.4556 83.388 22.1156 83.112 21.7236 82.936C21.3316 82.752 20.9076 82.66 20.4516 82.66C19.9956 82.66 19.5716 82.752 19.1796 82.936C18.7876 83.112 18.4436 83.388 18.1476 83.764C17.8596 84.14 17.6316 84.616 17.4636 85.192C17.3036 85.76 17.2236 86.436 17.2236 87.22C17.2236 87.996 17.3036 88.672 17.4636 89.248C17.6316 89.816 17.8596 90.288 18.1476 90.664C18.4436 91.04 18.7876 91.32 19.1796 91.504C19.5716 91.68 19.9956 91.768 20.4516 91.768C20.9076 91.768 21.3316 91.68 21.7236 91.504C22.1156 91.32 22.4556 91.04 22.7436 90.664C23.0316 90.288 23.2596 89.816 23.4276 89.248C23.5956 88.672 23.6796 87.996 23.6796 87.22ZM22.5756 87.22C22.5756 87.9 22.5156 88.476 22.3956 88.948C22.2836 89.412 22.1276 89.788 21.9276 90.076C21.7356 90.364 21.5116 90.572 21.2556 90.7C20.9996 90.82 20.7316 90.88 20.4516 90.88C20.1716 90.88 19.9036 90.82 19.6476 90.7C19.3916 90.572 19.1676 90.364 18.9756 90.076C18.7836 89.788 18.6276 89.412 18.5076 88.948C18.3956 88.476 18.3396 87.9 18.3396 87.22C18.3396 86.532 18.3956 85.956 18.5076 85.492C18.6276 85.02 18.7836 84.644 18.9756 84.364C19.1676 84.076 19.3916 83.872 19.6476 83.752C19.9036 83.624 20.1716 83.56 20.4516 83.56C20.7316 83.56 20.9996 83.624 21.2556 83.752C21.5116 83.872 21.7356 84.076 21.9276 84.364C22.1276 84.644 22.2836 85.02 22.3956 85.492C22.5156 85.956 22.5756 86.532 22.5756 87.22Z" fill="black"/>
<path d="M16.2431 117.8V116.828H12.7751C12.6231 116.828 12.4591 116.84 12.2831 116.864C12.1151 116.888 11.9471 116.924 11.7791 116.972L14.2391 114.536C14.4871 114.288 14.7231 114.044 14.9471 113.804C15.1711 113.556 15.3671 113.304 15.5351 113.048C15.7031 112.784 15.8351 112.512 15.9311 112.232C16.0271 111.952 16.0751 111.648 16.0751 111.32C16.0751 110.928 16.0071 110.58 15.8711 110.276C15.7351 109.972 15.5471 109.716 15.3071 109.508C15.0671 109.292 14.7831 109.128 14.4551 109.016C14.1351 108.904 13.7871 108.848 13.4111 108.848C13.0351 108.848 12.6831 108.904 12.3551 109.016C12.0271 109.12 11.7351 109.28 11.4791 109.496C11.2311 109.704 11.0231 109.964 10.8551 110.276C10.6871 110.58 10.5751 110.936 10.5191 111.344L11.5991 111.524C11.5991 111.268 11.6431 111.036 11.7311 110.828C11.8191 110.62 11.9391 110.44 12.0911 110.288C12.2511 110.128 12.4391 110.008 12.6551 109.928C12.8711 109.84 13.1031 109.796 13.3511 109.796C13.8071 109.796 14.1871 109.924 14.4911 110.18C14.7951 110.428 14.9551 110.816 14.9711 111.344C14.9711 111.6 14.9311 111.844 14.8511 112.076C14.7711 112.3 14.6591 112.524 14.5151 112.748C14.3791 112.972 14.2111 113.196 14.0111 113.42C13.8191 113.636 13.6071 113.868 13.3751 114.116L10.3391 117.032V117.8H16.2431ZM23.6796 113.42C23.6796 112.636 23.5956 111.96 23.4276 111.392C23.2596 110.816 23.0316 110.34 22.7436 109.964C22.4556 109.588 22.1156 109.312 21.7236 109.136C21.3316 108.952 20.9076 108.86 20.4516 108.86C19.9956 108.86 19.5716 108.952 19.1796 109.136C18.7876 109.312 18.4436 109.588 18.1476 109.964C17.8596 110.34 17.6316 110.816 17.4636 111.392C17.3036 111.96 17.2236 112.636 17.2236 113.42C17.2236 114.196 17.3036 114.872 17.4636 115.448C17.6316 116.016 17.8596 116.488 18.1476 116.864C18.4436 117.24 18.7876 117.52 19.1796 117.704C19.5716 117.88 19.9956 117.968 20.4516 117.968C20.9076 117.968 21.3316 117.88 21.7236 117.704C22.1156 117.52 22.4556 117.24 22.7436 116.864C23.0316 116.488 23.2596 116.016 23.4276 115.448C23.5956 114.872 23.6796 114.196 23.6796 113.42ZM22.5756 113.42C22.5756 114.1 22.5156 114.676 22.3956 115.148C22.2836 115.612 22.1276 115.988 21.9276 116.276C21.7356 116.564 21.5116 116.772 21.2556 116.9C20.9996 117.02 20.7316 117.08 20.4516 117.08C20.1716 117.08 19.9036 117.02 19.6476 116.9C19.3916 116.772 19.1676 116.564 18.9756 116.276C18.7836 115.988 18.6276 115.612 18.5076 115.148C18.3956 114.676 18.3396 114.1 18.3396 113.42C18.3396 112.732 18.3956 112.156 18.5076 111.692C18.6276 111.22 18.7836 110.844 18.9756 110.564C19.1676 110.276 19.3916 110.072 19.6476 109.952C19.9036 109.824 20.1716 109.76 20.4516 109.76C20.7316 109.76 20.9996 109.824 21.2556 109.952C21.5116 110.072 21.7356 110.276 21.9276 110.564C22.1276 110.844 22.2836 111.22 22.3956 111.692C22.5156 112.156 22.5756 112.732 22.5756 113.42Z" fill="black"/>
<path d="M23.6796 139.62C23.6796 138.836 23.5956 138.16 23.4276 137.592C23.2596 137.016 23.0316 136.54 22.7436 136.164C22.4556 135.788 22.1156 135.512 21.7236 135.336C21.3316 135.152 20.9076 135.06 20.4516 135.06C19.9956 135.06 19.5716 135.152 19.1796 135.336C18.7876 135.512 18.4436 135.788 18.1476 136.164C17.8596 136.54 17.6316 137.016 17.4636 137.592C17.3036 138.16 17.2236 138.836 17.2236 139.62C17.2236 140.396 17.3036 141.072 17.4636 141.648C17.6316 142.216 17.8596 142.688 18.1476 143.064C18.4436 143.44 18.7876 143.72 19.1796 143.904C19.5716 144.08 19.9956 144.168 20.4516 144.168C20.9076 144.168 21.3316 144.08 21.7236 143.904C22.1156 143.72 22.4556 143.44 22.7436 143.064C23.0316 142.688 23.2596 142.216 23.4276 141.648C23.5956 141.072 23.6796 140.396 23.6796 139.62ZM22.5756 139.62C22.5756 140.3 22.5156 140.876 22.3956 141.348C22.2836 141.812 22.1276 142.188 21.9276 142.476C21.7356 142.764 21.5116 142.972 21.2556 143.1C20.9996 143.22 20.7316 143.28 20.4516 143.28C20.1716 143.28 19.9036 143.22 19.6476 143.1C19.3916 142.972 19.1676 142.764 18.9756 142.476C18.7836 142.188 18.6276 141.812 18.5076 141.348C18.3956 140.876 18.3396 140.3 18.3396 139.62C18.3396 138.932 18.3956 138.356 18.5076 137.892C18.6276 137.42 18.7836 137.044 18.9756 136.764C19.1676 136.476 19.3916 136.272 19.6476 136.152C19.9036 136.024 20.1716 135.96 20.4516 135.96C20.7316 135.96 20.9996 136.024 21.2556 136.152C21.5116 136.272 21.7356 136.476 21.9276 136.764C22.1276 137.044 22.2836 137.42 22.3956 137.892C22.5156 138.356 22.5756 138.932 22.5756 139.62Z" fill="black"/>
<mask id="path-7-inside-1_23_1006" fill="white">
<path d="M34 1H892V147H34V1Z"/>
</mask>
<path d="M34 147H33V148H34V147ZM892 146H34V148H892V146ZM35 147V1H33V147H35Z" fill="#D2D3D6" mask="url(#path-7-inside-1_23_1006)"/>
<rect x="54" y="70" width="53.25" height="77" fill="#0068E6"/>
<rect x="163.25" y="40" width="53.25" height="107" fill="#0068E6"/>
<rect x="272.5" y="35" width="53.25" height="112" fill="#0068E6"/>
<rect x="381.75" y="63" width="53.25" height="84" fill="#0068E6"/>
<rect x="491" y="103" width="53.25" height="44" fill="#0068E6"/>
<rect x="600.25" y="54" width="53.25" height="93" fill="#0068E6"/>
<rect x="709.5" y="54" width="53.25" height="93" fill="#0068E6"/>
<rect x="818.725" y="54.0331" width="53.25" height="93" transform="rotate(-0.071134 818.725 54.0331)" fill="#0068E6"/>
<path d="M67.316 152.204H66.2V161H71.156V160.052H67.316V152.204ZM74.0959 161.156C74.5039 161.156 74.8879 161.08 75.2479 160.928C75.6159 160.768 75.9559 160.56 76.2679 160.304H76.3039L76.3999 161H77.2999V156.992C77.2999 156.592 77.2559 156.228 77.1679 155.9C77.0799 155.572 76.9439 155.292 76.7599 155.06C76.5839 154.82 76.3519 154.636 76.0639 154.508C75.7839 154.38 75.4439 154.316 75.0439 154.316C74.5159 154.316 74.0199 154.396 73.5559 154.556C73.0999 154.716 72.7199 154.892 72.4159 155.084L72.8479 155.864C73.1039 155.688 73.4079 155.54 73.7599 155.42C74.1119 155.292 74.4799 155.228 74.8639 155.228C75.1279 155.228 75.3479 155.276 75.5239 155.372C75.6999 155.46 75.8359 155.58 75.9319 155.732C76.0359 155.884 76.1079 156.06 76.1479 156.26C76.1879 156.46 76.2079 156.664 76.2079 156.872C74.9199 156.888 73.9279 157.08 73.2319 157.448C72.5439 157.808 72.1999 158.408 72.1999 159.248C72.1999 159.544 72.2479 159.812 72.3439 160.052C72.4399 160.284 72.5719 160.484 72.7399 160.652C72.9079 160.812 73.1079 160.936 73.3399 161.024C73.5719 161.112 73.8239 161.156 74.0959 161.156ZM74.4079 160.28C74.0719 160.28 73.7959 160.192 73.5799 160.016C73.3719 159.84 73.2679 159.56 73.2679 159.176C73.2679 158.92 73.3119 158.704 73.3999 158.528C73.4879 158.344 73.6439 158.192 73.8679 158.072C74.0919 157.944 74.3919 157.844 74.7679 157.772C75.1519 157.692 75.6319 157.632 76.2079 157.592V159.524C75.8879 159.804 75.5879 160 75.3079 160.112C75.0279 160.224 74.7279 160.28 74.4079 160.28ZM82.2493 161.156C82.6253 161.156 82.9813 161.08 83.3173 160.928C83.6613 160.768 83.9613 160.54 84.2173 160.244C84.4813 159.94 84.6893 159.568 84.8413 159.128C85.0013 158.688 85.0813 158.188 85.0813 157.628C85.0813 157.132 85.0253 156.68 84.9133 156.272C84.8013 155.864 84.6333 155.516 84.4093 155.228C84.1933 154.94 83.9213 154.716 83.5933 154.556C83.2733 154.396 82.9013 154.316 82.4773 154.316C82.1173 154.316 81.7613 154.408 81.4093 154.592C81.0573 154.768 80.7333 154.984 80.4373 155.24L80.4733 154.064V151.448H79.3813V161H80.2573L80.3533 160.328H80.3893C80.6773 160.592 80.9813 160.796 81.3013 160.94C81.6293 161.084 81.9453 161.156 82.2493 161.156ZM82.0693 160.244C81.8533 160.244 81.6053 160.196 81.3253 160.1C81.0453 159.996 80.7613 159.816 80.4733 159.56V156.14C80.7853 155.844 81.0853 155.62 81.3733 155.468C81.6613 155.316 81.9453 155.24 82.2253 155.24C82.5373 155.24 82.8013 155.3 83.0173 155.42C83.2333 155.532 83.4093 155.696 83.5453 155.912C83.6813 156.12 83.7813 156.372 83.8453 156.668C83.9093 156.964 83.9413 157.292 83.9413 157.652C83.9413 158.06 83.8933 158.424 83.7973 158.744C83.7093 159.064 83.5813 159.336 83.4133 159.56C83.2453 159.776 83.0453 159.944 82.8133 160.064C82.5893 160.184 82.3413 160.244 82.0693 160.244ZM89.4273 161.156C89.8833 161.156 90.2833 161.092 90.6273 160.964C90.9793 160.828 91.2993 160.668 91.5873 160.484L91.1913 159.764C90.9513 159.924 90.6993 160.052 90.4353 160.148C90.1713 160.236 89.8793 160.28 89.5593 160.28C88.9353 160.28 88.4273 160.076 88.0353 159.668C87.6513 159.26 87.4393 158.704 87.3993 158H91.7913C91.8073 157.92 91.8193 157.828 91.8273 157.724C91.8353 157.612 91.8393 157.496 91.8393 157.376C91.8393 156.912 91.7793 156.492 91.6593 156.116C91.5473 155.74 91.3793 155.42 91.1553 155.156C90.9393 154.884 90.6713 154.676 90.3513 154.532C90.0313 154.388 89.6633 154.316 89.2473 154.316C88.8713 154.316 88.5033 154.396 88.1433 154.556C87.7913 154.716 87.4793 154.944 87.2073 155.24C86.9353 155.536 86.7153 155.896 86.5473 156.32C86.3873 156.744 86.3073 157.22 86.3073 157.748C86.3073 158.284 86.3873 158.764 86.5473 159.188C86.7153 159.612 86.9393 159.972 87.2193 160.268C87.4993 160.556 87.8273 160.776 88.2033 160.928C88.5873 161.08 88.9953 161.156 89.4273 161.156ZM90.8793 157.22H87.3873C87.4193 156.9 87.4913 156.616 87.6033 156.368C87.7153 156.112 87.8553 155.9 88.0233 155.732C88.1913 155.556 88.3793 155.424 88.5873 155.336C88.8033 155.24 89.0273 155.192 89.2593 155.192C89.7713 155.192 90.1673 155.36 90.4473 155.696C90.7353 156.032 90.8793 156.54 90.8793 157.22ZM93.4438 151.448V161H94.5358V151.448H93.4438Z" fill="black"/>
<path d="M176.887 152.204H175.771V161H180.727V160.052H176.887V152.204ZM183.667 161.156C184.075 161.156 184.459 161.08 184.819 160.928C185.187 160.768 185.527 160.56 185.839 160.304H185.875L185.971 161H186.871V156.992C186.871 156.592 186.827 156.228 186.739 155.9C186.651 155.572 186.515 155.292 186.331 155.06C186.155 154.82 185.923 154.636 185.635 154.508C185.355 154.38 185.015 154.316 184.615 154.316C184.087 154.316 183.591 154.396 183.127 154.556C182.671 154.716 182.291 154.892 181.987 155.084L182.419 155.864C182.675 155.688 182.979 155.54 183.331 155.42C183.683 155.292 184.051 155.228 184.435 155.228C184.699 155.228 184.919 155.276 185.095 155.372C185.271 155.46 185.407 155.58 185.503 155.732C185.607 155.884 185.679 156.06 185.719 156.26C185.759 156.46 185.779 156.664 185.779 156.872C184.491 156.888 183.499 157.08 182.803 157.448C182.115 157.808 181.771 158.408 181.771 159.248C181.771 159.544 181.819 159.812 181.915 160.052C182.011 160.284 182.143 160.484 182.311 160.652C182.479 160.812 182.679 160.936 182.911 161.024C183.143 161.112 183.395 161.156 183.667 161.156ZM183.979 160.28C183.643 160.28 183.367 160.192 183.151 160.016C182.943 159.84 182.839 159.56 182.839 159.176C182.839 158.92 182.883 158.704 182.971 158.528C183.059 158.344 183.215 158.192 183.439 158.072C183.663 157.944 183.963 157.844 184.339 157.772C184.723 157.692 185.203 157.632 185.779 157.592V159.524C185.459 159.804 185.159 160 184.879 160.112C184.599 160.224 184.299 160.28 183.979 160.28ZM191.821 161.156C192.197 161.156 192.553 161.08 192.889 160.928C193.233 160.768 193.533 160.54 193.789 160.244C194.053 159.94 194.261 159.568 194.413 159.128C194.573 158.688 194.653 158.188 194.653 157.628C194.653 157.132 194.597 156.68 194.485 156.272C194.373 155.864 194.205 155.516 193.981 155.228C193.765 154.94 193.493 154.716 193.165 154.556C192.845 154.396 192.473 154.316 192.049 154.316C191.689 154.316 191.333 154.408 190.981 154.592C190.629 154.768 190.305 154.984 190.009 155.24L190.045 154.064V151.448H188.953V161H189.829L189.925 160.328H189.961C190.249 160.592 190.553 160.796 190.873 160.94C191.201 161.084 191.517 161.156 191.821 161.156ZM191.641 160.244C191.425 160.244 191.177 160.196 190.897 160.1C190.617 159.996 190.333 159.816 190.045 159.56V156.14C190.357 155.844 190.657 155.62 190.945 155.468C191.233 155.316 191.517 155.24 191.797 155.24C192.109 155.24 192.373 155.3 192.589 155.42C192.805 155.532 192.981 155.696 193.117 155.912C193.253 156.12 193.353 156.372 193.417 156.668C193.481 156.964 193.513 157.292 193.513 157.652C193.513 158.06 193.465 158.424 193.369 158.744C193.281 159.064 193.153 159.336 192.985 159.56C192.817 159.776 192.617 159.944 192.385 160.064C192.161 160.184 191.913 160.244 191.641 160.244ZM198.999 161.156C199.455 161.156 199.855 161.092 200.199 160.964C200.551 160.828 200.871 160.668 201.159 160.484L200.763 159.764C200.523 159.924 200.271 160.052 200.007 160.148C199.743 160.236 199.451 160.28 199.131 160.28C198.507 160.28 197.999 160.076 197.607 159.668C197.223 159.26 197.011 158.704 196.971 158H201.363C201.379 157.92 201.391 157.828 201.399 157.724C201.407 157.612 201.411 157.496 201.411 157.376C201.411 156.912 201.351 156.492 201.231 156.116C201.119 155.74 200.951 155.42 200.727 155.156C200.511 154.884 200.243 154.676 199.923 154.532C199.603 154.388 199.235 154.316 198.819 154.316C198.443 154.316 198.075 154.396 197.715 154.556C197.363 154.716 197.051 154.944 196.779 155.24C196.507 155.536 196.287 155.896 196.119 156.32C195.959 156.744 195.879 157.22 195.879 157.748C195.879 158.284 195.959 158.764 196.119 159.188C196.287 159.612 196.511 159.972 196.791 160.268C197.071 160.556 197.399 160.776 197.775 160.928C198.159 161.08 198.567 161.156 198.999 161.156ZM200.451 157.22H196.959C196.991 156.9 197.063 156.616 197.175 156.368C197.287 156.112 197.427 155.9 197.595 155.732C197.763 155.556 197.951 155.424 198.159 155.336C198.375 155.24 198.599 155.192 198.831 155.192C199.343 155.192 199.739 155.36 200.019 155.696C200.307 156.032 200.451 156.54 200.451 157.22ZM203.015 151.448V161H204.107V151.448H203.015Z" fill="black"/>
<path d="M286.459 152.204H285.343V161H290.299V160.052H286.459V152.204ZM293.239 161.156C293.647 161.156 294.031 161.08 294.391 160.928C294.759 160.768 295.099 160.56 295.411 160.304H295.447L295.543 161H296.443V156.992C296.443 156.592 296.399 156.228 296.311 155.9C296.223 155.572 296.087 155.292 295.903 155.06C295.727 154.82 295.495 154.636 295.207 154.508C294.927 154.38 294.587 154.316 294.187 154.316C293.659 154.316 293.163 154.396 292.699 154.556C292.243 154.716 291.863 154.892 291.559 155.084L291.991 155.864C292.247 155.688 292.551 155.54 292.903 155.42C293.255 155.292 293.623 155.228 294.007 155.228C294.271 155.228 294.491 155.276 294.667 155.372C294.843 155.46 294.979 155.58 295.075 155.732C295.179 155.884 295.251 156.06 295.291 156.26C295.331 156.46 295.351 156.664 295.351 156.872C294.063 156.888 293.071 157.08 292.375 157.448C291.687 157.808 291.343 158.408 291.343 159.248C291.343 159.544 291.391 159.812 291.487 160.052C291.583 160.284 291.715 160.484 291.883 160.652C292.051 160.812 292.251 160.936 292.483 161.024C292.715 161.112 292.967 161.156 293.239 161.156ZM293.551 160.28C293.215 160.28 292.939 160.192 292.723 160.016C292.515 159.84 292.411 159.56 292.411 159.176C292.411 158.92 292.455 158.704 292.543 158.528C292.631 158.344 292.787 158.192 293.011 158.072C293.235 157.944 293.535 157.844 293.911 157.772C294.295 157.692 294.775 157.632 295.351 157.592V159.524C295.031 159.804 294.731 160 294.451 160.112C294.171 160.224 293.871 160.28 293.551 160.28ZM301.392 161.156C301.768 161.156 302.124 161.08 302.46 160.928C302.804 160.768 303.104 160.54 303.36 160.244C303.624 159.94 303.832 159.568 303.984 159.128C304.144 158.688 304.224 158.188 304.224 157.628C304.224 157.132 304.168 156.68 304.056 156.272C303.944 155.864 303.776 155.516 303.552 155.228C303.336 154.94 303.064 154.716 302.736 154.556C302.416 154.396 302.044 154.316 301.62 154.316C301.26 154.316 300.904 154.408 300.552 154.592C300.2 154.768 299.876 154.984 299.58 155.24L299.616 154.064V151.448H298.524V161H299.4L299.496 160.328H299.532C299.82 160.592 300.124 160.796 300.444 160.94C300.772 161.084 301.088 161.156 301.392 161.156ZM301.212 160.244C300.996 160.244 300.748 160.196 300.468 160.1C300.188 159.996 299.904 159.816 299.616 159.56V156.14C299.928 155.844 300.228 155.62 300.516 155.468C300.804 155.316 301.088 155.24 301.368 155.24C301.68 155.24 301.944 155.3 302.16 155.42C302.376 155.532 302.552 155.696 302.688 155.912C302.824 156.12 302.924 156.372 302.988 156.668C303.052 156.964 303.084 157.292 303.084 157.652C303.084 158.06 303.036 158.424 302.94 158.744C302.852 159.064 302.724 159.336 302.556 159.56C302.388 159.776 302.188 159.944 301.956 160.064C301.732 160.184 301.484 160.244 301.212 160.244ZM308.57 161.156C309.026 161.156 309.426 161.092 309.77 160.964C310.122 160.828 310.442 160.668 310.73 160.484L310.334 159.764C310.094 159.924 309.842 160.052 309.578 160.148C309.314 160.236 309.022 160.28 308.702 160.28C308.078 160.28 307.57 160.076 307.178 159.668C306.794 159.26 306.582 158.704 306.542 158H310.934C310.95 157.92 310.962 157.828 310.97 157.724C310.978 157.612 310.982 157.496 310.982 157.376C310.982 156.912 310.922 156.492 310.802 156.116C310.69 155.74 310.522 155.42 310.298 155.156C310.082 154.884 309.814 154.676 309.494 154.532C309.174 154.388 308.806 154.316 308.39 154.316C308.014 154.316 307.646 154.396 307.286 154.556C306.934 154.716 306.622 154.944 306.35 155.24C306.078 155.536 305.858 155.896 305.69 156.32C305.53 156.744 305.45 157.22 305.45 157.748C305.45 158.284 305.53 158.764 305.69 159.188C305.858 159.612 306.082 159.972 306.362 160.268C306.642 160.556 306.97 160.776 307.346 160.928C307.73 161.08 308.138 161.156 308.57 161.156ZM310.022 157.22H306.53C306.562 156.9 306.634 156.616 306.746 156.368C306.858 156.112 306.998 155.9 307.166 155.732C307.334 155.556 307.522 155.424 307.73 155.336C307.946 155.24 308.17 155.192 308.402 155.192C308.914 155.192 309.31 155.36 309.59 155.696C309.878 156.032 310.022 156.54 310.022 157.22ZM312.587 151.448V161H313.679V151.448H312.587Z" fill="black"/>
<path d="M396.03 152.204H394.914V161H399.87V160.052H396.03V152.204ZM402.81 161.156C403.218 161.156 403.602 161.08 403.962 160.928C404.33 160.768 404.67 160.56 404.982 160.304H405.018L405.114 161H406.014V156.992C406.014 156.592 405.97 156.228 405.882 155.9C405.794 155.572 405.658 155.292 405.474 155.06C405.298 154.82 405.066 154.636 404.778 154.508C404.498 154.38 404.158 154.316 403.758 154.316C403.23 154.316 402.734 154.396 402.27 154.556C401.814 154.716 401.434 154.892 401.13 155.084L401.562 155.864C401.818 155.688 402.122 155.54 402.474 155.42C402.826 155.292 403.194 155.228 403.578 155.228C403.842 155.228 404.062 155.276 404.238 155.372C404.414 155.46 404.55 155.58 404.646 155.732C404.75 155.884 404.822 156.06 404.862 156.26C404.902 156.46 404.922 156.664 404.922 156.872C403.634 156.888 402.642 157.08 401.946 157.448C401.258 157.808 400.914 158.408 400.914 159.248C400.914 159.544 400.962 159.812 401.058 160.052C401.154 160.284 401.286 160.484 401.454 160.652C401.622 160.812 401.822 160.936 402.054 161.024C402.286 161.112 402.538 161.156 402.81 161.156ZM403.122 160.28C402.786 160.28 402.51 160.192 402.294 160.016C402.086 159.84 401.982 159.56 401.982 159.176C401.982 158.92 402.026 158.704 402.114 158.528C402.202 158.344 402.358 158.192 402.582 158.072C402.806 157.944 403.106 157.844 403.482 157.772C403.866 157.692 404.346 157.632 404.922 157.592V159.524C404.602 159.804 404.302 160 404.022 160.112C403.742 160.224 403.442 160.28 403.122 160.28ZM410.964 161.156C411.34 161.156 411.696 161.08 412.032 160.928C412.376 160.768 412.676 160.54 412.932 160.244C413.196 159.94 413.404 159.568 413.556 159.128C413.716 158.688 413.796 158.188 413.796 157.628C413.796 157.132 413.74 156.68 413.628 156.272C413.516 155.864 413.348 155.516 413.124 155.228C412.908 154.94 412.636 154.716 412.308 154.556C411.988 154.396 411.616 154.316 411.192 154.316C410.832 154.316 410.476 154.408 410.124 154.592C409.772 154.768 409.448 154.984 409.152 155.24L409.188 154.064V151.448H408.096V161H408.972L409.068 160.328H409.104C409.392 160.592 409.696 160.796 410.016 160.94C410.344 161.084 410.66 161.156 410.964 161.156ZM410.784 160.244C410.568 160.244 410.32 160.196 410.04 160.1C409.76 159.996 409.476 159.816 409.188 159.56V156.14C409.5 155.844 409.8 155.62 410.088 155.468C410.376 155.316 410.66 155.24 410.94 155.24C411.252 155.24 411.516 155.3 411.732 155.42C411.948 155.532 412.124 155.696 412.26 155.912C412.396 156.12 412.496 156.372 412.56 156.668C412.624 156.964 412.656 157.292 412.656 157.652C412.656 158.06 412.608 158.424 412.512 158.744C412.424 159.064 412.296 159.336 412.128 159.56C411.96 159.776 411.76 159.944 411.528 160.064C411.304 160.184 411.056 160.244 410.784 160.244ZM418.142 161.156C418.598 161.156 418.998 161.092 419.342 160.964C419.694 160.828 420.014 160.668 420.302 160.484L419.906 159.764C419.666 159.924 419.414 160.052 419.15 160.148C418.886 160.236 418.594 160.28 418.274 160.28C417.65 160.28 417.142 160.076 416.75 159.668C416.366 159.26 416.154 158.704 416.114 158H420.506C420.522 157.92 420.534 157.828 420.542 157.724C420.55 157.612 420.554 157.496 420.554 157.376C420.554 156.912 420.494 156.492 420.374 156.116C420.262 155.74 420.094 155.42 419.87 155.156C419.654 154.884 419.386 154.676 419.066 154.532C418.746 154.388 418.378 154.316 417.962 154.316C417.586 154.316 417.218 154.396 416.858 154.556C416.506 154.716 416.194 154.944 415.922 155.24C415.65 155.536 415.43 155.896 415.262 156.32C415.102 156.744 415.022 157.22 415.022 157.748C415.022 158.284 415.102 158.764 415.262 159.188C415.43 159.612 415.654 159.972 415.934 160.268C416.214 160.556 416.542 160.776 416.918 160.928C417.302 161.08 417.71 161.156 418.142 161.156ZM419.594 157.22H416.102C416.134 156.9 416.206 156.616 416.318 156.368C416.43 156.112 416.57 155.9 416.738 155.732C416.906 155.556 417.094 155.424 417.302 155.336C417.518 155.24 417.742 155.192 417.974 155.192C418.486 155.192 418.882 155.36 419.162 155.696C419.45 156.032 419.594 156.54 419.594 157.22ZM422.158 151.448V161H423.25V151.448H422.158Z" fill="black"/>
<path d="M505.602 152.204H504.486V161H509.442V160.052H505.602V152.204ZM512.382 161.156C512.79 161.156 513.174 161.08 513.534 160.928C513.902 160.768 514.242 160.56 514.554 160.304H514.59L514.686 161H515.586V156.992C515.586 156.592 515.542 156.228 515.454 155.9C515.366 155.572 515.23 155.292 515.046 155.06C514.87 154.82 514.638 154.636 514.35 154.508C514.07 154.38 513.73 154.316 513.33 154.316C512.802 154.316 512.306 154.396 511.842 154.556C511.386 154.716 511.006 154.892 510.702 155.084L511.134 155.864C511.39 155.688 511.694 155.54 512.046 155.42C512.398 155.292 512.766 155.228 513.15 155.228C513.414 155.228 513.634 155.276 513.81 155.372C513.986 155.46 514.122 155.58 514.218 155.732C514.322 155.884 514.394 156.06 514.434 156.26C514.474 156.46 514.494 156.664 514.494 156.872C513.206 156.888 512.214 157.08 511.518 157.448C510.83 157.808 510.486 158.408 510.486 159.248C510.486 159.544 510.534 159.812 510.63 160.052C510.726 160.284 510.858 160.484 511.026 160.652C511.194 160.812 511.394 160.936 511.626 161.024C511.858 161.112 512.11 161.156 512.382 161.156ZM512.694 160.28C512.358 160.28 512.082 160.192 511.866 160.016C511.658 159.84 511.554 159.56 511.554 159.176C511.554 158.92 511.598 158.704 511.686 158.528C511.774 158.344 511.93 158.192 512.154 158.072C512.378 157.944 512.678 157.844 513.054 157.772C513.438 157.692 513.918 157.632 514.494 157.592V159.524C514.174 159.804 513.874 160 513.594 160.112C513.314 160.224 513.014 160.28 512.694 160.28ZM520.535 161.156C520.911 161.156 521.267 161.08 521.603 160.928C521.947 160.768 522.247 160.54 522.503 160.244C522.767 159.94 522.975 159.568 523.127 159.128C523.287 158.688 523.367 158.188 523.367 157.628C523.367 157.132 523.311 156.68 523.199 156.272C523.087 155.864 522.919 155.516 522.695 155.228C522.479 154.94 522.207 154.716 521.879 154.556C521.559 154.396 521.187 154.316 520.763 154.316C520.403 154.316 520.047 154.408 519.695 154.592C519.343 154.768 519.019 154.984 518.723 155.24L518.759 154.064V151.448H517.667V161H518.543L518.639 160.328H518.675C518.963 160.592 519.267 160.796 519.587 160.94C519.915 161.084 520.231 161.156 520.535 161.156ZM520.355 160.244C520.139 160.244 519.891 160.196 519.611 160.1C519.331 159.996 519.047 159.816 518.759 159.56V156.14C519.071 155.844 519.371 155.62 519.659 155.468C519.947 155.316 520.231 155.24 520.511 155.24C520.823 155.24 521.087 155.3 521.303 155.42C521.519 155.532 521.695 155.696 521.831 155.912C521.967 156.12 522.067 156.372 522.131 156.668C522.195 156.964 522.227 157.292 522.227 157.652C522.227 158.06 522.179 158.424 522.083 158.744C521.995 159.064 521.867 159.336 521.699 159.56C521.531 159.776 521.331 159.944 521.099 160.064C520.875 160.184 520.627 160.244 520.355 160.244ZM527.713 161.156C528.169 161.156 528.569 161.092 528.913 160.964C529.265 160.828 529.585 160.668 529.873 160.484L529.477 159.764C529.237 159.924 528.985 160.052 528.721 160.148C528.457 160.236 528.165 160.28 527.845 160.28C527.221 160.28 526.713 160.076 526.321 159.668C525.937 159.26 525.725 158.704 525.685 158H530.077C530.093 157.92 530.105 157.828 530.113 157.724C530.121 157.612 530.125 157.496 530.125 157.376C530.125 156.912 530.065 156.492 529.945 156.116C529.833 155.74 529.665 155.42 529.441 155.156C529.225 154.884 528.957 154.676 528.637 154.532C528.317 154.388 527.949 154.316 527.533 154.316C527.157 154.316 526.789 154.396 526.429 154.556C526.077 154.716 525.765 154.944 525.493 155.24C525.221 155.536 525.001 155.896 524.833 156.32C524.673 156.744 524.593 157.22 524.593 157.748C524.593 158.284 524.673 158.764 524.833 159.188C525.001 159.612 525.225 159.972 525.505 160.268C525.785 160.556 526.113 160.776 526.489 160.928C526.873 161.08 527.281 161.156 527.713 161.156ZM529.165 157.22H525.673C525.705 156.9 525.777 156.616 525.889 156.368C526.001 156.112 526.141 155.9 526.309 155.732C526.477 155.556 526.665 155.424 526.873 155.336C527.089 155.24 527.313 155.192 527.545 155.192C528.057 155.192 528.453 155.36 528.733 155.696C529.021 156.032 529.165 156.54 529.165 157.22ZM531.73 151.448V161H532.822V151.448H531.73Z" fill="black"/>
<path d="M615.173 152.204H614.057V161H619.013V160.052H615.173V152.204ZM621.953 161.156C622.361 161.156 622.745 161.08 623.105 160.928C623.473 160.768 623.813 160.56 624.125 160.304H624.161L624.257 161H625.157V156.992C625.157 156.592 625.113 156.228 625.025 155.9C624.937 155.572 624.801 155.292 624.617 155.06C624.441 154.82 624.209 154.636 623.921 154.508C623.641 154.38 623.301 154.316 622.901 154.316C622.373 154.316 621.877 154.396 621.413 154.556C620.957 154.716 620.577 154.892 620.273 155.084L620.705 155.864C620.961 155.688 621.265 155.54 621.617 155.42C621.969 155.292 622.337 155.228 622.721 155.228C622.985 155.228 623.205 155.276 623.381 155.372C623.557 155.46 623.693 155.58 623.789 155.732C623.893 155.884 623.965 156.06 624.005 156.26C624.045 156.46 624.065 156.664 624.065 156.872C622.777 156.888 621.785 157.08 621.089 157.448C620.401 157.808 620.057 158.408 620.057 159.248C620.057 159.544 620.105 159.812 620.201 160.052C620.297 160.284 620.429 160.484 620.597 160.652C620.765 160.812 620.965 160.936 621.197 161.024C621.429 161.112 621.681 161.156 621.953 161.156ZM622.265 160.28C621.929 160.28 621.653 160.192 621.437 160.016C621.229 159.84 621.125 159.56 621.125 159.176C621.125 158.92 621.169 158.704 621.257 158.528C621.345 158.344 621.501 158.192 621.725 158.072C621.949 157.944 622.249 157.844 622.625 157.772C623.009 157.692 623.489 157.632 624.065 157.592V159.524C623.745 159.804 623.445 160 623.165 160.112C622.885 160.224 622.585 160.28 622.265 160.28ZM630.106 161.156C630.482 161.156 630.838 161.08 631.174 160.928C631.518 160.768 631.818 160.54 632.074 160.244C632.338 159.94 632.546 159.568 632.698 159.128C632.858 158.688 632.938 158.188 632.938 157.628C632.938 157.132 632.882 156.68 632.77 156.272C632.658 155.864 632.49 155.516 632.266 155.228C632.05 154.94 631.778 154.716 631.45 154.556C631.13 154.396 630.758 154.316 630.334 154.316C629.974 154.316 629.618 154.408 629.266 154.592C628.914 154.768 628.59 154.984 628.294 155.24L628.33 154.064V151.448H627.238V161H628.114L628.21 160.328H628.246C628.534 160.592 628.838 160.796 629.158 160.94C629.486 161.084 629.802 161.156 630.106 161.156ZM629.926 160.244C629.71 160.244 629.462 160.196 629.182 160.1C628.902 159.996 628.618 159.816 628.33 159.56V156.14C628.642 155.844 628.942 155.62 629.23 155.468C629.518 155.316 629.802 155.24 630.082 155.24C630.394 155.24 630.658 155.3 630.874 155.42C631.09 155.532 631.266 155.696 631.402 155.912C631.538 156.12 631.638 156.372 631.702 156.668C631.766 156.964 631.798 157.292 631.798 157.652C631.798 158.06 631.75 158.424 631.654 158.744C631.566 159.064 631.438 159.336 631.27 159.56C631.102 159.776 630.902 159.944 630.67 160.064C630.446 160.184 630.198 160.244 629.926 160.244ZM637.284 161.156C637.74 161.156 638.14 161.092 638.484 160.964C638.836 160.828 639.156 160.668 639.444 160.484L639.048 159.764C638.808 159.924 638.556 160.052 638.292 160.148C638.028 160.236 637.736 160.28 637.416 160.28C636.792 160.28 636.284 160.076 635.892 159.668C635.508 159.26 635.296 158.704 635.256 158H639.648C639.664 157.92 639.676 157.828 639.684 157.724C639.692 157.612 639.696 157.496 639.696 157.376C639.696 156.912 639.636 156.492 639.516 156.116C639.404 155.74 639.236 155.42 639.012 155.156C638.796 154.884 638.528 154.676 638.208 154.532C637.888 154.388 637.52 154.316 637.104 154.316C636.728 154.316 636.36 154.396 636 154.556C635.648 154.716 635.336 154.944 635.064 155.24C634.792 155.536 634.572 155.896 634.404 156.32C634.244 156.744 634.164 157.22 634.164 157.748C634.164 158.284 634.244 158.764 634.404 159.188C634.572 159.612 634.796 159.972 635.076 160.268C635.356 160.556 635.684 160.776 636.06 160.928C636.444 161.08 636.852 161.156 637.284 161.156ZM638.736 157.22H635.244C635.276 156.9 635.348 156.616 635.46 156.368C635.572 156.112 635.712 155.9 635.88 155.732C636.048 155.556 636.236 155.424 636.444 155.336C636.66 155.24 636.884 155.192 637.116 155.192C637.628 155.192 638.024 155.36 638.304 155.696C638.592 156.032 638.736 156.54 638.736 157.22ZM641.301 151.448V161H642.393V151.448H641.301Z" fill="black"/>
<path d="M724.745 152.204H723.629V161H728.585V160.052H724.745V152.204ZM731.524 161.156C731.932 161.156 732.316 161.08 732.676 160.928C733.044 160.768 733.384 160.56 733.696 160.304H733.732L733.828 161H734.728V156.992C734.728 156.592 734.684 156.228 734.596 155.9C734.508 155.572 734.372 155.292 734.188 155.06C734.012 154.82 733.78 154.636 733.492 154.508C733.212 154.38 732.872 154.316 732.472 154.316C731.944 154.316 731.448 154.396 730.984 154.556C730.528 154.716 730.148 154.892 729.844 155.084L730.276 155.864C730.532 155.688 730.836 155.54 731.188 155.42C731.54 155.292 731.908 155.228 732.292 155.228C732.556 155.228 732.776 155.276 732.952 155.372C733.128 155.46 733.264 155.58 733.36 155.732C733.464 155.884 733.536 156.06 733.576 156.26C733.616 156.46 733.636 156.664 733.636 156.872C732.348 156.888 731.356 157.08 730.66 157.448C729.972 157.808 729.628 158.408 729.628 159.248C729.628 159.544 729.676 159.812 729.772 160.052C729.868 160.284 730 160.484 730.168 160.652C730.336 160.812 730.536 160.936 730.768 161.024C731 161.112 731.252 161.156 731.524 161.156ZM731.836 160.28C731.5 160.28 731.224 160.192 731.008 160.016C730.8 159.84 730.696 159.56 730.696 159.176C730.696 158.92 730.74 158.704 730.828 158.528C730.916 158.344 731.072 158.192 731.296 158.072C731.52 157.944 731.82 157.844 732.196 157.772C732.58 157.692 733.06 157.632 733.636 157.592V159.524C733.316 159.804 733.016 160 732.736 160.112C732.456 160.224 732.156 160.28 731.836 160.28ZM739.678 161.156C740.054 161.156 740.41 161.08 740.746 160.928C741.09 160.768 741.39 160.54 741.646 160.244C741.91 159.94 742.118 159.568 742.27 159.128C742.43 158.688 742.51 158.188 742.51 157.628C742.51 157.132 742.454 156.68 742.342 156.272C742.23 155.864 742.062 155.516 741.838 155.228C741.622 154.94 741.35 154.716 741.022 154.556C740.702 154.396 740.33 154.316 739.906 154.316C739.546 154.316 739.19 154.408 738.838 154.592C738.486 154.768 738.162 154.984 737.866 155.24L737.902 154.064V151.448H736.81V161H737.686L737.782 160.328H737.818C738.106 160.592 738.41 160.796 738.73 160.94C739.058 161.084 739.374 161.156 739.678 161.156ZM739.498 160.244C739.282 160.244 739.034 160.196 738.754 160.1C738.474 159.996 738.19 159.816 737.902 159.56V156.14C738.214 155.844 738.514 155.62 738.802 155.468C739.09 155.316 739.374 155.24 739.654 155.24C739.966 155.24 740.23 155.3 740.446 155.42C740.662 155.532 740.838 155.696 740.974 155.912C741.11 156.12 741.21 156.372 741.274 156.668C741.338 156.964 741.37 157.292 741.37 157.652C741.37 158.06 741.322 158.424 741.226 158.744C741.138 159.064 741.01 159.336 740.842 159.56C740.674 159.776 740.474 159.944 740.242 160.064C740.018 160.184 739.77 160.244 739.498 160.244ZM746.856 161.156C747.312 161.156 747.712 161.092 748.056 160.964C748.408 160.828 748.728 160.668 749.016 160.484L748.62 159.764C748.38 159.924 748.128 160.052 747.864 160.148C747.6 160.236 747.308 160.28 746.988 160.28C746.364 160.28 745.856 160.076 745.464 159.668C745.08 159.26 744.868 158.704 744.828 158H749.22C749.236 157.92 749.248 157.828 749.256 157.724C749.264 157.612 749.268 157.496 749.268 157.376C749.268 156.912 749.208 156.492 749.088 156.116C748.976 155.74 748.808 155.42 748.584 155.156C748.368 154.884 748.1 154.676 747.78 154.532C747.46 154.388 747.092 154.316 746.676 154.316C746.3 154.316 745.932 154.396 745.572 154.556C745.22 154.716 744.908 154.944 744.636 155.24C744.364 155.536 744.144 155.896 743.976 156.32C743.816 156.744 743.736 157.22 743.736 157.748C743.736 158.284 743.816 158.764 743.976 159.188C744.144 159.612 744.368 159.972 744.648 160.268C744.928 160.556 745.256 160.776 745.632 160.928C746.016 161.08 746.424 161.156 746.856 161.156ZM748.308 157.22H744.816C744.848 156.9 744.92 156.616 745.032 156.368C745.144 156.112 745.284 155.9 745.452 155.732C745.62 155.556 745.808 155.424 746.016 155.336C746.232 155.24 746.456 155.192 746.688 155.192C747.2 155.192 747.596 155.36 747.876 155.696C748.164 156.032 748.308 156.54 748.308 157.22ZM750.872 151.448V161H751.964V151.448H750.872Z" fill="black"/>
<path d="M834.316 152.204H833.2V161H838.156V160.052H834.316V152.204ZM841.096 161.156C841.504 161.156 841.888 161.08 842.248 160.928C842.616 160.768 842.956 160.56 843.268 160.304H843.304L843.4 161H844.3V156.992C844.3 156.592 844.256 156.228 844.168 155.9C844.08 155.572 843.944 155.292 843.76 155.06C843.584 154.82 843.352 154.636 843.064 154.508C842.784 154.38 842.444 154.316 842.044 154.316C841.516 154.316 841.02 154.396 840.556 154.556C840.1 154.716 839.72 154.892 839.416 155.084L839.848 155.864C840.104 155.688 840.408 155.54 840.76 155.42C841.112 155.292 841.48 155.228 841.864 155.228C842.128 155.228 842.348 155.276 842.524 155.372C842.7 155.46 842.836 155.58 842.932 155.732C843.036 155.884 843.108 156.06 843.148 156.26C843.188 156.46 843.208 156.664 843.208 156.872C841.92 156.888 840.928 157.08 840.232 157.448C839.544 157.808 839.2 158.408 839.2 159.248C839.2 159.544 839.248 159.812 839.344 160.052C839.44 160.284 839.572 160.484 839.74 160.652C839.908 160.812 840.108 160.936 840.34 161.024C840.572 161.112 840.824 161.156 841.096 161.156ZM841.408 160.28C841.072 160.28 840.796 160.192 840.58 160.016C840.372 159.84 840.268 159.56 840.268 159.176C840.268 158.92 840.312 158.704 840.4 158.528C840.488 158.344 840.644 158.192 840.868 158.072C841.092 157.944 841.392 157.844 841.768 157.772C842.152 157.692 842.632 157.632 843.208 157.592V159.524C842.888 159.804 842.588 160 842.308 160.112C842.028 160.224 841.728 160.28 841.408 160.28ZM849.249 161.156C849.625 161.156 849.981 161.08 850.317 160.928C850.661 160.768 850.961 160.54 851.217 160.244C851.481 159.94 851.689 159.568 851.841 159.128C852.001 158.688 852.081 158.188 852.081 157.628C852.081 157.132 852.025 156.68 851.913 156.272C851.801 155.864 851.633 155.516 851.409 155.228C851.193 154.94 850.921 154.716 850.593 154.556C850.273 154.396 849.901 154.316 849.477 154.316C849.117 154.316 848.761 154.408 848.409 154.592C848.057 154.768 847.733 154.984 847.437 155.24L847.473 154.064V151.448H846.381V161H847.257L847.353 160.328H847.389C847.677 160.592 847.981 160.796 848.301 160.94C848.629 161.084 848.945 161.156 849.249 161.156ZM849.069 160.244C848.853 160.244 848.605 160.196 848.325 160.1C848.045 159.996 847.761 159.816 847.473 159.56V156.14C847.785 155.844 848.085 155.62 848.373 155.468C848.661 155.316 848.945 155.24 849.225 155.24C849.537 155.24 849.801 155.3 850.017 155.42C850.233 155.532 850.409 155.696 850.545 155.912C850.681 156.12 850.781 156.372 850.845 156.668C850.909 156.964 850.941 157.292 850.941 157.652C850.941 158.06 850.893 158.424 850.797 158.744C850.709 159.064 850.581 159.336 850.413 159.56C850.245 159.776 850.045 159.944 849.813 160.064C849.589 160.184 849.341 160.244 849.069 160.244ZM856.427 161.156C856.883 161.156 857.283 161.092 857.627 160.964C857.979 160.828 858.299 160.668 858.587 160.484L858.191 159.764C857.951 159.924 857.699 160.052 857.435 160.148C857.171 160.236 856.879 160.28 856.559 160.28C855.935 160.28 855.427 160.076 855.035 159.668C854.651 159.26 854.439 158.704 854.399 158H858.791C858.807 157.92 858.819 157.828 858.827 157.724C858.835 157.612 858.839 157.496 858.839 157.376C858.839 156.912 858.779 156.492 858.659 156.116C858.547 155.74 858.379 155.42 858.155 155.156C857.939 154.884 857.671 154.676 857.351 154.532C857.031 154.388 856.663 154.316 856.247 154.316C855.871 154.316 855.503 154.396 855.143 154.556C854.791 154.716 854.479 154.944 854.207 155.24C853.935 155.536 853.715 155.896 853.547 156.32C853.387 156.744 853.307 157.22 853.307 157.748C853.307 158.284 853.387 158.764 853.547 159.188C853.715 159.612 853.939 159.972 854.219 160.268C854.499 160.556 854.827 160.776 855.203 160.928C855.587 161.08 855.995 161.156 856.427 161.156ZM857.879 157.22H854.387C854.419 156.9 854.491 156.616 854.603 156.368C854.715 156.112 854.855 155.9 855.023 155.732C855.191 155.556 855.379 155.424 855.587 155.336C855.803 155.24 856.027 155.192 856.259 155.192C856.771 155.192 857.167 155.36 857.447 155.696C857.735 156.032 857.879 156.54 857.879 157.22ZM860.444 151.448V161H861.536V151.448H860.444Z" fill="black"/>
</svg>
