<svg width="64" height="65" viewBox="0 0 64 65" fill="none" xmlns="http://www.w3.org/2000/svg">
<g clip-path="url(#clip0_79_8231)">
<g opacity="0.936">
<mask id="mask0_79_8231" style="mask-type:luminance" maskUnits="userSpaceOnUse" x="0" y="0" width="64" height="65">
<path d="M64 0.5H0V64.5H64V0.5Z" fill="white"/>
</mask>
<g mask="url(#mask0_79_8231)">
<path d="M10.385 43.5289C10.0682 43.5299 9.75443 43.4677 9.46201 43.3459C9.02103 43.1638 8.64398 42.8551 8.37857 42.4586C8.11316 42.0622 7.97132 41.596 7.97101 41.1189V16.3659C7.97207 14.9055 8.55275 13.5052 9.5855 12.4727C10.6182 11.4401 12.0186 10.8597 13.479 10.8589H35.138C36.5981 10.8605 37.9979 11.4412 39.0303 12.4736C40.0627 13.506 40.6434 14.9058 40.645 16.3659V31.8359C40.6418 33.2948 40.0604 34.693 39.0281 35.7239C37.9958 36.7549 36.5969 37.3346 35.138 37.3359H17.571L12.091 42.8189C11.64 43.2698 11.0287 43.5237 10.391 43.5249" fill="#DCDDE0"/>
<path d="M50.391 21.5688H45.391V41.1528H23.443C23.2273 41.9645 23.2007 42.8148 23.3652 43.6383C23.5297 44.4619 23.881 45.2367 24.392 45.9032C24.9029 46.5696 25.56 47.11 26.3126 47.4827C27.0651 47.8554 27.8932 48.0504 28.733 48.0528H46.302L51.782 53.5378C52.2348 53.9898 52.8483 54.2437 53.488 54.2438C53.8043 54.2437 54.1174 54.1804 54.409 54.0578C54.8509 53.8755 55.2284 53.5658 55.4936 53.1681C55.7588 52.7705 55.8996 52.3028 55.898 51.8248V27.0728C55.8964 25.6134 55.3155 24.2143 54.2829 23.183C53.2502 22.1517 51.8504 21.5726 50.391 21.5728" fill="#DCDDE0"/>
</g>
</g>
</g>
<defs>
<clipPath id="clip0_79_8231">
<rect width="64" height="64" fill="white" transform="translate(0 0.5)"/>
</clipPath>
</defs>
</svg>
