<svg width="64" height="65" viewBox="0 0 64 65" fill="none" xmlns="http://www.w3.org/2000/svg">
<g clip-path="url(#clip0_79_8245)">
<g opacity="0.936">
<mask id="mask0_79_8245" style="mask-type:luminance" maskUnits="userSpaceOnUse" x="0" y="0" width="64" height="65">
<path d="M64 0.5H0V64.5H64V0.5Z" fill="white"/>
</mask>
<g mask="url(#mask0_79_8245)">
<path d="M32.196 4.96289C26.3844 4.97004 20.8129 7.28186 16.7034 11.3913C12.594 15.5007 10.2822 21.0723 10.275 26.8839V49.2979C10.2746 49.6215 10.3381 49.9421 10.4617 50.2412C10.5853 50.5403 10.7667 50.8121 10.9954 51.0411C11.2242 51.27 11.4958 51.4516 11.7949 51.5755C12.0939 51.6993 12.4144 51.763 12.738 51.7629H22.59C22.9135 51.763 23.2338 51.6994 23.5327 51.5757C23.8316 51.4519 24.1032 51.2705 24.3319 51.0418C24.5607 50.813 24.7421 50.5415 24.8658 50.2426C24.9895 49.9437 25.0532 49.6234 25.053 49.2999V34.5199C25.0532 34.1964 24.9895 33.8761 24.8658 33.5772C24.7421 33.2783 24.5607 33.0067 24.3319 32.778C24.1032 32.5493 23.8316 32.3678 23.5327 32.2441C23.2338 32.1204 22.9135 32.0568 22.59 32.0569H15.201V26.8839C15.205 22.3764 16.9973 18.0547 20.1846 14.8675C23.3719 11.6802 27.6936 9.88786 32.201 9.88389C41.681 9.88389 49.689 17.6669 49.689 26.8839V32.0559H42.295C41.9715 32.0558 41.6512 32.1194 41.3523 32.2431C41.0534 32.3668 40.7819 32.5483 40.5531 32.777C40.3244 33.0057 40.143 33.2773 40.0192 33.5762C39.8955 33.8751 39.8319 34.1954 39.832 34.5189V49.2979C39.8316 49.6215 39.8951 49.9421 40.0187 50.2412C40.1423 50.5403 40.3237 50.8121 40.5524 51.0411C40.7812 51.27 41.0528 51.4516 41.3519 51.5755C41.6509 51.6993 41.9714 51.763 42.295 51.7629H49.684V52.0729C49.683 52.6436 49.4558 53.1906 49.0523 53.5941C48.6487 53.9977 48.1017 54.2248 47.531 54.2259H34.906C34.2528 54.2259 33.6263 54.4854 33.1644 54.9473C32.7025 55.4092 32.443 56.0357 32.443 56.6889C32.443 57.3421 32.7025 57.9686 33.1644 58.4305C33.6263 58.8924 34.2528 59.1519 34.906 59.1519H47.532C49.4089 59.15 51.2084 58.4036 52.5356 57.0765C53.8628 55.7493 54.6092 53.9498 54.611 52.0729V26.8839C54.61 15.0029 44.347 4.96289 32.196 4.96289Z" fill="#DCDDE0"/>
</g>
</g>
</g>
<defs>
<clipPath id="clip0_79_8245">
<rect width="64" height="64" fill="white" transform="translate(0 0.5)"/>
</clipPath>
</defs>
</svg>
