<svg width="17" height="16" viewBox="0 0 17 16" fill="none" xmlns="http://www.w3.org/2000/svg">
<g id="download_bk_16">
<path id="Union" d="M8.5 2C8.82329 2 9.08537 2.24702 9.08537 2.55172V8.1163L11.5007 5.83976C11.7293 5.6243 12.0999 5.6243 12.3285 5.83976C12.5571 6.05522 12.5571 6.40455 12.3285 6.62001L8.91392 9.8384C8.68532 10.0539 8.31468 10.0539 8.08608 9.8384L4.67145 6.62001C4.44285 6.40455 4.44285 6.05522 4.67145 5.83976C4.90005 5.6243 5.27068 5.6243 5.49928 5.83976L7.91463 8.1163V2.55172C7.91463 2.24702 8.17671 2 8.5 2Z" fill="white"/>
<path id="Vector 2 (Stroke)" fill-rule="evenodd" clip-rule="evenodd" d="M3 10C3.27614 10 3.5 10.2239 3.5 10.5V13H13.5V10.5C13.5 10.2239 13.7239 10 14 10C14.2761 10 14.5 10.2239 14.5 10.5V13C14.5 13.5523 14.0523 14 13.5 14H3.5C2.94772 14 2.5 13.5523 2.5 13V10.5C2.5 10.2239 2.72386 10 3 10Z" fill="white"/>
</g>
</svg>
