<svg width="24" height="25" viewBox="0 0 24 25" fill="none" xmlns="http://www.w3.org/2000/svg">
<g id="error_fill_24">
<g id="Vector">
<path d="M23.9887 13.0203C23.8858 15.3915 23.0821 17.6789 21.6792 19.5932C20.2762 21.5076 18.3372 22.963 16.1071 23.7753C13.877 24.5876 11.4562 24.7204 9.15067 24.1568C6.84515 23.5933 4.75853 22.3587 3.15466 20.6092C1.55079 18.8598 0.501719 16.674 0.140108 14.3283C-0.221503 11.9826 0.120589 9.5824 1.12312 7.43114C2.12566 5.27988 3.7436 3.47422 5.77236 2.2425C7.80112 1.01078 10.1496 0.408318 12.5207 0.511306C15.7003 0.649405 18.6947 2.04488 20.8454 4.39076C22.996 6.73664 24.1267 9.84077 23.9887 13.0203Z" fill="#D60000"/>
<path d="M18.6013 7.72544L16.7733 5.89844L12.0013 10.6714L7.22934 5.89844L5.40234 7.72544L10.1753 12.4974L5.40234 17.2694L7.23034 19.0974L12.0023 14.3254L16.7743 19.0974L18.6023 17.2694L13.8303 12.4974L18.6013 7.72544Z" fill="white"/>
</g>
</g>
</svg>
