<svg width="16" height="16" viewBox="0 0 16 16" fill="none" xmlns="http://www.w3.org/2000/svg">
<g id="help_fill_bk_16">
<path id="&#237;&#140;&#168;&#236;&#138;&#164; 91984" d="M8 1C6.61553 1 5.26216 1.41054 4.11101 2.17971C2.95987 2.94888 2.06266 4.04213 1.53285 5.32122C1.00303 6.6003 0.86441 8.00776 1.13451 9.36563C1.4046 10.7235 2.07129 11.9708 3.05026 12.9497C4.02922 13.9287 5.2765 14.5954 6.63437 14.8655C7.99224 15.1356 9.3997 14.997 10.6788 14.4672C11.9579 13.9373 13.0511 13.0401 13.8203 11.889C14.5895 10.7378 15 9.38447 15 8C15 6.14348 14.2625 4.36301 12.9497 3.05025C11.637 1.7375 9.85652 1 8 1ZM8.742 11.878C8.64454 11.9741 8.5284 12.0491 8.40077 12.0985C8.27314 12.1478 8.13674 12.1705 8 12.165C7.86344 12.169 7.72745 12.1457 7.60002 12.0964C7.4726 12.0471 7.35631 11.9729 7.258 11.878C7.16024 11.7815 7.08362 11.6656 7.033 11.5379C6.98239 11.4102 6.95889 11.2733 6.964 11.136C6.96713 10.967 7.01154 10.8014 7.09336 10.6536C7.17517 10.5057 7.29191 10.3801 7.4334 10.2877C7.57489 10.1953 7.73683 10.139 7.9051 10.1235C8.07338 10.1081 8.24288 10.134 8.39882 10.1991C8.55477 10.2642 8.69243 10.3664 8.7998 10.4969C8.90717 10.6274 8.981 10.7821 9.01484 10.9477C9.04868 11.1133 9.04151 11.2846 8.99395 11.4467C8.9464 11.6089 8.8599 11.7569 8.742 11.878ZM9.694 7.923C9.40939 8.12725 9.15895 8.37533 8.952 8.658C8.81599 8.87607 8.74649 9.12905 8.752 9.386H7.132C7.11494 8.97943 7.18909 8.57419 7.349 8.2C7.52909 7.85706 7.78823 7.56192 8.105 7.339C8.35548 7.15669 8.58548 6.94781 8.791 6.716C8.92539 6.5527 8.9964 6.34642 8.991 6.135C8.99621 6.02534 8.97621 5.91594 8.93252 5.81522C8.88883 5.71449 8.82263 5.62513 8.739 5.554C8.53317 5.40209 8.28031 5.32772 8.025 5.344C7.88869 5.33682 7.75236 5.358 7.62464 5.4062C7.49693 5.45439 7.3806 5.52855 7.283 5.624C7.19539 5.71355 7.1267 5.81982 7.081 5.93647C7.0353 6.05312 7.01354 6.17777 7.017 6.303H5.312C5.3083 5.8585 5.42958 5.42191 5.662 5.043C5.89518 4.66522 6.22667 4.35793 6.621 4.154C7.05372 3.93216 7.53485 3.8215 8.021 3.832C8.51326 3.81914 9.00187 3.91973 9.449 4.126C9.82635 4.30347 10.1429 4.58837 10.359 4.945C10.5714 5.30516 10.6804 5.71692 10.674 6.135C10.6651 6.49133 10.5708 6.84032 10.399 7.15266C10.2273 7.465 9.98311 7.73157 9.687 7.93L9.694 7.923Z" fill="black"/>
</g>
</svg>
