<svg width="188" height="40" viewBox="0 0 188 40" fill="none" xmlns="http://www.w3.org/2000/svg">
<path d="M155.21 34.2288V19.7246H157.281V22.7958H157.357C157.619 21.9317 158.139 21.1676 158.847 20.6055C159.505 20.0792 160.325 19.7948 161.169 19.8002C161.459 19.7873 161.749 19.8211 162.028 19.9004V22.3427C161.729 22.2847 161.423 22.2594 161.118 22.2671C160.724 22.2579 160.333 22.3291 159.969 22.4764C159.604 22.6236 159.273 22.8438 158.997 23.1234C158.396 23.7486 157.993 24.5358 157.836 25.3875C157.758 25.8538 157.725 26.3263 157.735 26.7988V34.2288H155.21Z" fill="white"/>
<path d="M50.9895 16.8867V26.2191C50.9739 26.9589 51.0083 27.6989 51.0923 28.434C51.162 29.1594 51.4597 29.8443 51.943 30.391C52.5463 30.8516 53.2682 31.1324 54.0251 31.2008C54.7819 31.2691 55.5427 31.1223 56.2192 30.7772C56.7288 30.5431 57.1393 30.1374 57.3785 29.6314C57.6179 28.9842 57.74 28.2998 57.7389 27.61C57.7557 27.1641 57.7644 26.6577 57.7648 26.0908V16.8891H61.4749V26.6318C61.4749 26.7689 61.4655 26.9406 61.4484 27.1464C61.4449 28.2543 61.2444 29.3528 60.8564 30.391C60.4949 31.3329 59.8897 32.1625 59.1024 32.7957C58.3151 33.4289 57.3737 33.8431 56.3738 33.9961C55.7455 34.1159 55.1071 34.1763 54.4673 34.1766C51.943 34.1766 50.0195 33.4383 48.6967 31.9617C47.6832 30.8286 47.1681 29.1977 47.1512 27.069L47.1253 26.5286V16.8867H50.9895Z" fill="white"/>
<path d="M65.8358 13.807C66.0744 13.8023 66.3115 13.8449 66.5335 13.9322C66.7555 14.0195 66.958 14.1499 67.1291 14.3157C67.306 14.4874 67.4448 14.6943 67.5364 14.9229C67.6281 15.1514 67.6705 15.3967 67.6611 15.6426C67.6699 15.883 67.627 16.1224 67.5352 16.3448C67.4434 16.5672 67.305 16.7675 67.1291 16.9321C66.7801 17.2603 66.3155 17.4385 65.8358 17.4279C65.5995 17.4341 65.3643 17.3935 65.1439 17.3083C64.9235 17.2232 64.7223 17.0953 64.5518 16.9321C64.3791 16.7657 64.2434 16.5648 64.1538 16.3427C64.0641 16.1205 64.0225 15.882 64.0316 15.6426C64.0234 15.4025 64.0642 15.1632 64.1516 14.9393C64.2389 14.7154 64.3709 14.5114 64.5395 14.3398C64.7082 14.1682 64.91 14.0325 65.1328 13.9409C65.3557 13.8493 65.5948 13.8038 65.8358 13.807ZM67.6635 34.2284H64.0316V19.7201H67.6635V34.2284Z" fill="white"/>
<path d="M77.6645 19.718H79.8614V22.1386C80.3395 21.3615 81.0188 20.7272 81.8277 20.3022C82.6366 19.8772 83.5454 19.6772 84.4586 19.7233C85.0909 19.6909 85.723 19.7907 86.3143 20.0161C86.9057 20.2416 87.4432 20.5879 87.8924 21.0326C88.833 21.9891 89.3033 23.3815 89.3033 25.2097V34.2274H86.7754V25.3862C86.7754 22.9195 85.7904 21.6861 83.8202 21.6861C82.872 21.6448 81.9461 21.9799 81.2453 22.618C80.8809 22.9881 80.5985 23.4303 80.4162 23.916C80.2339 24.4017 80.1559 24.9201 80.1871 25.4377V34.2274H77.6592L77.6645 19.718Z" fill="white"/>
<path d="M104.306 27.6043V26.67C104.306 22.0383 102.345 19.7226 98.4225 19.723C97.5629 19.6911 96.706 19.838 95.9064 20.1543C95.1068 20.4707 94.3821 20.9495 93.7783 21.5604C92.4814 22.8534 91.8334 24.6578 91.8342 26.9736C91.8342 29.4892 92.533 31.3686 93.9305 32.6119C95.2863 33.7366 97.0166 34.3121 98.7782 34.2243C99.5534 34.2148 100.325 34.113 101.076 33.9212C101.852 33.7334 102.606 33.4635 103.324 33.1159C103.524 33.0025 103.717 32.8782 103.903 32.7438L103.368 30.9327C103.368 30.9327 102.625 31.3541 102.34 31.5036C101.27 31.9907 100.105 32.2322 98.9299 32.2104C98.3566 32.2361 97.7839 32.1467 97.2459 31.9475C96.708 31.7482 96.2157 31.4432 95.7982 31.0505C94.94 30.1064 94.4615 28.8796 94.4543 27.6055L96.7823 27.6025L104.306 27.6043ZM98.4225 21.6097C100.644 21.6097 101.772 22.9442 101.807 25.6133H94.4978C94.589 24.7381 94.8776 23.8947 95.342 23.1464C95.6795 22.6476 96.1403 22.2441 96.6799 21.9749C97.2196 21.7057 97.8198 21.5799 98.4225 21.6097Z" fill="white"/>
<path d="M108.264 16.8867H110.787V20.1009H114.903V22.1147H110.787V29.4409C110.759 30.0586 110.819 30.6771 110.964 31.2783C111.061 31.5744 111.257 31.8284 111.519 31.998C111.781 32.1677 112.094 32.2428 112.405 32.2108C112.781 32.2072 113.155 32.1479 113.514 32.035C113.816 31.9348 114.484 31.6048 114.484 31.6048L115.013 33.3842C115.013 33.3842 114.344 33.6356 114.121 33.7212C113.381 34.0211 112.596 34.1916 111.799 34.2252C110.912 34.2897 110.034 34.01 109.349 33.4446C108.625 32.7729 108.264 31.5642 108.264 29.8184V22.1124H106.141V20.1009H108.264V16.8867Z" fill="white"/>
<path d="M117.425 19.7188H120.252L122.424 28.3086C122.645 29.1409 122.948 30.3263 123.334 31.865H123.383C123.618 30.9128 123.905 29.7273 124.243 28.3086L126.464 19.7193H129.521L131.717 28.3086C131.75 28.4481 132.036 29.6336 132.576 31.865H132.627C132.676 31.6388 132.988 30.4533 133.561 28.3086L135.808 19.7193H138.307L134.494 32.6692C134.413 33.1187 134.171 33.5239 133.814 33.8099C133.457 34.096 133.008 34.2437 132.55 34.2258C131.506 34.2258 130.824 33.6464 130.504 32.4875L128.912 26.8299C128.542 25.5326 128.197 24.0014 127.877 22.236H127.828C127.57 23.7856 127.224 25.3193 126.792 26.8299L125.226 32.6692C125.146 33.124 124.902 33.5339 124.539 33.8209C124.176 34.1079 123.72 34.252 123.257 34.2258C122.782 34.2492 122.314 34.0986 121.942 33.8022C121.57 33.5058 121.319 33.0841 121.237 32.6164L117.425 19.7188Z" fill="white"/>
<path d="M145.968 19.7232C146.843 19.6907 147.716 19.8371 148.532 20.1531C149.349 20.4692 150.092 20.9484 150.715 21.5612C152.029 22.8533 152.685 24.6575 152.684 26.9738C152.684 29.2725 152.028 31.0769 150.715 32.387C149.419 33.569 147.725 34.2244 145.968 34.2244C144.211 34.2244 142.518 33.569 141.221 32.387C139.889 31.0776 139.224 29.2732 139.226 26.9738C139.228 24.6743 139.893 22.8701 141.221 21.5612C141.845 20.9484 142.588 20.4692 143.404 20.1531C144.221 19.8371 145.093 19.6907 145.968 19.7232ZM145.968 21.6368C145.412 21.611 144.858 21.7107 144.346 21.9285C143.835 22.1463 143.379 22.4765 143.013 22.8945C142.222 23.8186 141.826 25.1696 141.827 26.9474C141.827 28.7092 142.223 30.0608 143.013 31.002C143.379 31.4198 143.835 31.7498 144.346 31.9676C144.858 32.1853 145.413 32.2852 145.968 32.2598C146.524 32.2817 147.077 32.1802 147.588 31.9627C148.099 31.7452 148.555 31.417 148.924 31.002C149.715 30.0615 150.11 28.71 150.109 26.9474C150.109 25.1692 149.714 23.8182 148.924 22.8945C148.558 22.4766 148.102 22.1465 147.59 21.9287C147.078 21.7109 146.524 21.6111 145.968 21.6368Z" fill="white"/>
<path d="M164.569 13.8066H167.097V34.228H164.569V13.8066ZM173.7 19.7262H176.805L170.327 26.9428L176.805 34.228H173.428L168.027 27.9292C167.808 27.707 167.681 27.4095 167.675 27.0976C167.684 26.7654 167.82 26.4493 168.055 26.2137L173.7 19.7262Z" fill="white"/>
<path d="M186.85 20.5018L186.169 22.4131C185.165 21.9476 184.068 21.7157 182.961 21.735C182.35 21.7137 181.742 21.8433 181.193 22.1124C180.922 22.2219 180.691 22.4103 180.529 22.6529C180.367 22.8956 180.282 23.1813 180.285 23.4727C180.285 24.1608 180.755 24.7147 181.696 25.1343C183.211 25.804 184.196 26.2485 184.651 26.4677C186.3 27.273 187.124 28.4729 187.126 30.0675C187.158 30.6794 187.033 31.2895 186.764 31.8401C186.494 32.3908 186.088 32.8639 185.584 33.2149C184.533 33.9139 183.288 34.2664 182.025 34.2229C181.14 34.2415 180.256 34.1394 179.399 33.9193C178.987 33.8098 178.591 33.6462 178.223 33.4329C178.014 33.3063 177.55 32.9171 177.55 32.9171L178.079 31.0645C178.079 31.0645 178.787 31.4243 179.045 31.5187C179.221 31.5843 179.61 31.7127 180.179 31.8809C180.809 32.0746 181.464 32.1761 182.123 32.1821C183.89 32.1821 184.774 31.5027 184.774 30.1437C184.774 29.3712 184.252 28.7668 183.208 28.3303C181.609 27.6606 180.557 27.1825 180.051 26.8961C179.419 26.6049 178.884 26.1397 178.508 25.5553C178.132 24.9709 177.932 24.2917 177.931 23.5976C177.907 23.0065 178.042 22.4198 178.321 21.8978C178.6 21.3757 179.013 20.937 179.518 20.6267C180.517 20.0105 181.677 19.7044 182.851 19.7475C184.223 19.6847 185.59 19.9436 186.842 20.5036" fill="white"/>
<path d="M32.0857 8.63054e-06C30.7568 8.63054e-06 29.4824 0.526299 28.5427 1.4631C27.6031 2.3999 27.0752 3.67048 27.0752 4.99532C27.0755 5.24228 27.0937 5.48889 27.1298 5.73321C27.3074 6.91701 27.9054 7.99791 28.8149 8.77925C29.7244 9.56059 30.8851 9.99045 32.0857 9.99063C32.2624 9.99075 32.439 9.98175 32.6147 9.96367C33.8924 9.83081 35.0701 9.21376 35.9045 8.24C36.739 7.26624 37.1664 6.01015 37.0984 4.73122C37.0305 3.45229 36.4725 2.24822 35.5396 1.36773C34.6067 0.487252 33.3703 -0.0023706 32.0857 8.63054e-06Z" fill="#27D4FF"/>
<path d="M37.0944 20.2653V18.8722C37.0944 18.8493 37.0944 18.8271 37.0944 18.8036C37.0944 18.7802 37.0944 18.7585 37.0944 18.735C37.0814 17.6544 36.7153 16.6074 36.0515 15.753C35.9845 15.6662 35.914 15.5818 35.8417 15.5004C35.7694 15.4189 35.6788 15.3574 35.6024 15.2806C34.9336 14.6074 34.0856 14.1389 33.1585 13.9304C32.2314 13.7219 31.2638 13.782 30.3698 14.1037C29.4759 14.4254 28.6928 14.9953 28.113 15.7461C27.5333 16.4969 27.1809 17.3973 27.0976 18.3412C27.0835 18.4936 27.0752 18.6471 27.0752 18.8036C27.0752 18.9601 27.084 19.1295 27.0993 19.2889L27.104 21.8906C27.1112 23.2078 26.7935 24.5065 26.1789 25.6725C25.5643 26.8386 24.6716 27.8361 23.5795 28.5773C22.4873 29.3186 21.2291 29.7809 19.9157 29.9234C18.6022 30.066 17.2738 29.8845 16.0472 29.395C17.6274 31.0976 19.6647 32.3121 21.9169 32.8942C24.1692 33.4763 26.5417 33.4015 28.7526 32.6787C30.9634 31.9559 32.9197 30.6155 34.3888 28.8168C35.858 27.0181 36.7783 24.8367 37.0403 22.5318C37.0592 22.356 37.0703 22.1801 37.0815 21.999C37.0921 21.8384 37.1144 21.6814 37.1191 21.519C37.1226 21.3965 37.1244 21.2746 37.1244 21.1515C37.1244 20.855 37.1138 20.5613 37.0944 20.2694" fill="#27D4FF"/>
<path d="M5.87981 0C4.59736 0.00403548 3.36528 0.49818 2.43729 1.38068C1.5093 2.26317 0.956061 3.46683 0.891492 4.74378C0.826923 6.02073 1.25594 7.27376 2.09021 8.24482C2.92447 9.21589 4.10045 9.83106 5.376 9.96366C5.54178 9.98007 5.70991 9.98886 5.87981 9.98886C7.19216 9.96431 8.44245 9.42732 9.36184 8.49336C10.2812 7.55939 10.7963 6.30304 10.7963 4.99443C10.7963 3.68582 10.2812 2.42947 9.36184 1.4955C8.44245 0.561538 7.19216 0.0245502 5.87981 0Z" fill="#0069E6"/>
<path d="M10.9069 21.4763C10.9069 21.3667 10.8904 21.2606 10.8904 21.1504V21.2442C10.8904 21.3227 10.9045 21.3977 10.9069 21.4786" fill="#0069E6"/>
<path d="M11.0049 22.8584C11.012 22.9117 11.022 22.9645 11.0296 23.0178C11.022 22.9639 11.0114 22.9117 11.0049 22.8584Z" fill="#0069E6"/>
<path d="M11.0291 23.0164C11.0214 22.963 11.012 22.9109 11.0044 22.857C10.9491 22.4029 10.9166 21.9423 10.9068 21.4749C10.9068 21.3964 10.8903 21.3214 10.8897 21.2405V18.8006C10.8754 17.4852 10.3413 16.2285 9.40326 15.3034C8.46522 14.3783 7.19901 13.8594 5.87955 13.8594C4.56008 13.8594 3.29388 14.3783 2.35584 15.3034C1.4178 16.2285 0.883646 17.4852 0.869354 18.8006L0.869354 21.8876C0.869504 26.5472 2.67489 31.0267 5.90864 34.391C9.14238 37.7553 13.5546 39.7443 18.2241 39.9429C18.727 40.0187 19.2385 40.0187 19.7414 39.9429C22.6484 39.825 25.4842 39.0107 28.0087 37.569C30.5333 36.1272 32.6723 34.1005 34.245 31.6601C32.3378 33.3417 30.0079 34.4744 27.5047 34.9372C25.0014 35.4 22.419 35.1754 20.034 34.2874C17.6489 33.3994 15.551 31.8814 13.9648 29.896C12.3786 27.9107 11.3638 25.5326 11.0291 23.0164Z" fill="#0069E6"/>
<path d="M10.9069 21.4746C10.9174 21.9435 10.9502 22.4044 11.005 22.8572C10.9482 22.3984 10.9154 21.9369 10.9069 21.4746Z" fill="#0069E6"/>
</svg>
