<svg width="112" height="40" viewBox="0 0 112 40" fill="none" xmlns="http://www.w3.org/2000/svg">
<g clip-path="url(#clip0_122_4994)">
<mask id="mask0_122_4994" style="mask-type:luminance" maskUnits="userSpaceOnUse" x="0" y="8" width="112" height="24">
<path d="M111.75 8H0V32H111.75V8Z" fill="white"/>
</mask>
<g mask="url(#mask0_122_4994)">
<path d="M92.6002 28.536V19.8339H93.8432V21.6765H93.8887C94.0457 21.158 94.3575 20.6996 94.7825 20.3624C95.1774 20.0466 95.6694 19.876 96.1757 19.8792C96.3497 19.8715 96.5238 19.8918 96.6913 19.9394V21.4047C96.5114 21.3699 96.3282 21.3546 96.145 21.3593C95.909 21.3538 95.6743 21.3965 95.4555 21.4848C95.2367 21.5732 95.0384 21.7053 94.8727 21.873C94.5122 22.2482 94.2699 22.7205 94.1758 23.2314C94.1293 23.5112 94.1091 23.7947 94.1155 24.0782V28.536H92.6002Z" fill="#333333"/>
<path d="M30.0708 18.1329V23.7321C30.0614 24.176 30.0821 24.6199 30.1325 25.061C30.1743 25.4962 30.3529 25.9072 30.6429 26.2351C31.0048 26.5115 31.438 26.68 31.892 26.721C32.3461 26.762 32.8026 26.6739 33.2085 26.4669C33.5142 26.3264 33.7605 26.083 33.904 25.7794C34.0477 25.3911 34.1209 24.9805 34.1202 24.5666C34.1303 24.2991 34.1355 23.9953 34.1358 23.6551V18.1343H36.3617V23.9797C36.3617 24.062 36.3561 24.165 36.3458 24.2884C36.3437 24.9532 36.2235 25.6123 35.9907 26.2351C35.7737 26.8002 35.4107 27.298 34.9383 27.6779C34.4659 28.0578 33.9011 28.3063 33.3012 28.3981C32.9242 28.47 32.5412 28.5063 32.1574 28.5064C30.6429 28.5064 29.4888 28.0635 28.6952 27.1775C28.0871 26.4977 27.778 25.5192 27.7679 24.242L27.7524 23.9178V18.1329H30.0708Z" fill="#333333"/>
<path d="M38.9782 16.2837C39.1213 16.2809 39.2636 16.3064 39.3968 16.3588C39.53 16.4112 39.6515 16.4894 39.7541 16.5889C39.8603 16.6919 39.9435 16.816 39.9985 16.9532C40.0535 17.0903 40.079 17.2374 40.0733 17.385C40.0786 17.5292 40.0528 17.6728 39.9978 17.8063C39.9427 17.9397 39.8596 18.0599 39.7541 18.1586C39.5447 18.3556 39.266 18.4624 38.9782 18.4561C38.8364 18.4598 38.6953 18.4354 38.5631 18.3844C38.4308 18.3333 38.3101 18.2566 38.2078 18.1586C38.1042 18.0588 38.0228 17.9383 37.969 17.805C37.9152 17.6717 37.8902 17.5286 37.8957 17.385C37.8908 17.2409 37.9153 17.0974 37.9677 16.963C38.0201 16.8287 38.0993 16.7063 38.2005 16.6033C38.3017 16.5004 38.4228 16.4189 38.5564 16.364C38.6901 16.309 38.8336 16.2817 38.9782 16.2837ZM40.0747 28.536H37.8957V19.8314H40.0747V28.536Z" fill="#333333"/>
<path d="M46.0751 19.8307H47.3932V21.283C47.68 20.8168 48.0875 20.4362 48.5729 20.1812C49.0582 19.9262 49.6035 19.8062 50.1514 19.8338C50.5307 19.8144 50.91 19.8743 51.2647 20.0096C51.6195 20.1448 51.942 20.3526 52.2116 20.6194C52.7759 21.1933 53.0581 22.0287 53.0581 23.1256V28.536H51.5414V23.2314C51.5414 21.7515 50.9504 21.0115 49.7683 21.0115C49.1994 20.9867 48.6439 21.1878 48.2234 21.5706C48.0048 21.7927 47.8354 22.0579 47.726 22.3494C47.6167 22.6408 47.5698 22.9518 47.5886 23.2624V28.536H46.0719L46.0751 19.8307Z" fill="#333333"/>
<path d="M62.0593 24.5624V24.0019C62.0593 21.223 60.8827 19.8336 58.5294 19.8339C58.0136 19.8147 57.4995 19.9028 57.0198 20.0926C56.54 20.2824 56.1052 20.5697 55.743 20.9363C54.9649 21.712 54.5761 22.7946 54.5765 24.184C54.5765 25.6933 54.9958 26.8209 55.8343 27.5669C56.6477 28.2416 57.6859 28.5869 58.7428 28.5342C59.2079 28.5285 59.6706 28.4675 60.1212 28.3524C60.5869 28.2397 61.0391 28.0778 61.4703 27.8693C61.5901 27.8012 61.7061 27.7266 61.8177 27.646L61.4964 26.5594C61.4964 26.5594 61.0509 26.8122 60.8795 26.9019C60.238 27.1941 59.5389 27.3391 58.8338 27.326C58.4898 27.3414 58.1462 27.2878 57.8235 27.1682C57.5007 27.0487 57.2053 26.8657 56.9549 26.6301C56.44 26.0636 56.1529 25.3276 56.1486 24.5631L57.5453 24.5614L62.0593 24.5624ZM58.5294 20.9658C59.8624 20.9658 60.5392 21.7665 60.5599 23.3679H56.1747C56.2294 22.8428 56.4025 22.3368 56.6812 21.8878C56.8836 21.5886 57.1601 21.3465 57.4839 21.1849C57.8077 21.0234 58.1678 20.9479 58.5294 20.9658Z" fill="#333333"/>
<path d="M64.4337 18.1329H65.9479V20.0613H68.4169V21.2696H65.9479V25.6651C65.9312 26.0357 65.9668 26.4068 66.0537 26.7675C66.1121 26.9452 66.2297 27.0976 66.387 27.1993C66.5443 27.3011 66.7317 27.3462 66.9182 27.327C67.1441 27.3248 67.3684 27.2893 67.5838 27.2215C67.7647 27.1614 68.1658 26.9634 68.1658 26.9634L68.4832 28.031C68.4832 28.031 68.0818 28.1818 67.9478 28.2332C67.5043 28.4131 67.033 28.5154 66.5546 28.5356C66.0224 28.5743 65.4958 28.4064 65.0848 28.0672C64.6508 27.6642 64.4337 26.939 64.4337 25.8916V21.2682H63.1601V20.0613H64.4337V18.1329Z" fill="#333333"/>
<path d="M69.9301 19.8307H71.6266L72.9295 24.9844C73.0619 25.4837 73.244 26.195 73.4759 27.1181H73.5051C73.6462 26.5468 73.8182 25.8356 74.0212 24.9844L75.3537 19.831H77.1878L78.5052 24.9844C78.5249 25.0681 78.6967 25.7793 79.0205 27.1181H79.0512C79.0808 26.9824 79.2675 26.2711 79.6113 24.9844L80.9597 19.831H82.4591L80.1714 27.6006C80.1226 27.8703 79.9777 28.1134 79.7634 28.285C79.549 28.4566 79.2797 28.5453 79.005 28.5346C78.3786 28.5346 77.9693 28.1869 77.7772 27.4916L76.8224 24.0972C76.6004 23.3189 76.3934 22.4001 76.2013 21.341H76.1716C76.017 22.2707 75.8096 23.1909 75.5505 24.0972L74.6105 27.6006C74.5627 27.8735 74.4161 28.1194 74.1984 28.2916C73.9807 28.4638 73.7071 28.5502 73.4297 28.5346C73.1443 28.5486 72.8635 28.4582 72.6403 28.2804C72.4171 28.1026 72.2667 27.8496 72.2174 27.5689L69.9301 19.8307Z" fill="#333333"/>
<path d="M87.0556 19.8338C87.5806 19.8144 88.1041 19.9022 88.5939 20.0918C89.0837 20.2814 89.5294 20.5689 89.9037 20.9366C90.6917 21.7118 91.0854 22.7943 91.0849 24.184C91.0849 25.5631 90.6912 26.6457 89.9037 27.4318C89.1257 28.1409 88.1097 28.5342 87.0556 28.5342C86.0014 28.5342 84.9854 28.1409 84.2074 27.4318C83.4079 26.6462 83.0089 25.5636 83.0103 24.184C83.0117 22.8044 83.4108 21.7219 84.2074 20.9366C84.5817 20.5689 85.0274 20.2814 85.5172 20.0918C86.007 19.9022 86.5305 19.8144 87.0556 19.8338ZM87.0556 20.9819C86.7221 20.9665 86.3894 21.0263 86.0824 21.157C85.7754 21.2876 85.5019 21.4858 85.2825 21.7366C84.8077 22.291 84.5706 23.1015 84.5711 24.1682C84.5711 25.2252 84.8082 26.0361 85.2825 26.6008C85.5021 26.8515 85.7756 27.0495 86.0825 27.1801C86.3895 27.3108 86.7221 27.3707 87.0556 27.3555C87.3887 27.3686 87.7207 27.3077 88.0273 27.1772C88.334 27.0467 88.6077 26.8498 88.8287 26.6008C89.3034 26.0366 89.5405 25.2257 89.5401 24.1682C89.5401 23.1013 89.3029 22.2908 88.8287 21.7366C88.6091 21.4858 88.3357 21.2878 88.0287 21.1571C87.7217 21.0264 87.389 20.9666 87.0556 20.9819Z" fill="#333333"/>
<path d="M98.2154 16.2836H99.732V28.5359H98.2154V16.2836ZM103.694 19.8352H105.557L101.67 24.165L105.557 28.5359H103.53L100.29 24.7568C100.159 24.6235 100.083 24.445 100.079 24.2578C100.084 24.0586 100.166 23.8689 100.307 23.7276L103.694 19.8352Z" fill="#333333"/>
<path d="M111.584 20.3019L111.175 21.4486C110.572 21.1693 109.914 21.0302 109.25 21.0418C108.883 21.029 108.519 21.1068 108.19 21.2682C108.027 21.3339 107.888 21.4469 107.791 21.5925C107.694 21.7381 107.643 21.9095 107.645 22.0844C107.645 22.4972 107.927 22.8295 108.491 23.0813C109.4 23.4831 109.991 23.7498 110.264 23.8813C111.253 24.3644 111.748 25.0844 111.749 26.0411C111.768 26.4082 111.694 26.7742 111.532 27.1046C111.37 27.435 111.126 27.7188 110.824 27.9294C110.193 28.3488 109.447 28.5603 108.689 28.5342C108.158 28.5454 107.627 28.4841 107.113 28.3521C106.866 28.2864 106.629 28.1882 106.407 28.0602C106.282 27.9843 106.004 27.7508 106.004 27.7508L106.321 26.6392C106.321 26.6392 106.746 26.8551 106.901 26.9117C107.006 26.9511 107.24 27.0281 107.581 27.1291C107.959 27.2453 108.352 27.3062 108.747 27.3098C109.808 27.3098 110.338 26.9021 110.338 26.0868C110.338 25.6233 110.025 25.2607 109.398 24.9988C108.439 24.597 107.808 24.3102 107.504 24.1383C107.125 23.9636 106.804 23.6845 106.579 23.3339C106.353 22.9833 106.233 22.5757 106.232 22.1593C106.218 21.8047 106.299 21.4527 106.466 21.1394C106.634 20.8262 106.881 20.563 107.184 20.3768C107.784 20.0071 108.48 19.8235 109.184 19.8493C110.007 19.8116 110.827 19.967 111.579 20.303" fill="#333333"/>
<path d="M18.7289 8.00001C17.9317 8.00001 17.167 8.31577 16.6033 8.87782C16.0395 9.43988 15.7228 10.2022 15.7228 10.9971C15.723 11.1452 15.7339 11.2932 15.7556 11.4398C15.8621 12.15 16.2209 12.7985 16.7666 13.2673C17.3123 13.7361 18.0086 13.994 18.7289 13.9941C18.835 13.9942 18.9409 13.9888 19.0464 13.9779C19.813 13.8982 20.5195 13.528 21.0202 12.9438C21.5208 12.3596 21.7772 11.6059 21.7365 10.8386C21.6957 10.0713 21.3609 9.34887 20.8012 8.8206C20.2415 8.29234 19.4997 7.99858 18.7289 8.00001Z" fill="#27D4FF"/>
<path d="M21.7341 20.1588V19.3229C21.7341 19.3092 21.7341 19.2959 21.7341 19.2818C21.7341 19.2677 21.7341 19.2547 21.7341 19.2407C21.7263 18.5923 21.5066 17.9641 21.1084 17.4515C21.0682 17.3995 21.0259 17.3488 20.9825 17.2999C20.9391 17.2511 20.8848 17.2141 20.8389 17.1681C20.4376 16.7642 19.9289 16.4831 19.3726 16.358C18.8164 16.2329 18.2359 16.269 17.6995 16.462C17.1632 16.655 16.6934 16.9969 16.3455 17.4474C15.9977 17.8978 15.7863 18.438 15.7362 19.0044C15.7278 19.0958 15.7228 19.1879 15.7228 19.2818C15.7228 19.3757 15.7281 19.4773 15.7373 19.573L15.7401 21.1339C15.7444 21.9242 15.5538 22.7034 15.1851 23.403C14.8163 24.1026 14.2807 24.701 13.6255 25.1458C12.9702 25.5905 12.2153 25.8679 11.4273 25.9534C10.6393 26.0389 9.84223 25.9301 9.10632 25.6363C10.0544 26.6579 11.2767 27.3865 12.628 27.7358C13.9793 28.085 15.4027 28.0401 16.7292 27.6065C18.0557 27.1728 19.2294 26.3686 20.1108 25.2894C20.9923 24.2103 21.5444 22.9015 21.7017 21.5186C21.7129 21.4131 21.7196 21.3076 21.7263 21.199C21.7327 21.1026 21.7461 21.0084 21.7489 20.911C21.751 20.8375 21.7521 20.7643 21.7521 20.6905C21.7521 20.5125 21.7457 20.3364 21.7341 20.1613" fill="#27D4FF"/>
<path d="M3.00614 8C2.2367 8.00242 1.49748 8.2989 0.940715 8.82837C0.383947 9.35784 0.0520159 10.08 0.0132762 10.8461C-0.0254635 11.6123 0.231938 12.3641 0.732473 12.9467C1.23301 13.5293 1.93857 13.8984 2.70386 13.9779C2.80333 13.9878 2.9042 13.9931 3.00614 13.9931C3.79351 13.9783 4.54365 13.6561 5.09526 13.0958C5.64687 12.5354 5.9559 11.7817 5.9559 10.9965C5.9559 10.2114 5.64687 9.45762 5.09526 8.89726C4.54365 8.33691 3.79351 8.01473 3.00614 8Z" fill="#0069E6"/>
<path d="M6.0222 20.8849C6.0222 20.8191 6.01233 20.7555 6.01233 20.6894V20.7457C6.01233 20.7928 6.02079 20.8378 6.0222 20.8863" fill="#0069E6"/>
<path d="M6.08112 21.7141C6.08535 21.7461 6.09134 21.7778 6.09593 21.8098C6.09134 21.7774 6.085 21.7461 6.08112 21.7141Z" fill="#0069E6"/>
<path d="M6.09556 21.8101C6.09098 21.7781 6.08533 21.7468 6.08075 21.7144C6.04759 21.442 6.02808 21.1656 6.0222 20.8852C6.0222 20.8381 6.01232 20.7931 6.01197 20.7446V19.2807C6.0034 18.4915 5.68292 17.7375 5.12012 17.1825C4.55732 16.6274 3.79763 16.3161 3.00599 16.3161C2.21434 16.3161 1.45465 16.6274 0.891852 17.1825C0.329052 17.7375 0.00857486 18.4915 0 19.2807L0 21.1328C9.00257e-05 23.9285 1.08327 26.6161 3.02344 28.6345C4.9636 30.653 7.61079 31.8464 10.4124 31.9655C10.7141 32.011 11.021 32.011 11.3228 31.9655C13.0669 31.8948 14.7682 31.4062 16.2829 30.5412C17.7976 29.6762 19.081 28.4602 20.0245 26.9961C18.8803 28.005 17.4824 28.6846 15.9805 28.9623C14.4786 29.2399 12.9292 29.1052 11.4983 28.5724C10.0673 28.0396 8.8086 27.1289 7.85691 25.9377C6.90522 24.7465 6.29638 23.3197 6.09556 21.8101Z" fill="#0069E6"/>
<path d="M6.02222 20.8849C6.02857 21.1662 6.0482 21.4427 6.08112 21.7144C6.047 21.4391 6.02734 21.1622 6.02222 20.8849Z" fill="#0069E6"/>
</g>
</g>
<defs>
<clipPath id="clip0_122_4994">
<rect width="111.75" height="40" fill="white"/>
</clipPath>
</defs>
</svg>
