<svg width="80" height="18" viewBox="0 0 80 18" fill="none" xmlns="http://www.w3.org/2000/svg">
<g id="Clip path group">
<mask id="mask0_10_899" style="mask-type:luminance" maskUnits="userSpaceOnUse" x="0" y="0" width="80" height="18">
<g id="clip-path">
<path id="&#236;&#130;&#172;&#234;&#176;&#129;&#237;&#152;&#149; 41730" d="M80 0.818787H0V18H80V0.818787Z" fill="white"/>
</g>
</mask>
<g mask="url(#mask0_10_899)">
<g id="&#234;&#183;&#184;&#235;&#163;&#185; 179621">
<path id="&#237;&#140;&#168;&#236;&#138;&#164; 92130" d="M66.291 15.5202V9.29047H67.1808V10.6096H67.2134C67.3258 10.2384 67.549 9.91026 67.8532 9.66882C68.136 9.44277 68.4882 9.32063 68.8506 9.32294C68.9752 9.31739 69.0998 9.33192 69.2198 9.36599V10.415C69.091 10.3901 68.9598 10.3792 68.8287 10.3825C68.6597 10.3785 68.4917 10.4091 68.3351 10.4724C68.1784 10.5356 68.0364 10.6302 67.9179 10.7503C67.6598 11.0188 67.4863 11.3569 67.4189 11.7227C67.3857 11.923 67.3712 12.126 67.3758 12.3289V15.5202H66.291Z" fill="#333333"/>
<path id="&#237;&#140;&#168;&#236;&#138;&#164; 92131" d="M21.5272 8.07275V12.0811C21.5205 12.3989 21.5353 12.7167 21.5714 13.0325C21.6013 13.344 21.7292 13.6382 21.9367 13.873C22.1959 14.0709 22.5059 14.1914 22.831 14.2208C23.1561 14.2502 23.4828 14.1871 23.7734 14.0389C23.9923 13.9383 24.1686 13.7641 24.2714 13.5467C24.3742 13.2688 24.4266 12.9748 24.4261 12.6785C24.4334 12.487 24.4371 12.2695 24.4372 12.026V8.07376H26.0308V12.2584C26.0308 12.3173 26.0267 12.391 26.0194 12.4794C26.0179 12.9553 25.9318 13.4271 25.7651 13.873C25.6099 14.2775 25.3499 14.6339 25.0118 14.9059C24.6736 15.1778 24.2693 15.3557 23.8398 15.4214C23.5699 15.4729 23.2958 15.4988 23.021 15.499C21.9367 15.499 21.1106 15.1819 20.5424 14.5476C20.1071 14.061 19.8858 13.3605 19.8786 12.4462L19.8675 12.2141V8.07275H21.5272Z" fill="#333333"/>
<path id="&#237;&#140;&#168;&#236;&#138;&#164; 92132" d="M27.9038 6.74893C28.0063 6.74692 28.1082 6.7652 28.2035 6.80271C28.2989 6.84022 28.3858 6.89621 28.4593 6.96743C28.5353 7.04119 28.5949 7.13003 28.6343 7.22821C28.6736 7.32639 28.6919 7.43171 28.6878 7.53736C28.6916 7.64059 28.6732 7.74342 28.6337 7.83895C28.5943 7.93448 28.5348 8.02048 28.4593 8.09118C28.3094 8.23218 28.1098 8.30869 27.9038 8.30415C27.8023 8.30681 27.7013 8.28936 27.6067 8.2528C27.512 8.21624 27.4255 8.16131 27.3523 8.09118C27.2781 8.01972 27.2199 7.93346 27.1814 7.83803C27.1429 7.7426 27.125 7.64015 27.1289 7.53736C27.1254 7.43423 27.1429 7.33145 27.1804 7.23527C27.2179 7.13908 27.2746 7.05148 27.3471 6.97777C27.4195 6.90406 27.5062 6.84578 27.6019 6.80644C27.6976 6.76711 27.8003 6.74754 27.9038 6.74893ZM28.6888 15.5202H27.1289V9.28869H28.6888V15.5202Z" fill="#333333"/>
<path id="&#237;&#140;&#168;&#236;&#138;&#164; 92133" d="M32.9844 9.28824H33.928V10.3279C34.1334 9.99416 34.4251 9.7217 34.7725 9.53916C35.12 9.35662 35.5103 9.27073 35.9025 9.2905C36.1741 9.2766 36.4456 9.31945 36.6996 9.41629C36.9536 9.51314 37.1844 9.66185 37.3774 9.85288C37.7814 10.2637 37.9834 10.8618 37.9834 11.647V15.5202H36.8976V11.7228C36.8976 10.6633 36.4745 10.1336 35.6283 10.1336C35.2211 10.1158 34.8234 10.2598 34.5224 10.5338C34.3659 10.6928 34.2446 10.8827 34.1663 11.0913C34.088 11.2999 34.0545 11.5226 34.0679 11.7449V15.5202H32.9821L32.9844 9.28824Z" fill="#333333"/>
<path id="&#237;&#140;&#168;&#236;&#138;&#164; 92134" d="M44.4273 12.6756V12.2743C44.4273 10.2849 43.585 9.29031 41.9003 9.29047C41.531 9.27676 41.163 9.33985 40.8196 9.47573C40.4761 9.6116 40.1648 9.81728 39.9055 10.0797C39.3485 10.635 39.0702 11.41 39.0705 12.4047C39.0705 13.4851 39.3706 14.2924 39.9709 14.8264C40.5532 15.3095 41.2964 15.5567 42.053 15.5189C42.386 15.5148 42.7172 15.4711 43.0398 15.3888C43.3732 15.3081 43.697 15.1921 44.0056 15.0429C44.0914 14.9941 44.1744 14.9408 44.2543 14.883L44.0243 14.1052C44.0243 14.1052 43.7054 14.2862 43.5827 14.3504C43.1235 14.5596 42.623 14.6633 42.1182 14.654C41.8719 14.665 41.626 14.6266 41.3949 14.541C41.1638 14.4554 40.9524 14.3244 40.7731 14.1558C40.4045 13.7502 40.199 13.2233 40.1959 12.6761L41.1958 12.6748L44.4273 12.6756ZM41.9003 10.1008C42.8546 10.1008 43.3391 10.674 43.3539 11.8204H40.2146C40.2537 11.4445 40.3777 11.0823 40.5772 10.7609C40.7221 10.5466 40.92 10.3733 41.1518 10.2577C41.3836 10.142 41.6414 10.088 41.9003 10.1008Z" fill="#333333"/>
<path id="&#237;&#140;&#168;&#236;&#138;&#164; 92135" d="M46.127 8.07275H47.211V9.45327H48.9785V10.3182H47.211V13.4649C47.1991 13.7302 47.2246 13.9959 47.2868 14.2541C47.3286 14.3813 47.4128 14.4904 47.5253 14.5632C47.6379 14.6361 47.7721 14.6684 47.9057 14.6546C48.0674 14.6531 48.2279 14.6276 48.3821 14.5791C48.5117 14.5361 48.7988 14.3943 48.7988 14.3943L49.026 15.1586C49.026 15.1586 48.7387 15.2666 48.6427 15.3034C48.3252 15.4322 47.9878 15.5054 47.6453 15.5198C47.2644 15.5475 46.8874 15.4274 46.5932 15.1845C46.2824 14.896 46.127 14.3769 46.127 13.627V10.3172H45.2153V9.45327H46.127V8.07275Z" fill="#333333"/>
<path id="&#237;&#140;&#168;&#236;&#138;&#164; 92136" d="M50.0618 9.28815H51.2763L52.209 12.9776C52.3038 13.335 52.4342 13.8442 52.6002 14.5051H52.6211C52.7221 14.0961 52.8452 13.587 52.9905 12.9776L53.9445 9.2884H55.2575L56.2006 12.9776C56.2147 13.0375 56.3377 13.5467 56.5695 14.5051H56.5914C56.6126 14.4079 56.7463 13.8988 56.9924 12.9776L57.9577 9.2884H59.0311L57.3934 14.8505C57.3584 15.0436 57.2547 15.2176 57.1013 15.3405C56.9478 15.4633 56.755 15.5268 56.5584 15.5191C56.1099 15.5191 55.8169 15.2702 55.6794 14.7725L54.9959 12.3425C54.837 11.7853 54.6888 11.1276 54.5512 10.3694H54.53C54.4193 11.0349 54.2709 11.6937 54.0854 12.3425L53.4124 14.8505C53.3782 15.0459 53.2732 15.2219 53.1174 15.3452C52.9615 15.4684 52.7657 15.5303 52.5671 15.5191C52.3628 15.5292 52.1618 15.4644 52.002 15.3371C51.8422 15.2098 51.7345 15.0287 51.6992 14.8278L50.0618 9.28815Z" fill="#333333"/>
<path id="&#237;&#140;&#168;&#236;&#138;&#164; 92137" d="M62.3217 9.29041C62.6976 9.27648 63.0724 9.33933 63.423 9.47509C63.7736 9.61085 64.0927 9.81665 64.3607 10.0799C64.9247 10.6348 65.2066 11.4098 65.2063 12.4046C65.2063 13.3919 64.9244 14.1669 64.3607 14.7297C63.8037 15.2373 63.0764 15.5189 62.3217 15.5189C61.5671 15.5189 60.8397 15.2373 60.2828 14.7297C59.7104 14.1673 59.4248 13.3923 59.4258 12.4046C59.4268 11.417 59.7125 10.6421 60.2828 10.0799C60.5507 9.81665 60.8698 9.61085 61.2204 9.47509C61.5711 9.33933 61.9458 9.27648 62.3217 9.29041ZM62.3217 10.1123C62.083 10.1012 61.8448 10.1441 61.625 10.2376C61.4052 10.3312 61.2095 10.473 61.0524 10.6526C60.7125 11.0495 60.5428 11.6297 60.5431 12.3933C60.5431 13.15 60.7129 13.7305 61.0524 14.1348C61.2096 14.3142 61.4054 14.456 61.6251 14.5495C61.8449 14.643 62.083 14.686 62.3217 14.675C62.5602 14.6845 62.7979 14.6409 63.0174 14.5474C63.2369 14.454 63.4329 14.3131 63.591 14.1348C63.9309 13.7309 64.1007 13.1504 64.1003 12.3933C64.1003 11.6295 63.9306 11.0493 63.591 10.6526C63.4339 10.4731 63.2381 10.3313 63.0183 10.2377C62.7986 10.1442 62.5604 10.1013 62.3217 10.1123Z" fill="#333333"/>
<path id="&#237;&#140;&#168;&#236;&#138;&#164; 92138" d="M70.3108 6.7489H71.3965V15.5201H70.3108V6.7489ZM74.2329 9.29143H75.5666L72.784 12.3911L75.5666 15.5201H74.1157L71.7963 12.8147C71.7019 12.7193 71.6477 12.5915 71.6447 12.4575C71.6488 12.3149 71.7072 12.1791 71.8081 12.0779L74.2329 9.29143Z" fill="#333333"/>
<path id="&#237;&#140;&#168;&#236;&#138;&#164; 92139" d="M79.8809 9.62555L79.5882 10.4465C79.1571 10.2465 78.686 10.1469 78.2106 10.1552C77.9479 10.1461 77.6871 10.2017 77.4513 10.3173C77.3349 10.3644 77.2354 10.4453 77.1659 10.5495C77.0963 10.6537 77.0598 10.7764 77.0612 10.9016C77.0612 11.1971 77.2632 11.435 77.6672 11.6153C78.3178 11.9029 78.7409 12.0938 78.9365 12.188C79.6445 12.5339 79.9988 13.0492 79.9993 13.7341C80.0131 13.997 79.9596 14.259 79.8438 14.4955C79.728 14.732 79.5536 14.9352 79.3372 15.086C78.8857 15.3862 78.351 15.5376 77.8086 15.5189C77.4283 15.5269 77.0487 15.4831 76.6804 15.3885C76.5035 15.3415 76.3337 15.2712 76.1754 15.1796C76.0858 15.1252 75.8863 14.9581 75.8863 14.9581L76.1135 14.1623C76.1135 14.1623 76.4178 14.3169 76.5284 14.3574C76.6042 14.3856 76.7713 14.4408 77.0155 14.513C77.2861 14.5962 77.5673 14.6398 77.8505 14.6424C78.6095 14.6424 78.989 14.3505 78.989 13.7669C78.989 13.4351 78.7649 13.1754 78.3166 12.988C77.6298 12.7003 77.1778 12.495 76.9607 12.372C76.6892 12.2469 76.4593 12.0471 76.2979 11.7961C76.1366 11.5451 76.0505 11.2534 76.0499 10.9552C76.0398 10.7014 76.0976 10.4494 76.2174 10.2251C76.3372 10.0009 76.5147 9.81246 76.7317 9.67917C77.1608 9.41451 77.6591 9.28307 78.1633 9.30157C78.7524 9.27458 79.3395 9.38581 79.8776 9.62631" fill="#333333"/>
<path id="&#237;&#140;&#168;&#236;&#138;&#164; 92140" d="M13.4078 0.81879C12.837 0.81879 12.2897 1.04484 11.8861 1.44721C11.4825 1.84957 11.2557 2.3953 11.2557 2.96433C11.2559 3.07041 11.2637 3.17633 11.2792 3.28127C11.3555 3.78972 11.6123 4.25398 12.003 4.58958C12.3936 4.92517 12.8921 5.1098 13.4078 5.10988C13.4837 5.10993 13.5596 5.10606 13.6351 5.0983C14.1838 5.04123 14.6897 4.7762 15.0481 4.35796C15.4064 3.93972 15.59 3.40022 15.5609 2.8509C15.5317 2.30158 15.292 1.78442 14.8913 1.40624C14.4906 1.02807 13.9596 0.817768 13.4078 0.81879Z" fill="#AEAEAE"/>
<path id="&#237;&#140;&#168;&#236;&#138;&#164; 92141" d="M15.5591 9.52307V8.92469C15.5591 8.91487 15.5591 8.90531 15.5591 8.89524C15.5591 8.88517 15.5591 8.87585 15.5591 8.86578C15.5535 8.40163 15.3962 7.95196 15.1111 7.58495C15.0823 7.5477 15.052 7.51145 15.021 7.47646C14.9899 7.44146 14.951 7.41503 14.9182 7.38206C14.631 7.09291 14.2667 6.89169 13.8685 6.80213C13.4703 6.71257 13.0547 6.7384 12.6708 6.87658C12.2868 7.01475 11.9505 7.25951 11.7015 7.58199C11.4524 7.90446 11.3011 8.29121 11.2653 8.69662C11.2592 8.76207 11.2557 8.82802 11.2557 8.89524C11.2557 8.96245 11.2595 9.0352 11.2661 9.10367L11.2681 10.2211C11.2711 10.7869 11.1347 11.3447 10.8707 11.8455C10.6067 12.3463 10.2233 12.7748 9.75423 13.0932C9.28514 13.4115 8.74474 13.6101 8.1806 13.6713C7.61646 13.7326 7.04587 13.6546 6.51904 13.4444C7.19776 14.1756 8.07279 14.6973 9.04015 14.9473C10.0075 15.1973 11.0265 15.1652 11.9761 14.8547C12.9257 14.5443 13.766 13.9686 14.397 13.196C15.028 12.4234 15.4233 11.4865 15.5358 10.4965C15.5439 10.421 15.5487 10.3455 15.5535 10.2677C15.5581 10.1987 15.5677 10.1313 15.5697 10.0615C15.5712 10.0089 15.5719 9.95656 15.5719 9.90369C15.5719 9.77631 15.5674 9.65019 15.5591 9.52483" fill="#AEAEAE"/>
<path id="&#237;&#140;&#168;&#236;&#138;&#164; 92142" d="M2.15235 0.818787C1.60152 0.82052 1.07233 1.03276 0.67375 1.4118C0.275169 1.79084 0.0375449 2.30783 0.00981173 2.8563C-0.0179214 3.40476 0.166348 3.94295 0.524673 4.36003C0.882998 4.77712 1.3881 5.04134 1.93596 5.09829C2.00716 5.10534 2.07938 5.10912 2.15235 5.10912C2.71602 5.09857 3.25304 4.86793 3.64792 4.46678C4.04281 4.06563 4.26404 3.52601 4.26404 2.96395C4.26404 2.40189 4.04281 1.86227 3.64792 1.46112C3.25304 1.05997 2.71602 0.829331 2.15235 0.818787Z" fill="#757678"/>
<path id="&#237;&#140;&#168;&#236;&#138;&#164; 92143" d="M4.31115 10.0429C4.31115 9.99584 4.30408 9.95028 4.30408 9.90295V9.94323C4.30408 9.97696 4.31014 10.0092 4.31115 10.0439" fill="#0069E6"/>
<path id="&#237;&#140;&#168;&#236;&#138;&#164; 92144" d="M4.35339 10.6365C4.35647 10.6598 4.36082 10.6827 4.36415 10.706C4.36082 10.6825 4.35621 10.6598 4.35339 10.6365Z" fill="#0069E6"/>
<path id="&#237;&#140;&#168;&#236;&#138;&#164; 92145" d="M4.36371 10.7052C4.36043 10.6823 4.35639 10.6599 4.35311 10.6367C4.32937 10.4417 4.3154 10.2438 4.31119 10.0431C4.31119 10.0094 4.30412 9.97717 4.30387 9.94243V8.89446C4.29773 8.32948 4.06831 7.78973 3.66541 7.39238C3.26251 6.99503 2.71866 6.77216 2.15194 6.77216C1.58521 6.77216 1.04136 6.99503 0.638462 7.39238C0.235563 7.78973 0.0061386 8.32948 0 8.89446L0 10.2204C6.44479e-05 12.2217 0.775499 14.1457 2.16443 15.5907C3.55336 17.0357 5.44844 17.89 7.45407 17.9753C7.67008 18.0079 7.88977 18.0079 8.10577 17.9753C9.35436 17.9247 10.5723 17.5749 11.6567 16.9557C12.741 16.3365 13.6597 15.4659 14.3352 14.4178C13.5161 15.14 12.5154 15.6266 11.4402 15.8253C10.365 16.0241 9.25583 15.9276 8.23142 15.5462C7.20701 15.1648 6.30593 14.5128 5.62463 13.6601C4.94334 12.8073 4.50748 11.7859 4.36371 10.7052Z" fill="#757678"/>
<path id="&#237;&#140;&#168;&#236;&#138;&#164; 92146" d="M4.31116 10.0428C4.3157 10.2442 4.32976 10.4422 4.35332 10.6367C4.3289 10.4396 4.31482 10.2414 4.31116 10.0428Z" fill="#0069E6"/>
</g>
</g>
</g>
</svg>
