<svg width="57" height="56" viewBox="0 0 57 56" fill="none" xmlns="http://www.w3.org/2000/svg">
<path d="M48 14C49.3807 14 50.5 12.8807 50.5 11.5C50.5 10.1193 49.3807 9 48 9C46.6193 9 45.5 10.1193 45.5 11.5C45.5 12.8807 46.6193 14 48 14Z" fill="#636771"/>
<path d="M44.5 11.5C44.5 12.8807 43.3807 14 42 14C40.6193 14 39.5 12.8807 39.5 11.5C39.5 10.1193 40.6193 9 42 9C43.3807 9 44.5 10.1193 44.5 11.5Z" fill="#636771"/>
<path d="M19.3357 27.4144L25.6715 33.7502L19.3357 40.0859L22.1641 42.9144L28.4999 36.5786L34.8357 42.9144L37.6641 40.0859L31.3283 33.7502L37.6641 27.4144L34.8357 24.5859L28.4999 30.9217L22.1641 24.5859L19.3357 27.4144Z" fill="#636771"/>
<path fill-rule="evenodd" clip-rule="evenodd" d="M0.5 12V44C0.5 48.4183 4.08172 52 8.5 52H48.5C52.9183 52 56.5 48.4183 56.5 44V12C56.5 7.58172 52.9183 4 48.5 4H8.5C4.35786 4 0.950983 7.148 0.541303 11.182C0.513991 11.451 0.5 11.7239 0.5 12ZM8.5 8C6.42893 8 4.72549 9.574 4.52065 11.591C4.507 11.7255 4.5 11.8619 4.5 12V15H52.5V12C52.5 9.79086 50.7091 8 48.5 8H8.5ZM52.5 44V19H4.5V44C4.5 46.2091 6.29086 48 8.5 48H48.5C50.7091 48 52.5 46.2091 52.5 44Z" fill="#636771"/>
</svg>
