<svg width="16" height="16" viewBox="0 0 16 16" fill="none" xmlns="http://www.w3.org/2000/svg">
<path d="M8 1C6.61553 1 5.26216 1.41054 4.11101 2.17971C2.95987 2.94888 2.06266 4.04213 1.53285 5.32122C1.00303 6.6003 0.86441 8.00776 1.13451 9.36563C1.4046 10.7235 2.07129 11.9708 3.05026 12.9497C4.02922 13.9287 5.2765 14.5954 6.63437 14.8655C7.99224 15.1356 9.3997 14.997 10.6788 14.4672C11.9579 13.9373 13.0511 13.0401 13.8203 11.889C14.5895 10.7378 15 9.38447 15 8C15 6.14348 14.2625 4.36301 12.9497 3.05025C11.637 1.7375 9.85652 1 8 1ZM8.742 11.773C8.64454 11.8691 8.5284 11.9441 8.40077 11.9935C8.27314 12.0428 8.13674 12.0655 8 12.06C7.86344 12.064 7.72745 12.0407 7.60002 11.9914C7.4726 11.9421 7.35631 11.8679 7.258 11.773C7.11581 11.6271 7.0198 11.4424 6.98199 11.2422C6.94419 11.042 6.96626 10.8351 7.04545 10.6473C7.12465 10.4596 7.25744 10.2994 7.42723 10.1867C7.59701 10.0741 7.79625 10.014 8 10.014C8.20376 10.014 8.40299 10.0741 8.57278 10.1867C8.74256 10.2994 8.87536 10.4596 8.95455 10.6473C9.03375 10.8351 9.05582 11.042 9.01801 11.2422C8.98021 11.4424 8.8842 11.6271 8.742 11.773ZM8.6 9.281H7.384L6.936 3.94H9.05L8.6 9.281Z" fill="#0068E6"/>
</svg>
