<svg width="64" height="65" viewBox="0 0 64 65" fill="none" xmlns="http://www.w3.org/2000/svg">
<mask id="mask0_160_4478" style="mask-type:luminance" maskUnits="userSpaceOnUse" x="0" y="0" width="64" height="65">
<path d="M62 0.5H2C0.89543 0.5 0 1.39543 0 2.5V62.5C0 63.6046 0.89543 64.5 2 64.5H62C63.1046 64.5 64 63.6046 64 62.5V2.5C64 1.39543 63.1046 0.5 62 0.5Z" fill="white"/>
</mask>
<g mask="url(#mask0_160_4478)">
<path d="M37.867 14.024C37.867 15.0941 37.5497 16.1401 36.9552 17.0298C36.3607 17.9194 35.5157 18.6129 34.5271 19.0223C33.5385 19.4317 32.4507 19.5388 31.4012 19.33C30.3517 19.1212 29.3878 18.6058 28.6312 17.8491C27.8746 17.0924 27.3595 16.1283 27.1508 15.0788C26.9422 14.0293 27.0495 12.9415 27.4591 11.953C27.8687 10.9645 28.5623 10.1196 29.4521 9.52528C30.3419 8.93094 31.388 8.61382 32.458 8.61401C33.1685 8.61375 33.8721 8.75351 34.5286 9.02529C35.1851 9.29708 35.7816 9.69556 36.284 10.198C36.7865 10.7004 37.1849 11.2969 37.4567 11.9534C37.7285 12.6099 37.8673 13.3135 37.867 14.024Z" fill="#DCDDE0"/>
<path d="M34.7435 60.0059H30.1695C29.937 60.0058 29.7068 59.9599 29.492 59.8707C29.2772 59.7816 29.0822 59.651 28.9179 59.4865C28.7536 59.3219 28.6233 59.1266 28.5346 58.9117C28.4458 58.6968 28.4003 58.4665 28.4005 58.2339V40.1339C28.4013 39.6652 28.588 39.2159 28.9196 38.8847C29.2513 38.5534 29.7008 38.3672 30.1695 38.3669H34.7435C34.9763 38.3668 35.2067 38.4126 35.4218 38.5016C35.6368 38.5906 35.8322 38.7211 35.9968 38.8857C36.1614 39.0502 36.2919 39.2456 36.3809 39.4607C36.4699 39.6757 36.5156 39.9062 36.5155 40.1389V58.2389C36.5156 58.4717 36.4699 58.7022 36.3809 58.9172C36.2919 59.1323 36.1614 59.3277 35.9968 59.4922C35.8322 59.6568 35.6368 59.7873 35.4218 59.8763C35.2067 59.9653 34.9763 60.0111 34.7435 60.0109" fill="#DCDDE0"/>
<path d="M23.442 16.0531C23.4418 16.9446 23.1773 17.816 22.6819 18.5572C22.1865 19.2984 21.4824 19.876 20.6587 20.2171C19.835 20.5582 18.9287 20.6474 18.0543 20.4734C17.1799 20.2994 16.3768 19.8701 15.7464 19.2397C15.116 18.6093 14.6867 17.8062 14.5127 16.9318C14.3387 16.0574 14.4279 15.1511 14.769 14.3274C15.1101 13.5037 15.6877 12.7996 16.4289 12.3042C17.1701 11.8088 18.0415 11.5443 18.933 11.5441C20.1289 11.5441 21.2758 12.0191 22.1214 12.8647C22.967 13.7103 23.442 14.8572 23.442 16.0531Z" fill="#DCDDE0"/>
<path d="M50.4907 16.0529C50.4905 16.9445 50.226 17.8159 49.7306 18.5571C49.2352 19.2983 48.5311 19.8759 47.7074 20.217C46.8837 20.5581 45.9774 20.6473 45.103 20.4733C44.2286 20.2993 43.4255 19.87 42.7951 19.2396C42.1647 18.6092 41.7354 17.806 41.5614 16.9317C41.3874 16.0573 41.4766 15.151 41.8177 14.3273C42.1588 13.5036 42.7364 12.7995 43.4776 12.3041C44.2188 11.8087 45.0902 11.5441 45.9817 11.5439C47.1776 11.5439 48.3245 12.019 49.1701 12.8646C50.0157 13.7102 50.4907 14.8571 50.4907 16.0529Z" fill="#DCDDE0"/>
<path d="M20.963 24.6431C20.9716 24.0207 21.0792 23.4036 21.282 22.8151H14.26C13.7062 22.8151 13.1751 23.035 12.7836 23.4266C12.392 23.8182 12.172 24.3493 12.172 24.9031V38.7601C12.172 39.3138 12.392 39.8449 12.7836 40.2365C13.1751 40.6281 13.7062 40.8481 14.26 40.8481H15.553V52.8951C15.5527 53.0891 15.5908 53.2813 15.6649 53.4606C15.739 53.6399 15.8478 53.8028 15.985 53.94C16.1222 54.0773 16.2851 54.186 16.4645 54.2602C16.6438 54.3343 16.836 54.3723 17.03 54.3721H20.838C21.032 54.3723 21.2242 54.3343 21.4035 54.2602C21.5828 54.186 21.7458 54.0773 21.883 53.94C22.0202 53.8028 22.129 53.6399 22.2031 53.4606C22.2772 53.2813 22.3153 53.0891 22.315 52.8951V44.9811C21.4464 43.9401 20.9683 42.6288 20.963 41.2731V24.6431Z" fill="#DCDDE0"/>
<path d="M50.6586 22.8149H43.6346C43.8376 23.4034 43.9453 24.0205 43.9536 24.6429V41.2729C43.9474 42.6281 43.4702 43.939 42.6036 44.9809V52.8949C42.6034 53.2857 42.7581 53.6606 43.0338 53.9375C43.3096 54.2144 43.6839 54.3706 44.0746 54.3719H47.8886C48.2799 54.3714 48.655 54.2155 48.9314 53.9386C49.2078 53.6616 49.3629 53.2862 49.3626 52.8949V40.8479H50.6626C51.216 40.8474 51.7464 40.6272 52.1374 40.2356C52.5284 39.8441 52.7479 39.3133 52.7476 38.7599V24.8999C52.7476 24.6258 52.6936 24.3544 52.5885 24.1011C52.4835 23.8479 52.3296 23.6179 52.1355 23.4242C51.9415 23.2305 51.7112 23.0771 51.4578 22.9725C51.2043 22.868 50.9328 22.8144 50.6586 22.8149Z" fill="#DCDDE0"/>
<path d="M38.067 43.778H26.843C26.18 43.778 25.5441 43.5146 25.0753 43.0458C24.6064 42.577 24.343 41.9411 24.343 41.278V24.639C24.343 23.976 24.6064 23.3401 25.0753 22.8713C25.5441 22.4024 26.18 22.139 26.843 22.139H38.063C38.7256 22.1406 39.3605 22.4045 39.829 22.873C40.2975 23.3415 40.5614 23.9765 40.563 24.639V41.273C40.5614 41.9356 40.2975 42.5706 39.829 43.0391C39.3605 43.5076 38.7256 43.7715 38.063 43.773" fill="#DCDDE0"/>
</g>
</svg>
