<svg width="120" height="120" viewBox="0 0 120 120" fill="none" xmlns="http://www.w3.org/2000/svg">
<ellipse cx="60" cy="59.9993" rx="60" ry="59.9993" fill="black" fill-opacity="0.12"/>
<path d="M60.7842 60.0118C42.1317 60.0118 26.7132 71.5918 26.5137 86.1853V90.4783C26.6318 91.488 27.1418 92.411 27.9338 93.0485C28.7258 93.6859 29.7365 93.9867 30.7482 93.8863H90.0927C91.1043 93.9864 92.1147 93.6853 92.9067 93.048C93.6986 92.4106 94.2087 91.4879 94.3272 90.4783V86.1718C94.1367 71.8978 79.0767 60.1618 60.7842 60.0118Z" fill="black" fill-opacity="0.12"/>
<path d="M59.9845 55.1575C63.9977 55.1535 67.845 53.556 70.6806 50.7162C73.5162 47.8764 75.108 44.0267 75.106 40.0135C75.104 36.0004 73.5084 32.1523 70.67 29.3153C67.8316 26.4782 63.9827 24.8845 59.9695 24.8845C55.9564 24.8845 52.1075 26.4782 49.269 29.3153C46.4306 32.1523 44.835 36.0004 44.833 40.0135C44.831 44.0267 46.4228 47.8764 49.2584 50.7162C52.0836 53.5456 55.9875 55.1575 59.9845 55.1575Z" fill="black" fill-opacity="0.12"/>
</svg>
