<svg width="17" height="16" viewBox="0 0 17 16" fill="none" xmlns="http://www.w3.org/2000/svg">
<g id="trash_bk_16">
<path id="Union" fill-rule="evenodd" clip-rule="evenodd" d="M5.5 3C5.5 2.44772 5.94772 2 6.5 2H10.5C11.0523 2 11.5 2.44772 11.5 3H12.5H14.3C14.4105 3 14.5 3.08954 14.5 3.2V3.8C14.5 3.91046 14.4105 4 14.3 4H13.5V13C13.5 13.5523 13.0523 14 12.5 14H4.5C3.94772 14 3.5 13.5523 3.5 13V4L2.7 4C2.58954 4 2.5 3.91046 2.5 3.8V3.2C2.5 3.08954 2.58954 3 2.7 3H4.5H5.5ZM4.5 4V13H12.5V4H4.5ZM7 5.5C6.72386 5.5 6.5 5.72386 6.5 6V11C6.5 11.2761 6.72386 11.5 7 11.5C7.27614 11.5 7.5 11.2761 7.5 11V6C7.5 5.72386 7.27614 5.5 7 5.5ZM9.5 6C9.5 5.72386 9.72386 5.5 10 5.5C10.2761 5.5 10.5 5.72386 10.5 6V11C10.5 11.2761 10.2761 11.5 10 11.5C9.72386 11.5 9.5 11.2761 9.5 11V6Z" fill="white"/>
</g>
</svg>
